<svg width="16" height="16" viewBox="0 0 16 16" fill="none" xmlns="http://www.w3.org/2000/svg">
<path d="M0.226667 2.57333L2.38667 0.413333C2.53778 0.262222 2.71556 0.2 2.92 0.226666C3.12444 0.253333 3.28889 0.351111 3.41333 0.52L5.26667 3.10667C5.39111 3.28444 5.44 3.48444 5.41333 3.70667C5.38667 3.92 5.29778 4.10222 5.14667 4.25333L3.56 5.82667C4.46667 7.08889 5.48 8.28 6.6 9.4C7.72 10.52 8.90667 11.5289 10.16 12.4267L11.7467 10.8533C11.8978 10.7022 12.0844 10.6178 12.3067 10.6C12.5378 10.5822 12.7378 10.6356 12.9067 10.76L15.4667 12.5733C15.6356 12.6978 15.7333 12.8667 15.76 13.08C15.7956 13.2844 15.7378 13.4622 15.5867 13.6133L13.4133 15.7733C13.3867 15.7822 13.3422 15.7867 13.28 15.7867C13.2267 15.7867 13.0978 15.7778 12.8933 15.76C12.6889 15.7422 12.4756 15.7156 12.2533 15.68C12.04 15.6444 11.7644 15.5822 11.4267 15.4933C11.0889 15.3956 10.7422 15.2756 10.3867 15.1333C10.04 14.9911 9.64 14.8044 9.18667 14.5733C8.74222 14.3333 8.29333 14.0667 7.84 13.7733C7.38667 13.4711 6.89333 13.1022 6.36 12.6667C5.82667 12.2222 5.29778 11.7378 4.77333 11.2133C4.11556 10.5556 3.52 9.88889 2.98667 9.21333C2.46222 8.52889 2.04444 7.91111 1.73333 7.36C1.42222 6.80889 1.15556 6.28 0.933333 5.77333C0.711111 5.25778 0.555556 4.81333 0.466667 4.44C0.386667 4.05778 0.32 3.72444 0.266667 3.44C0.222222 3.15556 0.204444 2.94222 0.213333 2.8L0.226667 2.57333Z" fill="#F9AD09"/>
</svg>
