<svg width="23" height="22" viewBox="0 0 23 22" fill="none" xmlns="http://www.w3.org/2000/svg">
<mask id="path-1-inside-1" fill="white">
<path fill-rule="evenodd" clip-rule="evenodd" d="M13.6296 0H9.37037V3.08423C8.56375 3.2637 7.80001 3.54282 7.09578 3.90646L4.87415 1.78142L1.8624 4.66223L3.93749 6.6471C3.44685 7.35302 3.07202 8.13236 2.83734 8.96296H0V13.037H2.83734C3.07202 13.8676 3.44684 14.647 3.93749 15.3529L1.8624 17.3378L4.87415 20.2186L7.09577 18.0935C7.80001 18.4572 8.56375 18.7363 9.37037 18.9158V22H13.6296V18.9158C14.4363 18.7363 15.2 18.4572 15.9042 18.0935L18.1259 20.2186L21.1376 17.3378L19.0625 15.3529C19.5532 14.647 19.928 13.8676 20.1627 13.037H23V8.96296H20.1627C19.928 8.13236 19.5532 7.35302 19.0625 6.6471L21.1376 4.66223L18.1259 1.78142L15.9042 3.90646C15.2 3.54282 14.4363 3.2637 13.6296 3.08423V0ZM16 11C16 13.2091 13.9853 15 11.5 15C9.01472 15 7 13.2091 7 11C7 8.79086 9.01472 7 11.5 7C13.9853 7 16 8.79086 16 11Z"/>
</mask>
<path d="M9.37037 0V-1H8.37037V0H9.37037ZM13.6296 0H14.6296V-1H13.6296V0ZM9.37037 3.08423L9.58756 4.06036L10.3704 3.88618V3.08423H9.37037ZM7.09578 3.90646L6.40455 4.6291L6.92036 5.12248L7.55458 4.795L7.09578 3.90646ZM4.87415 1.78142L5.56537 1.05878L4.87415 0.397612L4.18293 1.05878L4.87415 1.78142ZM1.8624 4.66223L1.17117 3.93959L0.415686 4.66223L1.17117 5.38487L1.8624 4.66223ZM3.93749 6.6471L4.75863 7.21783L5.24671 6.51559L4.62871 5.92446L3.93749 6.6471ZM2.83734 8.96296V9.96296H3.59396L3.79967 9.23485L2.83734 8.96296ZM0 8.96296V7.96296H-1V8.96296H0ZM0 13.037H-1V14.037H0V13.037ZM2.83734 13.037L3.79967 12.7651L3.59396 12.037H2.83734V13.037ZM3.93749 15.3529L4.62871 16.0755L5.24671 15.4844L4.75863 14.7822L3.93749 15.3529ZM1.8624 17.3378L1.17117 16.6151L0.415686 17.3378L1.17117 18.0604L1.8624 17.3378ZM4.87415 20.2186L4.18293 20.9412L4.87415 21.6024L5.56537 20.9412L4.87415 20.2186ZM7.09577 18.0935L7.55458 17.205L6.92036 16.8775L6.40455 17.3709L7.09577 18.0935ZM9.37037 18.9158H10.3704V18.1138L9.58756 17.9396L9.37037 18.9158ZM9.37037 22H8.37037V23H9.37037V22ZM13.6296 22V23H14.6296V22H13.6296ZM13.6296 18.9158L13.4124 17.9396L12.6296 18.1138V18.9158H13.6296ZM15.9042 18.0935L16.5954 17.3709L16.0796 16.8775L15.4454 17.205L15.9042 18.0935ZM18.1259 20.2186L17.4346 20.9412L18.1259 21.6024L18.8171 20.9412L18.1259 20.2186ZM21.1376 17.3378L21.8288 18.0604L22.5843 17.3378L21.8288 16.6151L21.1376 17.3378ZM19.0625 15.3529L18.2414 14.7822L17.7533 15.4844L18.3713 16.0755L19.0625 15.3529ZM20.1627 13.037V12.037H19.406L19.2003 12.7651L20.1627 13.037ZM23 13.037V14.037H24V13.037H23ZM23 8.96296H24V7.96296H23V8.96296ZM20.1627 8.96296L19.2003 9.23486L19.406 9.96296H20.1627V8.96296ZM19.0625 6.6471L18.3713 5.92446L17.7533 6.51559L18.2414 7.21783L19.0625 6.6471ZM21.1376 4.66223L21.8288 5.38487L22.5843 4.66223L21.8288 3.93959L21.1376 4.66223ZM18.1259 1.78142L18.8171 1.05878L18.1259 0.397611L17.4346 1.05878L18.1259 1.78142ZM15.9042 3.90646L15.4454 4.795L16.0796 5.12248L16.5954 4.6291L15.9042 3.90646ZM13.6296 3.08423H12.6296V3.88618L13.4124 4.06036L13.6296 3.08423ZM9.37037 1H13.6296V-1H9.37037V1ZM10.3704 3.08423V0H8.37037V3.08423H10.3704ZM7.55458 4.795C8.18234 4.47085 8.86486 4.22115 9.58756 4.06036L9.15318 2.1081C8.26264 2.30624 7.41769 2.61479 6.63697 3.01792L7.55458 4.795ZM4.18293 2.50407L6.40455 4.6291L7.787 3.18382L5.56537 1.05878L4.18293 2.50407ZM2.55362 5.38487L5.56537 2.50407L4.18293 1.05878L1.17117 3.93959L2.55362 5.38487ZM4.62871 5.92446L2.55362 3.93959L1.17117 5.38487L3.24627 7.36974L4.62871 5.92446ZM3.79967 9.23485C4.00297 8.51529 4.32871 7.83638 4.75863 7.21783L3.11635 6.07637C2.56498 6.86966 2.14106 7.74944 1.87502 8.69107L3.79967 9.23485ZM0 9.96296H2.83734V7.96296H0V9.96296ZM1 13.037V8.96296H-1V13.037H1ZM2.83734 12.037H0V14.037H2.83734V12.037ZM4.75863 14.7822C4.32871 14.1636 4.00297 13.4847 3.79967 12.7651L1.87502 13.3089C2.14106 14.2506 2.56498 15.1303 3.11635 15.9236L4.75863 14.7822ZM2.55362 18.0604L4.62871 16.0755L3.24627 14.6303L1.17117 16.6151L2.55362 18.0604ZM5.56537 19.4959L2.55362 16.6151L1.17117 18.0604L4.18293 20.9412L5.56537 19.4959ZM6.40455 17.3709L4.18293 19.4959L5.56537 20.9412L7.787 18.8162L6.40455 17.3709ZM9.58756 17.9396C8.86486 17.7788 8.18234 17.5292 7.55458 17.205L6.63697 18.9821C7.41769 19.3852 8.26263 19.6938 9.15318 19.8919L9.58756 17.9396ZM10.3704 22V18.9158H8.37037V22H10.3704ZM13.6296 21H9.37037V23H13.6296V21ZM12.6296 18.9158V22H14.6296V18.9158H12.6296ZM15.4454 17.205C14.8177 17.5292 14.1351 17.7788 13.4124 17.9396L13.8468 19.8919C14.7374 19.6938 15.5823 19.3852 16.363 18.9821L15.4454 17.205ZM18.8171 19.4959L16.5954 17.3709L15.213 18.8162L17.4346 20.9412L18.8171 19.4959ZM20.4464 16.6151L17.4346 19.4959L18.8171 20.9412L21.8288 18.0604L20.4464 16.6151ZM18.3713 16.0755L20.4464 18.0604L21.8288 16.6151L19.7537 14.6303L18.3713 16.0755ZM19.2003 12.7651C18.997 13.4847 18.6713 14.1636 18.2414 14.7822L19.8837 15.9236C20.435 15.1303 20.8589 14.2506 21.125 13.3089L19.2003 12.7651ZM23 12.037H20.1627V14.037H23V12.037ZM22 8.96296V13.037H24V8.96296H22ZM20.1627 9.96296H23V7.96296H20.1627V9.96296ZM18.2414 7.21783C18.6713 7.83638 18.997 8.51529 19.2003 9.23486L21.125 8.69107C20.8589 7.74944 20.435 6.86966 19.8836 6.07637L18.2414 7.21783ZM20.4464 3.93959L18.3713 5.92446L19.7537 7.36974L21.8288 5.38487L20.4464 3.93959ZM17.4346 2.50406L20.4464 5.38487L21.8288 3.93959L18.8171 1.05878L17.4346 2.50406ZM16.5954 4.6291L18.8171 2.50406L17.4346 1.05878L15.213 3.18382L16.5954 4.6291ZM13.4124 4.06036C14.1351 4.22115 14.8177 4.47085 15.4454 4.795L16.363 3.01792C15.5823 2.61479 14.7374 2.30624 13.8468 2.1081L13.4124 4.06036ZM12.6296 0V3.08423H14.6296V0H12.6296ZM11.5 16C14.4236 16 17 13.8689 17 11H15C15 12.5494 13.547 14 11.5 14V16ZM6 11C6 13.8689 8.57642 16 11.5 16V14C9.45302 14 8 12.5494 8 11H6ZM11.5 6C8.57642 6 6 8.1311 6 11H8C8 9.45062 9.45302 8 11.5 8V6ZM17 11C17 8.1311 14.4236 6 11.5 6V8C13.547 8 15 9.45062 15 11H17Z" fill="#003A7D" mask="url(#path-1-inside-1)"/>
</svg>
