<svg width="24" height="24" viewBox="0 0 24 24" fill="none" xmlns="http://www.w3.org/2000/svg">
<path fill-rule="evenodd" clip-rule="evenodd" d="M12 0C5.3725 0 0 5.3725 0 12C0 18.6275 5.3725 24 12 24C18.6275 24 24 18.6275 24 12C24 5.3725 18.6275 0 12 0ZM5.4 9C5.4 7.01178 7.01178 5.4 9 5.4H15C16.9882 5.4 18.6 7.01178 18.6 9V15C18.6 16.9882 16.9882 18.6 15 18.6H9C7.01178 18.6 5.4 16.9882 5.4 15V9ZM9 6.4C7.56406 6.4 6.4 7.56406 6.4 9V15C6.4 16.4359 7.56406 17.6 9 17.6H15C16.4359 17.6 17.6 16.4359 17.6 15V9C17.6 7.56406 16.4359 6.4 15 6.4H9ZM12.2053 10.6152C11.6079 10.5266 11.021 10.8312 10.7495 11.3706C10.478 11.9101 10.583 12.5629 11.0101 12.9899C11.4371 13.417 12.0899 13.522 12.6294 13.2505C13.1688 12.979 13.4734 12.3921 13.3848 11.7947C13.2943 11.1847 12.8153 10.7057 12.2053 10.6152ZM9.67764 10.8311C10.1819 9.82924 11.2718 9.26369 12.3813 9.42822C12.7757 9.48669 13.1405 9.63257 13.4557 9.84571C13.4361 9.78637 13.4213 9.72476 13.4119 9.66134C13.3423 9.19193 13.5816 8.7308 14.0055 8.51745C14.4293 8.3041 14.9423 8.38664 15.2778 8.72219C15.6134 9.05774 15.6959 9.57066 15.4825 9.99454C15.2692 10.4184 14.8081 10.6577 14.3387 10.5881C14.2752 10.5787 14.2136 10.5639 14.1543 10.5443C14.3674 10.8595 14.5133 11.2243 14.5718 11.6187C14.7363 12.7282 14.1708 13.8181 13.1689 14.3224C12.167 14.8266 10.9547 14.6316 10.1616 13.8384C9.36844 13.0453 9.17336 11.833 9.67764 10.8311ZM14.4107 9.45503C14.4206 9.43537 14.4363 9.42008 14.455 9.41066C14.473 9.4016 14.4938 9.39796 14.5147 9.40106C14.5365 9.40429 14.5559 9.41446 14.5707 9.42927C14.5855 9.44408 14.5957 9.46353 14.5989 9.48532C14.602 9.50624 14.5984 9.52697 14.5893 9.54496C14.5799 9.56369 14.5646 9.57944 14.545 9.58934C14.5261 9.59884 14.5053 9.60189 14.4853 9.59893C14.4646 9.59586 14.4448 9.58628 14.4293 9.57072C14.4137 9.55516 14.4041 9.5354 14.4011 9.51467C14.3981 9.49474 14.4012 9.47391 14.4107 9.45503Z" fill="#003A7D"/>
</svg>
