<svg width="20" height="28" viewBox="0 0 20 28" fill="none" xmlns="http://www.w3.org/2000/svg">
<mask maskUnits="userSpaceOnUse" x="0" y="0" width="20" height="28" fill="black">
<rect fill="white" width="20" height="28"/>
<path fill-rule="evenodd" clip-rule="evenodd" d="M14.5157 2.28358C13.1327 1.42786 11.624 1 9.98952 1C8.77415 1 7.61118 1.25671 6.50058 1.77015C5.38998 2.28358 4.43307 2.97171 3.6298 3.83457C2.82654 4.69742 2.18743 5.71001 1.71246 6.87237C1.23748 8.03473 1 9.24341 1 10.4985C1 12.1671 1.41909 13.9427 2.25728 15.8253C2.83004 16.8522 3.49709 17.9076 4.25844 18.9915C5.95914 21.4127 7.8092 24.0119 10 26C11.4698 24.2915 12.8714 22.5404 14.2224 20.735C15.4657 19.0735 16.5693 17.4655 17.5332 15.9109C18.5111 13.8714 19 12.0316 19 10.3915C19 8.72285 18.5984 7.16831 17.7951 5.72784C16.9918 4.28738 15.8987 3.1393 14.5157 2.28358ZM10 4.83093C11.377 4.83093 12.5545 5.29935 13.5327 6.2362C14.5109 7.17306 15 8.30447 15 9.63047C15 10.9565 14.5109 12.0843 13.5327 13.0139C12.5545 13.9436 11.377 14.4084 10 14.4084C8.62302 14.4084 7.44545 13.9436 6.46727 13.0139C5.48908 12.0843 5 10.9565 5 9.63047C5 8.30447 5.48908 7.17306 6.46727 6.2362C7.44545 5.29935 8.62302 4.83093 10 4.83093Z"/>
</mask>
<path d="M6.50058 1.77015L6.92021 2.67784L6.50058 1.77015ZM1.71246 6.87237L0.78676 6.4941H0.78676L1.71246 6.87237ZM2.25728 15.8253L1.34373 16.2321L1.36203 16.2732L1.38394 16.3124L2.25728 15.8253ZM4.25844 18.9915L3.44014 19.5663H3.44014L4.25844 18.9915ZM10 26L9.32798 26.7405L10.0884 27.4306L10.7581 26.6522L10 26ZM14.2224 20.735L13.4217 20.1359L14.2224 20.735ZM17.5332 15.9109L18.3831 16.4379L18.4115 16.392L18.4349 16.3432L17.5332 15.9109ZM17.7951 5.72784L18.6685 5.24081V5.24081L17.7951 5.72784ZM13.5327 6.2362L12.841 6.9584L13.5327 6.2362ZM6.46727 13.0139L5.77837 13.7388L6.46727 13.0139ZM6.46727 6.2362L7.15895 6.9584L6.46727 6.2362ZM9.98952 2C11.4391 2 12.7654 2.37656 13.9896 3.13396L15.0419 1.4332C13.5 0.47915 11.8089 0 9.98952 0V2ZM6.92021 2.67784C7.90019 2.2248 8.92007 2 9.98952 2V0C8.62823 0 7.32217 0.288631 6.08095 0.862452L6.92021 2.67784ZM4.36173 4.51595C5.07322 3.75168 5.92286 3.13892 6.92021 2.67784L6.08095 0.862452C4.8571 1.42824 3.79292 2.19174 2.89787 3.15319L4.36173 4.51595ZM2.63815 7.25064C3.0704 6.19285 3.64609 5.28468 4.36173 4.51595L2.89787 3.15319C2.00698 4.11017 1.30446 5.22717 0.78676 6.4941L2.63815 7.25064ZM2 10.4985C2 9.37319 2.21222 8.29297 2.63815 7.25064L0.78676 6.4941C0.262744 7.77648 0 9.11364 0 10.4985H2ZM3.17082 15.4186C2.37659 13.6347 2 11.9981 2 10.4985H0C0 12.3361 0.461581 14.2507 1.34373 16.2321L3.17082 15.4186ZM5.07674 18.4167C4.3328 17.3576 3.68461 16.3314 3.13061 15.3382L1.38394 16.3124C1.97547 17.373 2.66137 18.4576 3.44014 19.5663L5.07674 18.4167ZM10.672 25.2595C8.57676 23.358 6.78713 20.8517 5.07674 18.4167L3.44014 19.5663C5.13114 21.9737 7.04165 24.6657 9.32798 26.7405L10.672 25.2595ZM13.4217 20.1359C12.0837 21.9239 10.6963 23.6572 9.24192 25.3478L10.7581 26.6522C12.2433 24.9258 13.659 23.1569 15.023 21.3341L13.4217 20.1359ZM16.6833 15.3839C15.7366 16.9107 14.6498 18.4946 13.4217 20.1359L15.023 21.3341C16.2815 19.6523 17.4019 18.0202 18.3831 16.4379L16.6833 15.3839ZM18 10.3915C18 11.8364 17.5678 13.5258 16.6315 15.4785L18.4349 16.3432C19.4544 14.217 20 12.2269 20 10.3915H18ZM16.9217 6.21488C17.6409 7.50463 18 8.89124 18 10.3915H20C20 8.55446 19.5558 6.83199 18.6685 5.24081L16.9217 6.21488ZM13.9896 3.13396C15.2257 3.89879 16.2002 4.92092 16.9217 6.21488L18.6685 5.24081C17.7835 3.65384 16.5718 2.37982 15.0419 1.4332L13.9896 3.13396ZM14.2244 5.514C13.0567 4.39559 11.6299 3.83093 10 3.83093V5.83093C11.124 5.83093 12.0524 6.20311 12.841 6.9584L14.2244 5.514ZM16 9.63047C16 8.02523 15.3948 6.63491 14.2244 5.514L12.841 6.9584C13.6271 7.7112 14 8.5837 14 9.63047H16ZM14.2216 13.7388C15.3945 12.6241 16 11.236 16 9.63047H14C14 10.677 13.6274 11.5444 12.8438 12.2891L14.2216 13.7388ZM10 15.4084C11.6276 15.4084 13.0534 14.8491 14.2216 13.7388L12.8438 12.2891C12.0557 13.0381 11.1264 13.4084 10 13.4084V15.4084ZM5.77837 13.7388C6.9466 14.8491 8.37242 15.4084 10 15.4084V13.4084C8.87362 13.4084 7.94431 13.0381 7.15616 12.2891L5.77837 13.7388ZM4 9.63047C4 11.236 4.60553 12.6241 5.77837 13.7388L7.15616 12.2891C6.37264 11.5444 6 10.677 6 9.63047H4ZM5.77558 5.514C4.60522 6.63491 4 8.02523 4 9.63047H6C6 8.5837 6.37295 7.7112 7.15895 6.9584L5.77558 5.514ZM10 3.83093C8.37005 3.83093 6.94334 4.39559 5.77558 5.514L7.15895 6.9584C7.94757 6.20311 8.87598 5.83093 10 5.83093V3.83093Z" fill="#003A7D"/>
</svg>
