<svg width="16" height="15" viewBox="0 0 16 15" fill="none" xmlns="http://www.w3.org/2000/svg">
<path d="M1.33333 0.333333H14.6667C15.0311 0.333333 15.3422 0.466666 15.6 0.733333C15.8667 0.991111 16 1.30222 16 1.66667V9.66667C16 10.0311 15.8667 10.3467 15.6 10.6133C15.3422 10.8711 15.0311 11 14.6667 11H6.72L2.66667 15V11H1.33333C0.968889 11 0.653333 10.8711 0.386667 10.6133C0.128889 10.3467 0 10.0311 0 9.66667V1.66667C0 1.30222 0.128889 0.991111 0.386667 0.733333C0.653333 0.466666 0.968889 0.333333 1.33333 0.333333Z" fill="#003A7D"/>
</svg>
