<svg width="271" height="32" viewBox="0 0 271 32" fill="none" xmlns="http://www.w3.org/2000/svg">
<path d="M28 30.229C24.5771 31.3465 21.0018 31.9437 17.3968 32C11.603 32 7.40895 30.5629 4.48642 27.7698C1.44438 24.7572 -0.177551 20.6233 0.0154533 16.3745C0.0154533 5.96088 7.7371 0.0102409 18.1557 0.0102409C21.1679 -0.0813589 24.1668 0.442345 26.9643 1.5485L25.4569 7.21578C23.1161 6.24589 20.5905 5.78675 18.0531 5.8698C12.0748 5.8698 7.55252 9.21957 7.55252 15.9899C7.55252 22.4567 11.6543 26.2619 17.5404 26.2619C18.7388 26.3261 19.9387 26.1682 21.0782 25.7964V19.2385H16.1766V13.723H28V30.229Z" fill="#75AC21"/>
<path fill-rule="evenodd" clip-rule="evenodd" d="M41.5877 0.001756C38.3832 -0.0217527 35.1814 0.190815 32.0103 0.637617H32V30.9702H39.124V18.869H41.29C44.2053 18.9484 45.5706 20.0016 46.4226 23.8366C46.9202 26.2883 47.6628 28.6874 48.6399 31H56C55.6022 30.2234 55.0538 28.221 54.4334 25.9556C54.1093 24.7719 53.7655 23.5164 53.4132 22.3265C52.6022 19.4949 51.3807 17.4383 49.1634 16.5739V16.4348C52.4885 15.2927 54.7284 12.2687 54.7784 8.85414C54.9134 6.38047 53.8279 3.99152 51.8529 2.41604C49.6048 0.687294 46.2994 0.001756 41.5877 0.001756ZM41.9675 13.8715H39.1343V5.37677C40.2097 5.20604 41.2988 5.12956 42.3884 5.14826C45.6938 5.19794 47.6749 6.74785 47.6749 9.44032C47.6749 12.1328 45.55 13.8715 41.9675 13.8715Z" fill="#75AC21"/>
<path d="M78.6538 17.9H67.1154V25.25H80V31H60V0H79.3522V5.74H67.1154V12.16H78.6437V17.86L78.6538 17.9Z" fill="#75AC21"/>
<path d="M103.692 17.9H92.0958V25.25H105V31H85V0H104.372V5.74H92.0958V12.16H103.642V17.86L103.692 17.9Z" fill="#75AC21"/>
<path d="M110.01 30.9501V0H118.302L124.819 11.3317C126.761 14.7493 128.474 18.2878 129.949 21.9246H130.09C129.642 17.6429 129.439 13.3397 129.482 9.03543V0.0499195H136V31H128.55L121.839 19.0692C119.827 15.5259 118.007 11.88 116.386 8.14686H116.244C116.437 12.2303 116.518 16.5833 116.518 21.6351V30.9501H110H110.01Z" fill="#75AC21"/>
<path fill-rule="evenodd" clip-rule="evenodd" d="M151 0.652915C154.129 0.187431 157.291 -0.0298299 160.456 0.00328559C164.917 0.00328559 167.655 0.419455 170.006 1.77962C172.4 2.94528 173.906 5.32924 173.892 7.9308C173.892 10.7323 172.21 13.341 168.564 14.6504V14.7418C172.262 15.7568 175 18.4264 175 22.4866C175.01 25.0975 173.766 27.5635 171.636 29.1554C169.285 30.9723 165.366 31.9975 158.92 31.9975C156.272 32.0218 153.625 31.8658 151 31.5306V0.652915ZM158.251 12.6812H160.654C164.489 12.6812 166.558 11.1383 166.558 8.81389C166.558 6.48943 164.687 5.18002 161.333 5.18002C160.285 5.16042 159.237 5.22152 158.199 5.36273V12.6812H158.251ZM161.083 26.7193C160.138 26.7464 159.192 26.7159 158.251 26.6279H158.283V17.7666H160.78C164.426 17.7666 167.352 18.8831 167.352 22.1922C167.352 25.5012 164.395 26.7193 161.083 26.7193Z" fill="#3D3D3D"/>
<path fill-rule="evenodd" clip-rule="evenodd" d="M192.672 32C201.792 32 208 25.8361 208 15.6798C208 7.16448 202.77 0.040025 193.186 0C183.976 0 178 6.94434 178 16.2301C178 25.0557 183.553 32 192.672 32ZM193.055 26.4365C188.334 26.4365 185.463 22.1631 185.457 16.1098C185.463 10.0961 188.143 5.56348 193.005 5.56348C197.872 5.56348 200.553 10.3465 200.553 15.9099C200.553 21.9337 197.782 26.4365 193.055 26.4365ZM185.457 16.1098C185.457 16.1032 185.457 16.0966 185.457 16.0901V16.1301C185.457 16.1233 185.457 16.1165 185.457 16.1098Z" fill="#3D3D3D"/>
<path fill-rule="evenodd" clip-rule="evenodd" d="M225.672 32C234.792 32 241 25.8361 241 15.6798C241 7.16448 235.76 0.040025 226.186 0C216.976 0 211 6.94434 211 16.2301C211 25.0557 216.553 32 225.672 32ZM226.045 26.4365C221.324 26.4365 218.453 22.1631 218.447 16.1098C218.453 10.0961 221.133 5.56348 225.995 5.56348C230.862 5.56348 233.543 10.3465 233.543 15.9099C233.543 21.9337 230.772 26.4365 226.045 26.4365ZM218.447 16.1098C218.447 16.1032 218.447 16.0966 218.447 16.0901V16.1301C218.447 16.1233 218.447 16.1165 218.447 16.1098Z" fill="#3D3D3D"/>
<path d="M246 0.03H252.833V13.72H252.971C253.651 12.52 254.369 11.42 255.049 10.32L261.941 0.03H270.458L260.366 13.22L271 31H262.946L255.482 17.63L252.853 20.89V31H246.02V0L246 0.03Z" fill="#3D3D3D"/>
</svg>
