<svg fill="none" height="40" viewBox="0 0 176 40" width="176" xmlns="http://www.w3.org/2000/svg"><g clip-rule="evenodd" fill-rule="evenodd"><path d="m0 40h176v-40h-176z" fill="#003a7d"/><g fill="#f9ad09"><path d="m9.88531 29.2481v-19.49236h7.24319v7.98486h4.3475l-.0152-7.99866h7.2446l.0138 19.50616h-7.2432v-7.9006h-4.3475v7.9006z"/><path d="m79.0908 29.2468v-19.49241h6.1798l5.6239 9.05931 5.6253-9.05931h5.7082v19.49241h-7.1145v-10.2193l-6.6915 10.7766-6.2199-11.0773v10.52z"/><path d="m127.855 29.2495v-19.49242h4.474l9.672 9.96002v-9.96002h3.069v19.49242h-4.901l-8.351-9.4028v9.4028z"/><path d="m149.193 29.2468v-19.49241h4.475l9.671 9.96141v-9.96141h3.069v19.49241h-4.9l-8.352-9.4014v9.4014z"/><path d="m67.1748 18.9802.0028-6.1779h-4.3462v6.182zm-11.7581 10.2662v-19.49103l13.806.00414c2.9634 0 5.364 2.41929 5.364 5.40409 0 2.4552-1.6221 4.5256-3.8442 5.1835l6.3222 8.8993h-8.6066l-5.6267-8.6731v8.6731z"/><path d="m112.67 16.111-2.933 7.2759 5.723-.0138zm-.826-6.36686h6.601l7.389 19.49936h-8.067l-1.091-2.7187-8.099.0276-1.118 2.7062-3.4-.0151z"/><path d="m34.5841 9.69408c0-1.10621-.8905-2.00414-1.9871-2.00414-1.0979 0-1.9898.89793-1.9898 2.00414 0 1.10762.8919 2.00272 1.9898 2.00272 1.0966 0 1.9871-.8951 1.9871-2.00272z"/><path d="m53.7086 9.66844c0-1.1062-.8919-2.00413-1.9885-2.00413-1.0979 0-1.9885.89793-1.9885 2.00413 0 1.10756.8906 2.00276 1.9885 2.00276 1.0966 0 1.9885-.8952 1.9885-2.00276z"/><path d="m39.8643 26.4168v-13.6537l4.425-.0083v13.6524zm12.5448-6.6979c0-5.7007-4.5854-10.32412-10.2438-10.32412-5.6585 0-10.2439 4.62342-10.2439 10.32412 0 5.6993 4.5854 10.3228 10.2439 10.3228 5.6584 0 10.2438-4.6235 10.2438-10.3228z"/></g></g></svg>