<svg width="28" height="36" viewBox="0 0 28 36" fill="none" xmlns="http://www.w3.org/2000/svg">
<g filter="url(#filter0_d)">
<path d="M13.78 1.89722C15.86 1.89722 17.78 2.43056 19.54 3.49722C21.3 4.56389 22.6867 5.995 23.7 7.79056C24.7311 9.58611 25.2467 11.5239 25.2467 13.6039C25.2467 15.6483 24.6244 17.9417 23.38 20.4839C22.1533 22.4217 20.7489 24.4306 19.1667 26.5106C17.5844 28.5728 16.3133 30.1639 15.3533 31.2839L13.9133 32.9372C13.7533 32.795 13.5222 32.5817 13.22 32.2972C12.9356 31.995 12.3756 31.3906 11.54 30.4839C10.7044 29.5772 9.89556 28.6617 9.11333 27.7372C8.33111 26.8128 7.45111 25.675 6.47333 24.3239C5.51333 22.9728 4.66889 21.6572 3.94 20.3772C2.87333 18.0306 2.34 15.8172 2.34 13.7372C2.34 12.1728 2.64222 10.6706 3.24667 9.23056C3.85111 7.77278 4.66 6.51056 5.67333 5.44389C6.70444 4.35944 7.92222 3.49722 9.32667 2.85722C10.7489 2.21722 12.2333 1.89722 13.78 1.89722ZM18.0733 8.83056C16.9178 7.675 15.5222 7.09722 13.8867 7.09722C12.2689 7.09722 10.8822 7.675 9.72667 8.83056C8.57111 9.98611 7.99333 11.3817 7.99333 13.0172C7.99333 14.6528 8.57111 16.0483 9.72667 17.2039C10.8822 18.3417 12.2689 18.9106 13.8867 18.9106C15.5222 18.9106 16.9178 18.3417 18.0733 17.2039C19.2289 16.0483 19.8067 14.6528 19.8067 13.0172C19.8067 11.3817 19.2289 9.98611 18.0733 8.83056Z" fill="url(#paint0_radial)"/>
</g>
<defs>
<filter id="filter0_d" x="0.339996" y="0.897217" width="26.9067" height="35.04" filterUnits="userSpaceOnUse" color-interpolation-filters="sRGB">
<feFlood flood-opacity="0" result="BackgroundImageFix"/>
<feColorMatrix in="SourceAlpha" type="matrix" values="0 0 0 0 0 0 0 0 0 0 0 0 0 0 0 0 0 0 127 0"/>
<feOffset dy="1"/>
<feGaussianBlur stdDeviation="1"/>
<feColorMatrix type="matrix" values="0 0 0 0 0 0 0 0 0 0 0 0 0 0 0 0 0 0 0.2 0"/>
<feBlend mode="normal" in2="BackgroundImageFix" result="effect1_dropShadow"/>
<feBlend mode="normal" in="SourceGraphic" in2="effect1_dropShadow" result="shape"/>
</filter>
<radialGradient id="paint0_radial" cx="0" cy="0" r="1" gradientUnits="userSpaceOnUse" gradientTransform="translate(14.0977 1.90774) rotate(90) scale(30.7704 25.9119)">
<stop stop-color="#004CA3"/>
<stop offset="1" stop-color="#003A7D"/>
</radialGradient>
</defs>
</svg>
