<svg width="28" height="36" viewBox="0 0 28 36" fill="none" xmlns="http://www.w3.org/2000/svg">
<g filter="url(#filter0_d)">
<path d="M13.78 1.66431C15.86 1.66431 17.78 2.19765 19.54 3.26431C21.3 4.33098 22.6867 5.76209 23.7 7.55765C24.7311 9.3532 25.2467 11.291 25.2467 13.371C25.2467 15.4154 24.6244 17.7088 23.38 20.251C22.1533 22.1888 20.7489 24.1976 19.1667 26.2776C17.5844 28.3399 16.3133 29.931 15.3533 31.051L13.9133 32.7043C13.7533 32.5621 13.5222 32.3488 13.22 32.0643C12.9356 31.7621 12.3756 31.1576 11.54 30.251C10.7044 29.3443 9.89556 28.4288 9.11333 27.5043C8.33111 26.5799 7.45111 25.4421 6.47333 24.091C5.51333 22.7399 4.66889 21.4243 3.94 20.1443C2.87333 17.7976 2.34 15.5843 2.34 13.5043C2.34 11.9399 2.64222 10.4376 3.24667 8.99765C3.85111 7.53987 4.66 6.27765 5.67333 5.21098C6.70444 4.12653 7.92222 3.26431 9.32667 2.62431C10.7489 1.98431 12.2333 1.66431 13.78 1.66431ZM18.0733 8.59765C16.9178 7.44209 15.5222 6.86431 13.8867 6.86431C12.2689 6.86431 10.8822 7.44209 9.72667 8.59765C8.57111 9.7532 7.99333 11.1488 7.99333 12.7843C7.99333 14.4199 8.57111 15.8154 9.72667 16.971C10.8822 18.1088 12.2689 18.6776 13.8867 18.6776C15.5222 18.6776 16.9178 18.1088 18.0733 16.971C19.2289 15.8154 19.8067 14.4199 19.8067 12.7843C19.8067 11.1488 19.2289 9.7532 18.0733 8.59765Z" fill="url(#paint0_radial)"/>
</g>
<defs>
<filter id="filter0_d" x="0.339996" y="0.664307" width="26.9067" height="35.04" filterUnits="userSpaceOnUse" color-interpolation-filters="sRGB">
<feFlood flood-opacity="0" result="BackgroundImageFix"/>
<feColorMatrix in="SourceAlpha" type="matrix" values="0 0 0 0 0 0 0 0 0 0 0 0 0 0 0 0 0 0 127 0"/>
<feOffset dy="1"/>
<feGaussianBlur stdDeviation="1"/>
<feColorMatrix type="matrix" values="0 0 0 0 0 0 0 0 0 0 0 0 0 0 0 0 0 0 0.2 0"/>
<feBlend mode="normal" in2="BackgroundImageFix" result="effect1_dropShadow"/>
<feBlend mode="normal" in="SourceGraphic" in2="effect1_dropShadow" result="shape"/>
</filter>
<radialGradient id="paint0_radial" cx="0" cy="0" r="1" gradientUnits="userSpaceOnUse" gradientTransform="translate(14.0977 1.67483) rotate(90) scale(30.7704 25.9119)">
<stop stop-color="#FEC448"/>
<stop offset="1" stop-color="#F9AD09"/>
</radialGradient>
</defs>
</svg>
