<?xml version="1.0" encoding="UTF-8"?>
<!DOCTYPE svg PUBLIC "-//W3C//DTD SVG 1.1//EN" "http://www.w3.org/Graphics/SVG/1.1/DTD/svg11.dtd">
<svg xmlns="http://www.w3.org/2000/svg" xmlns:xlink="http://www.w3.org/1999/xlink">
<symbol id="accept">
	<path d="M25.53 2.76c.313.315.47.697.47 1.146 0 .449-.157.83-.47 1.145L13.386 17.239l-2.281 2.29A1.55 1.55 0 019.964 20a1.55 1.55 0 01-1.14-.471l-2.282-2.29L.47 11.145A1.561 1.561 0 010 10c0-.449.157-.83.47-1.145l2.281-2.29a1.55 1.55 0 011.14-.47c.448 0 .828.156 1.141.47l4.932 4.967L20.968.472A1.55 1.55 0 0122.108 0c.448 0 .828.157 1.141.471l2.281 2.29z"/>
</symbol>
<symbol id="arrow-small-right" viewBox="0 0 6 8">
	<path fill="#003A7D" d="M5.207 3.81L1.992 7.022.837 5.868l2.06-2.059L.837 1.75 1.992.595l3.215 3.214z"/>
</symbol>
<symbol id="arrow" viewBox="0 0 8 12">
	<path fill="#003A7D" d="M7.253 5.986l-5.05 5.05L.388 9.223l3.235-3.236L.387 2.75 2.204.935l5.05 5.05z"/>
</symbol>
<symbol id="blocks" viewBox="0 0 15 15">
	<path fill="#003A7D" d="M.667.333h2.666c.187 0 .343.067.467.2.133.125.2.28.2.467v2.667a.655.655 0 01-.2.48.633.633 0 01-.467.186H.667a.679.679 0 01-.48-.186.679.679 0 01-.187-.48V1C0 .813.062.658.187.533a.655.655 0 01.48-.2zM6 .333h2.667c.186 0 .342.067.466.2.134.125.2.28.2.467v2.667a.655.655 0 01-.2.48.633.633 0 01-.466.186H6a.679.679 0 01-.48-.186.679.679 0 01-.187-.48V1c0-.187.063-.342.187-.467a.655.655 0 01.48-.2zm5.333 0H14c.187 0 .342.067.467.2.133.125.2.28.2.467v2.667a.655.655 0 01-.2.48.633.633 0 01-.467.186h-2.667a.679.679 0 01-.48-.186.679.679 0 01-.186-.48V1c0-.187.062-.342.186-.467a.655.655 0 01.48-.2zM.667 5.667h2.666c.187 0 .343.066.467.2.133.124.2.28.2.466V9a.655.655 0 01-.2.48.633.633 0 01-.467.187H.667a.679.679 0 01-.48-.187A.679.679 0 010 9V6.333c0-.186.062-.342.187-.466a.655.655 0 01.48-.2zm5.333 0h2.667c.186 0 .342.066.466.2.134.124.2.28.2.466V9a.655.655 0 01-.2.48.633.633 0 01-.466.187H6a.679.679 0 01-.48-.187.679.679 0 01-.187-.48V6.333c0-.186.063-.342.187-.466a.655.655 0 01.48-.2zm5.333 0H14c.187 0 .342.066.467.2.133.124.2.28.2.466V9a.655.655 0 01-.2.48.633.633 0 01-.467.187h-2.667a.679.679 0 01-.48-.187.679.679 0 01-.186-.48V6.333c0-.186.062-.342.186-.466a.655.655 0 01.48-.2zM.667 11h2.666c.187 0 .343.067.467.2.133.124.2.28.2.467v2.666a.655.655 0 01-.2.48.633.633 0 01-.467.187H.667a.679.679 0 01-.48-.187.679.679 0 01-.187-.48v-2.666c0-.187.062-.343.187-.467a.655.655 0 01.48-.2zM6 11h2.667c.186 0 .342.067.466.2.134.124.2.28.2.467v2.666a.654.654 0 01-.2.48.633.633 0 01-.466.187H6a.679.679 0 01-.48-.187.679.679 0 01-.187-.48v-2.666c0-.187.063-.343.187-.467A.655.655 0 016 11zm5.333 0H14c.187 0 .342.067.467.2.133.124.2.28.2.467v2.666a.655.655 0 01-.2.48A.633.633 0 0114 15h-2.667a.679.679 0 01-.48-.187.679.679 0 01-.186-.48v-2.666c0-.187.062-.343.186-.467a.655.655 0 01.48-.2z"/>
</symbol>
<symbol id="book" viewBox="0 0 26 23">
	<rect width="21" height="21" x="4" y="1" stroke="#003A7D" stroke-width="2" rx="5"/>
	<path stroke="#fff" stroke-linecap="square" stroke-width="2" d="M2 7.01L7 7"/>
	<path stroke="#003A7D" stroke-linecap="square" stroke-width="2" d="M2 7.01L7 7"/>
	<path stroke="#fff" stroke-linecap="square" stroke-width="2" d="M2 17h5"/>
	<path stroke="#003A7D" stroke-linecap="square" stroke-width="2" d="M2 17h5"/>
	<path stroke="#fff" stroke-linecap="square" stroke-width="2" d="M2 12h5"/>
	<path stroke="#003A7D" stroke-linecap="square" stroke-width="2" d="M2 12h5"/>
	<path fill="#003A7D" fill-rule="evenodd" d="M15.689 11c1.424 0 2.578-1.343 2.578-3s-1.154-3-2.578-3-2.578 1.343-2.578 3 1.154 3 2.578 3zM20.038 17c-.175-3.356-2.1-6-4.449-6-2.348 0-4.273 2.644-4.449 6h8.898z" clip-rule="evenodd"/>
</symbol>
<symbol id="facebook" viewBox="0 0 24 24">
	<path fill="#003A7D" fill-rule="evenodd" d="M.48 12C.48 5.638 5.638.48 12 .48 18.364.48 23.52 5.638 23.52 12c0 6.362-5.157 11.52-11.52 11.52C5.639 23.52.48 18.362.48 12zm12.518-3.56h1.731V6.545h-1.731c-1.433 0-2.477 1.222-2.477 2.727v1.049H8.667v1.783h1.854v5.353h2.043v-5.353h1.839l.327-1.783h-2.165V9.07c0-.36.228-.63.433-.63z" clip-rule="evenodd"/>
</symbol>
<symbol id="gear" viewBox="0 0 23 22">
	<mask id="gear-a" fill="#fff">
		<path fill-rule="evenodd" d="M13.63 0H9.37v3.084c-.806.18-1.57.459-2.274.822L4.874 1.781 1.862 4.662l2.075 1.985a7.75 7.75 0 00-1.1 2.316H0v4.074h2.837c.235.83.61 1.61 1.1 2.316l-2.075 1.985 3.012 2.88 2.222-2.125a9.411 9.411 0 002.274.823V22h4.26v-3.084a9.41 9.41 0 002.274-.823l2.222 2.126 3.012-2.881-2.076-1.985a7.749 7.749 0 001.1-2.316H23V8.963h-2.837a7.749 7.749 0 00-1.1-2.316l2.075-1.985-3.012-2.88-2.222 2.124a9.41 9.41 0 00-2.274-.822V0zM16 11c0 2.21-2.015 4-4.5 4S7 13.21 7 11s2.015-4 4.5-4S16 8.79 16 11z" clip-rule="evenodd"/>
	</mask>
	<path fill="#003A7D" d="M9.37 0v-1h-1v1h1zm4.26 0h1v-1h-1v1zM9.37 3.084l.218.976.782-.174v-.802h-1zm-2.274.822l-.691.723.515.493.635-.327-.46-.889zM4.874 1.781l.691-.722-.69-.661-.692.66.691.723zM1.862 4.662l-.69-.722-.756.722.755.723.691-.723zm2.075 1.985l.822.57.488-.701-.618-.592-.692.723zm-1.1 2.316v1h.757l.206-.728-.963-.272zM0 8.963v-1h-1v1h1zm0 4.074h-1v1h1v-1zm2.837 0l.963-.272-.206-.728h-.757v1zm1.1 2.316l.692.723.618-.592-.488-.702-.822.57zm-2.075 1.985l-.69-.723-.756.723.755.722.691-.722zm3.012 2.88l-.691.723.691.661.691-.66-.69-.723zm2.222-2.125l.459-.888-.635-.327-.515.493.69.723zm2.274.823h1v-.802l-.782-.174-.218.976zm0 3.084h-1v1h1v-1zm4.26 0v1h1v-1h-1zm0-3.084l-.218-.976-.782.174v.802h1zm2.274-.823l.691-.722-.515-.493-.635.327.46.889zm2.222 2.126l-.691.722.69.661.692-.66-.691-.723zm3.012-2.881l.69.722.756-.722-.755-.723-.691.723zm-2.076-1.985l-.82-.57-.489.701.618.592.692-.723zm1.1-2.316v-1h-.756l-.206.728.963.272zm2.838 0v1h1v-1h-1zm0-4.074h1v-1h-1v1zm-2.837 0l-.963.272.206.728h.757v-1zm-1.1-2.316l-.692-.723-.618.592.488.702.822-.57zm2.075-1.985l.69.723.756-.723-.755-.722-.691.722zm-3.012-2.88l.691-.723-.691-.661-.691.66.69.723zm-2.222 2.124l-.459.889.635.327.515-.493-.69-.723zm-2.274-.822h-1v.802l.782.174.218-.976zM9.37 1h4.26v-2H9.37v2zm1 2.084V0h-2v3.084h2zM7.555 4.795a8.412 8.412 0 012.033-.735l-.435-1.952c-.89.198-1.735.507-2.516.91l.918 1.777zm-3.372-2.29l2.222 2.124 1.382-1.445-2.222-2.125-1.382 1.445zm-1.63 2.88l3.012-2.88-1.382-1.446-3.012 2.88 1.383 1.446zm2.076.54L2.554 3.94 1.17 5.385 3.246 7.37 4.63 5.924zm-.83 3.31a6.75 6.75 0 01.96-2.017L3.116 6.076a8.75 8.75 0 00-1.241 2.615l1.925.544zM0 9.963h2.837v-2H0v2zm1 3.074V8.963h-2v4.074h2zm1.837-1H0v2h2.837v-2zm1.922 2.745a6.75 6.75 0 01-.96-2.017l-1.924.544c.266.942.69 1.821 1.241 2.615l1.643-1.142zM2.554 18.06l2.075-1.984-1.383-1.446-2.075 1.985 1.383 1.445zm3.011 1.436l-3.011-2.88L1.17 18.06l3.012 2.881 1.382-1.445zm.84-2.125l-2.222 2.125 1.382 1.445 2.222-2.125-1.382-1.445zm3.183.569a8.41 8.41 0 01-2.033-.735l-.918 1.777c.78.403 1.626.712 2.516.91l.435-1.952zM10.37 22v-3.084h-2V22h2zm3.26-1H9.37v2h4.26v-2zm-1-2.084V22h2v-3.084h-2zm2.815-1.711a8.41 8.41 0 01-2.033.735l.435 1.952a10.41 10.41 0 002.516-.91l-.918-1.777zm3.372 2.29l-2.222-2.124-1.382 1.445 2.222 2.125 1.382-1.445zm1.63-2.88l-3.012 2.88 1.382 1.446 3.012-2.88-1.383-1.446zm-2.076-.54l2.075 1.985 1.383-1.445-2.075-1.985-1.383 1.446zm.83-3.31a6.75 6.75 0 01-.96 2.017l1.643 1.142a8.752 8.752 0 001.241-2.615l-1.925-.544zM23 12.037h-2.837v2H23v-2zm-1-3.074v4.074h2V8.963h-2zm-1.837 1H23v-2h-2.837v2zM18.24 7.218a6.75 6.75 0 01.96 2.017l1.924-.544a8.75 8.75 0 00-1.241-2.615L18.24 7.218zm2.205-3.278l-2.075 1.984 1.383 1.446 2.075-1.985-1.383-1.445zm-3.011-1.436l3.011 2.88L21.83 3.94l-3.012-2.881-1.382 1.445zm-.84 2.125l2.222-2.125-1.382-1.445-2.222 2.125 1.382 1.445zm-3.183-.569c.723.161 1.406.41 2.033.735l.918-1.777a10.411 10.411 0 00-2.516-.91l-.435 1.952zM12.63 0v3.084h2V0h-2zM11.5 16c2.924 0 5.5-2.131 5.5-5h-2c0 1.55-1.453 3-3.5 3v2zM6 11c0 2.869 2.576 5 5.5 5v-2C9.453 14 8 12.55 8 11H6zm5.5-5C8.576 6 6 8.131 6 11h2c0-1.55 1.453-3 3.5-3V6zm5.5 5c0-2.869-2.576-5-5.5-5v2c2.047 0 3.5 1.45 3.5 3h2z" mask="url(#gear-a)"/>
</symbol>
<symbol id="instagram" viewBox="0 0 24 24">
	<path fill="#003A7D" fill-rule="evenodd" d="M12 0C5.372 0 0 5.372 0 12s5.372 12 12 12 12-5.372 12-12S18.628 0 12 0zM5.4 9A3.6 3.6 0 019 5.4h6A3.6 3.6 0 0118.6 9v6a3.6 3.6 0 01-3.6 3.6H9A3.6 3.6 0 015.4 15V9zM9 6.4A2.6 2.6 0 006.4 9v6A2.6 2.6 0 009 17.6h6a2.6 2.6 0 002.6-2.6V9A2.6 2.6 0 0015 6.4H9zm3.205 4.215a1.4 1.4 0 10-.41 2.77 1.4 1.4 0 00.41-2.77zm-2.527.216a2.6 2.6 0 013.778-.985 1.1 1.1 0 11.699.699 2.6 2.6 0 11-4.477.287zm4.733-1.376a.1.1 0 11.178.09.1.1 0 01-.178-.09z" clip-rule="evenodd"/>
</symbol>
<symbol id="letter" viewBox="0 0 16 14">
	<path fill="#003A7D" d="M.333.333h15.334c.089 0 .142.023.16.067.026.044.004.102-.067.173l-7.52 7.56A.332.332 0 018 8.24a.332.332 0 01-.24-.107L.24.573C.169.503.142.444.16.4.187.356.244.333.333.333zM.24 3.24l3.52 3.52a.332.332 0 01.107.24.332.332 0 01-.107.24L.24 10.76c-.071.071-.129.098-.173.08-.045-.027-.067-.084-.067-.173V3.333c0-.089.022-.142.067-.16.044-.026.102-.004.173.067zm12 3.52l3.52-3.52c.071-.071.129-.093.173-.067.045.018.067.071.067.16v7.334c0 .089-.022.146-.067.173-.044.018-.102-.009-.173-.08l-3.52-3.52a.332.332 0 01-.107-.24c0-.089.036-.169.107-.24zm-1.333 1.813l4.853 4.854c.071.07.093.129.067.173-.018.044-.071.067-.16.067H.333c-.089 0-.146-.023-.173-.067-.018-.044.009-.102.08-.173l4.853-4.854a.332.332 0 01.24-.106c.09 0 .17.035.24.106L7.76 10.76a.332.332 0 00.24.107.332.332 0 00.24-.107l2.187-2.187a.332.332 0 01.24-.106c.089 0 .169.035.24.106z"/>
</symbol>
<symbol id="parameters" viewBox="0 0 25 22">
	<path stroke="#fff" stroke-linecap="square" d="M1.375 3.5h23.089"/>
	<path fill="#003A7D" fill-rule="evenodd" stroke="#fff" d="M6.5 6a2.5 2.5 0 100-5 2.5 2.5 0 000 5z" clip-rule="evenodd"/>
	<path stroke="#fff" stroke-linecap="square" d="M1.375 11h23.089"/>
	<path fill="#003A7D" fill-rule="evenodd" stroke="#fff" d="M19.5 13a2.5 2.5 0 100-5 2.5 2.5 0 000 5z" clip-rule="evenodd"/>
	<path stroke="#fff" stroke-linecap="square" d="M1.375 18.5h23.089"/>
	<path fill="#003A7D" fill-rule="evenodd" stroke="#fff" d="M6.5 21a2.5 2.5 0 100-5 2.5 2.5 0 000 5z" clip-rule="evenodd"/>
</symbol>
<symbol id="pdf-2" viewBox="0 0 37 48">
	<path stroke="#003A7D" stroke-width="2" d="M1 47V1h26.62L36 9.5V47H1z"/>
	<path fill="#003A7D" d="M10.35 38.83V42H8.867v-8.531h3.264c.953 0 1.709.248 2.267.744.563.496.844 1.152.844 1.969 0 .836-.275 1.486-.826 1.95-.547.466-1.314.698-2.303.698H10.35zm0-1.19h1.78c.528 0 .93-.122 1.208-.368.277-.25.416-.61.416-1.079 0-.46-.14-.828-.422-1.101-.281-.277-.668-.42-1.16-.428H10.35v2.977zM16.543 42v-8.531h2.52c.753 0 1.421.168 2.003.504a3.43 3.43 0 011.36 1.43c.32.617.48 1.324.48 2.12v.428c0 .809-.162 1.52-.486 2.133a3.372 3.372 0 01-1.377 1.418c-.594.332-1.275.498-2.045.498h-2.455zm1.482-7.336v6.152h.967c.777 0 1.373-.242 1.787-.726.418-.488.631-1.188.639-2.098v-.474c0-.926-.201-1.633-.604-2.121-.402-.489-.986-.733-1.752-.733h-1.037zm11.274 3.72h-3.434V42h-1.482v-8.531h5.42v1.195h-3.938v2.537H29.3v1.184z"/>
</symbol>
<symbol id="pdf" viewBox="0 0 23 28">
	<path stroke="#003A7D" d="M.5.5h15.433L22.5 7.039V27.5H.5V.5z"/>
	<path stroke="#003A7D" d="M15 0v8h8"/>
	<path stroke="#003A7D" stroke-linecap="square" d="M5.5 11.5h12M5.5 15.5h12M5.5 19.5h12"/>
</symbol>
<symbol id="phone" viewBox="0 0 16 16">
	<path d="M.227 2.573l2.16-2.16A.609.609 0 012.92.227a.704.704 0 01.493.293l1.854 2.587a.838.838 0 01.146.6.912.912 0 01-.266.546L3.56 5.827A28.86 28.86 0 006.6 9.4a28.516 28.516 0 003.56 3.027l1.587-1.574a.863.863 0 01.56-.253.866.866 0 01.6.16l2.56 1.813a.713.713 0 01.293.507.577.577 0 01-.173.533l-2.174 2.16a.466.466 0 01-.133.014 8.978 8.978 0 01-1.027-.107 9.607 9.607 0 01-.826-.187 11.107 11.107 0 01-1.04-.36 16.392 16.392 0 01-1.2-.56c-.445-.24-.894-.506-1.347-.8a19.287 19.287 0 01-1.48-1.106 23.752 23.752 0 01-1.587-1.454 22.908 22.908 0 01-1.786-2A16.275 16.275 0 011.733 7.36a17.722 17.722 0 01-.8-1.587A8.374 8.374 0 01.467 4.44c-.08-.382-.147-.716-.2-1a3.237 3.237 0 01-.054-.64l.014-.227z"/>
</symbol>
<symbol id="pin-white" viewBox="0 0 11 15">
	<mask id="pin-white-a" width="11" height="15" x="0" y="0" fill="#000" maskUnits="userSpaceOnUse">
		<path fill="#fff" d="M0 0h11v15H0z"/>
		<path fill-rule="evenodd" d="M7.758 1.619A4.338 4.338 0 005.495 1a4.24 4.24 0 00-1.745.371 4.542 4.542 0 00-1.435.995 4.757 4.757 0 00-.959 1.464A4.433 4.433 0 001 5.577c0 .804.21 1.66.629 2.567.286.495.62 1.004 1 1.526s.725.962 1.032 1.32c.308.357.625.711.954 1.062.328.35.55.582.665.695.115.114.204.198.267.253l.566-.64c.377-.432.877-1.049 1.498-1.85.622-.8 1.174-1.575 1.656-2.324.489-.983.733-1.87.733-2.66 0-.804-.2-1.553-.602-2.248a4.564 4.564 0 00-1.64-1.66zM5.5 2.846c.689 0 1.277.226 1.766.677.49.452.734.997.734 1.636 0 .64-.245 1.183-.734 1.63-.489.449-1.077.673-1.766.673-.688 0-1.277-.224-1.766-.672C3.244 6.342 3 5.798 3 5.16c0-.64.245-1.185.734-1.637.489-.451 1.078-.677 1.766-.677z" clip-rule="evenodd"/>
	</mask>
	<path fill="#fff" d="M7.758 1.619l-.512.858.512-.858zM3.75 1.37l.407.914-.407-.914zm-1.435.995l.72.695-.72-.695zM1.356 3.83l-.92-.39.92.39zm.273 4.314l-.908.42.02.041.022.04.866-.5zm1 1.526l.808-.589-.808.59zm1.032 1.32l-.758.652.758-.652zm.954 1.062l.73-.684-.73.684zm.665.695l-.701.713.701-.713zm.267.253l-.658.753.748.654.659-.744L5.547 13zm.566-.64l.749.664.005-.006-.754-.657zm1.498-1.85l-.79-.613.79.613zm1.656-2.324l.84.54.03-.046.025-.049-.895-.445zm.13-4.908l.866-.5-.865.5zm-2.13.245l-.679.735.678-.735zm0 3.267l-.676-.738.675.738zM3.733 3.523l-.679-.734.679.734zM5.494 2c.64 0 1.217.159 1.752.477L8.27.76A5.338 5.338 0 005.495 0v2zm-1.337.285A3.24 3.24 0 015.495 2V0a5.24 5.24 0 00-2.152.458l.814 1.827zm-1.123.776a3.542 3.542 0 011.123-.776L3.343.458c-.666.297-1.252.7-1.747 1.213l1.438 1.39zm-.757 1.16c.192-.454.445-.837.757-1.16L1.596 1.67A5.756 5.756 0 00.436 3.44l1.84.78zM2 5.576c0-.47.091-.92.277-1.357L.436 3.44A5.433 5.433 0 000 5.577h2zm.536 2.148C2.164 6.918 2 6.205 2 5.577H0c0 .98.255 1.98.72 2.987l1.816-.839zm.901 1.356a16.399 16.399 0 01-.943-1.438L.764 8.645c.305.529.658 1.067 1.057 1.614l1.616-1.178zm.982 1.257a20.24 20.24 0 01-.982-1.257L1.821 10.26c.391.537.752 1 1.082 1.383l1.516-1.304zm.926 1.03c-.32-.34-.628-.684-.926-1.03l-1.516 1.304c.317.368.644.732.982 1.093l1.46-1.367zm.636.667a28.949 28.949 0 01-.636-.667l-1.46 1.367c.326.348.561.595.694.725l1.402-1.425zm.224.212a5.91 5.91 0 01-.224-.212L4.58 13.46c.118.117.224.218.31.293l1.316-1.506zm-.84-.549l-.567.64 1.498 1.325.566-.64-1.498-1.325zM6.82 9.897a43.966 43.966 0 01-1.462 1.807l1.508 1.314c.395-.454.908-1.088 1.534-1.894l-1.58-1.227zm1.605-2.252A31.35 31.35 0 016.82 9.897l1.58 1.227c.637-.821 1.207-1.62 1.707-2.397L8.426 7.645zM9 5.525c0 .588-.183 1.32-.629 2.215l1.79.891c.534-1.07.839-2.112.839-3.105H9zM8.532 3.78C8.845 4.321 9 4.897 9 5.526h2c0-.98-.247-1.902-.737-2.748L8.532 3.779zM7.246 2.477c.545.326.97.756 1.286 1.302l1.731-1.001A5.564 5.564 0 008.27.76L7.246 2.477zm.699.312C7.264 2.16 6.43 1.846 5.5 1.846v2c.447 0 .79.138 1.088.412l1.357-1.47zM9 5.159c0-.93-.37-1.739-1.055-2.37l-1.357 1.47c.294.27.412.553.412.9h2zM7.942 7.527C8.629 6.897 9 6.09 9 5.159H7c0 .347-.118.626-.41.893l1.352 1.475zM5.5 8.462c.928 0 1.76-.311 2.442-.935L6.59 6.052c-.297.272-.642.41-1.091.41v2zm-2.442-.935c.681.624 1.514.935 2.442.935v-2c-.449 0-.794-.138-1.09-.41L3.057 7.527zM2 5.159c0 .931.371 1.739 1.058 2.368L4.41 6.052C4.118 5.785 4 5.506 4 5.16H2zm1.055-2.37C2.371 3.42 2 4.229 2 5.159h2c0-.347.118-.63.412-.9l-1.357-1.47zM5.5 1.846c-.93 0-1.764.314-2.445.943l1.357 1.47c.297-.275.641-.413 1.088-.413v-2z" mask="url(#pin-white-a)"/>
</symbol>
<symbol id="pin" viewBox="0 0 16 23">
	<path fill="#003A7D" fill-rule="evenodd" d="M12.014 1.757A7.497 7.497 0 007.991.615c-1.08 0-2.114.229-3.102.686a8.076 8.076 0 00-2.551 1.836A8.82 8.82 0 00.633 5.84 8.456 8.456 0 000 9.066c0 1.484.373 3.064 1.118 4.739.509.914 1.102 1.853 1.778 2.817a39.003 39.003 0 001.835 2.436c.546.66 1.111 1.313 1.695 1.96.584.647.978 1.076 1.183 1.285.205.21.363.365.475.466l1.006-1.18c.67-.8 1.558-1.938 2.663-3.416a59.752 59.752 0 002.943-4.292C15.566 12.067 16 10.43 16 8.971a8.387 8.387 0 00-1.071-4.15 8.283 8.283 0 00-2.915-3.064zM8 4.024c1.224 0 2.27.417 3.14 1.25.87.834 1.304 1.84 1.304 3.02s-.434 2.183-1.304 3.01c-.87.827-1.916 1.24-3.14 1.24-1.224 0-2.27-.413-3.14-1.24-.87-.827-1.304-1.83-1.304-3.01 0-1.18.434-2.186 1.304-3.02.87-.833 1.916-1.25 3.14-1.25z" clip-rule="evenodd"/>
</symbol>
<symbol id="pin2" viewBox="0 0 20 28">
	<path fill="#003A7D" d="M6.5 1.77l.42.908-.42-.908zM1.713 6.872l-.925-.378.925.378zm.545 8.953l-.913.407.018.041.022.04.873-.488zm2.001 3.166l-.818.575.818-.575zM10 26l-.672.74.76.69.67-.778L10 26zm4.222-5.265l-.8-.6.8.6zm3.311-4.824l.85.527.029-.046.023-.049-.902-.432zm.262-10.183l.873-.487-.873.487zm-4.262.508l-.692.722.692-.722zm-7.066 6.778l-.689.725.69-.725zm0-6.778l.692.722-.692-.722zM9.99 2a7.44 7.44 0 014 1.134l1.052-1.7A9.44 9.44 0 009.99 0v2zm-3.07.678C7.9 2.225 8.92 2 9.99 2V0a9.22 9.22 0 00-3.91.862l.84 1.816zM4.362 4.516A8.086 8.086 0 016.92 2.678L6.08.862a10.085 10.085 0 00-3.182 2.291l1.464 1.363zM2.638 7.25a8.913 8.913 0 011.724-2.735L2.898 3.153A10.911 10.911 0 00.787 6.494l1.851.757zM2 10.498c0-1.125.212-2.205.638-3.247L.787 6.494A10.497 10.497 0 000 10.5h2zm1.17 4.92C2.378 13.636 2 11.999 2 10.499H0c0 1.838.462 3.753 1.344 5.734l1.827-.813zm1.907 2.999a35.264 35.264 0 01-1.946-3.079l-1.747.974a37.244 37.244 0 002.056 3.254l1.637-1.15zm5.595 6.842c-2.095-1.901-3.885-4.407-5.595-6.842l-1.637 1.15c1.691 2.407 3.602 5.099 5.888 7.174l1.344-1.482zm2.75-5.123a98.087 98.087 0 01-4.18 5.212l1.516 1.304c1.485-1.726 2.901-3.495 4.265-5.318l-1.601-1.198zm3.261-4.752a66.181 66.181 0 01-3.261 4.752l1.601 1.198a68.176 68.176 0 003.36-4.896l-1.7-1.054zM18 10.392c0 1.444-.432 3.134-1.369 5.087l1.804.864C19.455 14.217 20 12.227 20 10.392h-2zm-1.078-4.177A8.421 8.421 0 0118 10.392h2c0-1.838-.444-3.56-1.331-5.151l-1.747.974zM13.99 3.134a8.313 8.313 0 012.932 3.08l1.747-.973a10.314 10.314 0 00-3.627-3.808L13.99 3.134zm.234 2.38C13.057 4.396 11.63 3.831 10 3.831v2c1.124 0 2.052.372 2.841 1.127l1.383-1.444zM16 9.63c0-1.605-.605-2.995-1.776-4.116l-1.383 1.444C13.627 7.711 14 8.584 14 9.63h2zm-1.778 4.109C15.395 12.624 16 11.236 16 9.63h-2c0 1.047-.373 1.914-1.156 2.66l1.378 1.449zM10 15.409c1.628 0 3.053-.56 4.222-1.67l-1.378-1.45c-.788.75-1.718 1.12-2.844 1.12v2zm-4.222-1.67c1.169 1.11 2.594 1.67 4.222 1.67v-2c-1.126 0-2.056-.37-2.844-1.12l-1.378 1.45zM4 9.63c0 1.606.606 2.994 1.778 4.109l1.378-1.45C6.373 11.544 6 10.677 6 9.63H4zm1.776-4.116C4.606 6.634 4 8.025 4 9.63h2c0-1.046.373-1.919 1.159-2.672L5.776 5.514zM10 3.831c-1.63 0-3.057.565-4.224 1.683l1.383 1.444C7.948 6.203 8.876 5.831 10 5.831v-2z"/>
</symbol>
<symbol id="plan" viewBox="0 0 30 27">
	<path stroke="#003A7D" d="M1 3.919l7.84-2.626 12.32 1.915L29 1.764v21.788l-7.84 1.692L8.84 23.33 1 25.707V3.92z" clip-rule="evenodd"/>
	<path stroke="#003A7D" stroke-linecap="square" d="M21 3.674v21.059M9 2.093v20.741"/>
</symbol>
<symbol id="play-circle" viewBox="0 0 96 96">
	<g stroke="#fff" stroke-width="2">
		<path d="M41.099 63.256l.054-29.6 20.173 14.78-20.227 14.82z"/>
		<path d="M48 95c25.957 0 47-21.043 47-47S73.957 1 48 1 1 22.043 1 48s21.043 47 47 47z" clip-rule="evenodd"/>
	</g>
</symbol>
<symbol id="play" viewBox="0 0 72 72">
	<path stroke="#fff" d="M.5.5h71v71H.5z"/>
	<path stroke="#fff" d="M46 35.5L31 25v21l15-10.5z"/>
</symbol>
<symbol id="point" viewBox="0 0 16 15">
	<path fill="#003A7D" d="M1.333.333h13.334c.364 0 .675.134.933.4.267.258.4.57.4.934v8c0 .364-.133.68-.4.946a1.272 1.272 0 01-.933.387H6.72l-4.053 4v-4H1.333c-.364 0-.68-.129-.946-.387A1.316 1.316 0 010 9.667v-8C0 1.302.129.99.387.733c.266-.266.582-.4.946-.4z"/>
</symbol>
<symbol id="press-release-full" viewBox="0 0 23 28">
	<path stroke="#003A7D" d="M.5.5h15.433L22.5 7.039V27.5H.5V.5z"/>
	<path stroke="#003A7D" d="M15 0v8h8"/>
	<path stroke="#003A7D" stroke-linecap="square" d="M5.5 11.5h12M5.5 15.5h12M5.5 19.5h12"/>
</symbol>
<symbol id="press-release-illustr" viewBox="0 0 27 24">
	<path stroke="#003A7D" d="M2.5 5.5h22v18h-22zM.5.5h26v5H.5z"/>
	<path stroke="#003A7D" d="M9.5 10.5h8v3h-8z"/>
</symbol>
<symbol id="search" viewBox="0 0 20 20">
	<path d="M9.167 16.833a6.667 6.667 0 100-13.333 6.667 6.667 0 000 13.333zM17.5 18.5l-3.625-3.625"/>
</symbol>
<symbol id="simile" viewBox="0 0 22 27">
	<path fill="#fff" stroke="#003A7D" d="M.5 4.5h21v18H.5z"/>
	<path stroke="#003A7D" stroke-linecap="square" d="M11 .5v25.902"/>
	<path stroke="#003A7D" stroke-linecap="round" stroke-linejoin="round" d="M21.5 13.5h-7.42M17 11l-3 2.5 3 2.5M.5 13.5h7.42M5 11l3 2.5L5 16"/>
</symbol>
<symbol id="vk" viewBox="0 0 24 24">
	<path fill="#003A7D" fill-rule="evenodd" d="M0 12C0 5.372 5.372 0 12 0s12 5.372 12 12-5.372 12-12 12S0 18.628 0 12zm17.938 3.072c-.262-.486-1.323-1.533-1.323-1.533-.979-.916-.979-.978-.057-2.185l.005-.007c.13-.171.28-.367.448-.592 1.017-1.376 1.082-1.83 1.027-1.979-.032-.094-.198-.13-.44-.13H15.37a.332.332 0 00-.155.036.488.488 0 00-.135.166l-.003.006c-.023.061-.338.89-.744 1.592-.928 1.591-1.27 1.591-1.384 1.591a.271.271 0 01-.143-.04c-.326-.216-.312-.74-.3-1.204v-.003l.002-.127.002-.113c0-.345.012-.638.023-.896.036-.912.027-1.178-.385-1.277-.204-.05-.349-.087-.911-.095h-.29c-.518 0-1.04.022-1.33.167a.688.688 0 00-.25.211c.16.03.425.111.58.325.216.295.217.91.217.969.019.312.098 1.819-.325 2.053a.374.374 0 01-.174.046c-.324 0-.727-.47-1.386-1.628-.361-.631-.597-1.2-.692-1.43l-.03-.07c-.057-.136-.14-.29-.392-.29H5.272c-.21 0-.405.121-.31.348.012.032 1.5 3.53 3.152 5.273 1.35 1.424 2.873 1.527 3.166 1.527h.859c.159 0 .384-.164.384-.45 0-.912.307-1.254.547-1.332a.38.38 0 01.119-.018c.317 0 .632.364.996.787l.001.002c.244.283.493.573.746.75.33.228.603.262.733.262h1.875c.102-.008.402-.093.49-.265.052-.104.027-.243-.079-.421 0-.002 0-.003-.002-.004a.104.104 0 00-.012-.021z" clip-rule="evenodd"/>
</symbol>
<symbol id="youtube" viewBox="0 0 24 24">
	<path fill="#003A7D" fill-rule="evenodd" d="M12 0C5.372 0 0 5.372 0 12s5.372 12 12 12 12-5.372 12-12S18.628 0 12 0zm2.004 11.791l-2.808-1.31c-.245-.114-.446.014-.446.285v2.468c0 .271.201.399.446.285l2.806-1.31c.247-.115.247-.303.002-.418zM5.75 12c0 4.321.107 4.875 6.25 4.875 6.142 0 6.25-.554 6.25-4.875S18.142 7.125 12 7.125c-6.143 0-6.25.554-6.25 4.875z" clip-rule="evenodd"/>
</symbol>
<symbol id="zip" viewBox="0 0 27 24">
	<path stroke="#003A7D" d="M2.5 5.5h22v18h-22zM.5.5h26v5H.5z"/>
	<path stroke="#003A7D" d="M9.5 10.5h8v3h-8z"/>
</symbol>
</svg>