<svg width="20" height="20" viewBox="0 0 20 20" fill="none" xmlns="http://www.w3.org/2000/svg">
<path d="M9.99964 11.8182C12.0051 11.8182 13.636 10.1873 13.636 8.18182C13.636 6.17636 12.0051 4.54546 9.99964 4.54546C7.99419 4.54546 6.36328 6.17636 6.36328 8.18182C6.36328 10.1873 7.99419 11.8182 9.99964 11.8182ZM9.99964 6.36364C11.0024 6.36364 11.8178 7.17909 11.8178 8.18182C11.8178 9.18455 11.0024 10 9.99964 10C8.99692 10 8.18146 9.18455 8.18146 8.18182C8.18146 7.17909 8.99692 6.36364 9.99964 6.36364Z" fill="#FFAA05"/>
<path d="M9.47307 18.9218C9.62704 19.0314 9.81134 19.0903 10.0003 19.0903C10.1893 19.0903 10.3737 19.0314 10.5276 18.9218C10.804 18.7264 17.2994 14.0364 17.2731 8.18182C17.2731 4.17182 14.0103 0.909088 10.0003 0.909088C5.99035 0.909088 2.72762 4.17182 2.72762 8.17727C2.70126 14.0364 9.19671 18.7264 9.47307 18.9218ZM10.0003 2.72727C13.0085 2.72727 15.4549 5.17363 15.4549 8.18636C15.474 12.2209 11.4658 15.8436 10.0003 17.0318C8.5358 15.8427 4.52671 12.2191 4.5458 8.18182C4.5458 5.17363 6.99216 2.72727 10.0003 2.72727Z" fill="#FFAA05"/>
</svg>
