<svg width="70" height="70" viewBox="0 0 70 70" fill="none" xmlns="http://www.w3.org/2000/svg">
<rect width="70" height="70" rx="35" fill="#F1F3F7"/>
<g clip-path="url(#clip0_1061_1091)">
<path d="M44.9047 33.8842L44.8601 33.7947C44.7477 33.8507 44.6289 33.8772 44.512 33.8772C44.2259 33.8772 43.9508 33.7192 43.8142 33.4462C43.8142 33.4462 43.8142 33.4462 43.8141 33.4462L41.9119 29.6416L41.9118 29.6416C41.7909 29.4 41.8039 29.1131 41.9459 28.8831C42.0879 28.6534 42.3388 28.5135 42.609 28.5135H45.5341H45.6341V28.4135V26.3679V26.2679H45.5341H37.7817H37.6817V26.3679V27.3908C37.6817 27.8214 37.3328 28.1703 36.9022 28.1703H31.5173H31.348L31.4298 28.3186L32.9759 31.1233L32.9893 31.1476L33.0133 31.1616C34.6656 32.1206 35.7794 33.908 35.7794 35.9512C35.7794 37.5977 35.0561 39.0778 33.9108 40.0928L33.8771 40.1227V40.1677V45.5342V45.6342H33.9771H52.1205C52.5511 45.6342 52.9 45.9831 52.9001 46.4136V50.2182C52.9001 50.6488 52.5512 50.9977 52.1206 50.9977H17.8795C17.4489 50.9977 17.1 50.6488 17.1 50.2182V46.4136C17.1 45.983 17.4489 45.6341 17.8795 45.6341H19.2839H19.3405L19.3696 45.5855L24.7328 36.6469L24.7502 36.6178L24.7464 36.584C24.7225 36.3759 24.7091 36.1649 24.7091 35.9512C24.7091 35.7116 24.7262 35.4756 24.756 35.2431L24.7602 35.2107L24.7444 35.1821L19.5725 25.8001C18.9815 24.7276 18.8433 23.4896 19.1836 22.3133L19.1836 22.3133C19.5238 21.1368 20.3016 20.1639 21.374 19.5726C22.0747 19.1863 22.8333 19.0039 23.5818 19.0043L23.6025 19.0043L23.607 19.0023H36.9023C37.3329 19.0023 37.6818 19.3513 37.6818 19.7819V20.8045V20.9045H37.7818H46.4136C47.8923 20.9045 49.0954 22.1076 49.0954 23.5863C49.0954 24.7684 48.3261 25.7741 47.2614 26.1299L47.1931 26.1527V26.2248V28.4135V28.5135H47.2931H50.2182C50.4883 28.5135 50.7392 28.6533 50.8812 28.8831C51.0232 29.1131 51.0361 29.4 50.9153 29.6416L51.0047 29.6863L50.9153 29.6416L49.0131 33.4462C48.8206 33.8312 48.3525 33.9875 47.9673 33.7947L47.9673 33.7947C47.5824 33.6022 47.4263 33.1339 47.6188 32.7489L48.8846 30.2171L48.9569 30.0724H48.7951H44.0321H43.8703L43.9427 30.2171L45.2085 32.7489C45.401 33.134 45.2449 33.6022 44.86 33.7947L44.9047 33.8842ZM44.9047 33.8842C45.339 33.6669 45.5151 33.1387 45.2979 32.7042L43.7247 33.4909C43.8789 33.7991 44.1894 33.9772 44.512 33.9772C44.6441 33.9772 44.7783 33.9472 44.9047 33.8842ZM43.9206 22.6005L43.9749 22.4636H43.8276H37.7818H37.6818V22.5636V24.6093V24.7093H37.7818H43.8276H43.9749L43.9206 24.5724C43.7994 24.2669 43.732 23.9345 43.732 23.5865C43.732 23.2383 43.7993 22.9059 43.9206 22.6005ZM36.0229 26.6114H36.1229V26.5114V20.6614V20.5614H36.0229H27.2439H27.0359L27.1658 20.7238C27.3266 20.925 27.4733 21.1414 27.6015 21.374L27.6891 21.3257L27.6015 21.374L30.4603 26.5597L30.4888 26.6114H30.5479H36.0229ZM30.6382 30.4315L30.8215 30.4444L30.7328 30.2835L26.2362 22.1267C26.2362 22.1267 26.2362 22.1267 26.2362 22.1267C25.6855 21.1275 24.6489 20.5625 23.5821 20.5625C23.0884 20.5625 22.5884 20.6834 22.1266 20.9379C20.6658 21.7431 20.1326 23.5866 20.9379 25.0475L25.353 33.0568L25.4359 33.2071L25.5258 33.0609C26.5007 31.4753 28.2511 30.4159 30.2442 30.4159C30.376 30.4159 30.5069 30.4223 30.6382 30.4315ZM25.4667 38.7413L25.3815 38.5959L25.2947 38.7405L21.2494 45.4828L21.1585 45.6342H21.3352H32.2182H32.3182V45.5342V41.2288V41.0844L32.183 41.1351C31.5793 41.3617 30.9263 41.4865 30.2442 41.4865C28.2097 41.4865 26.4288 40.3821 25.4667 38.7413ZM51.2411 49.4387H51.3411L51.3411 49.3387L51.341 47.2931L51.341 47.1931H51.241H18.7589H18.6589V47.2931V49.3387V49.4387H18.7589H51.2411ZM27.5625 35.9512C27.5625 34.4725 28.7657 33.2694 30.2442 33.2694C31.723 33.2694 32.9261 34.4725 32.9261 35.9512C32.9261 37.4298 31.723 38.6329 30.2442 38.6329C28.7657 38.6329 27.5625 37.4298 27.5625 35.9512ZM29.1215 35.9512C29.1215 36.5704 29.625 37.074 30.2442 37.074C30.8635 37.074 31.3672 36.5704 31.3672 35.9512C31.3672 35.332 30.8635 34.8283 30.2442 34.8283C29.625 34.8283 29.1215 35.332 29.1215 35.9512ZM26.268 35.9512C26.268 38.1437 28.0517 39.9274 30.2442 39.9274C32.4368 39.9274 34.2205 38.1437 34.2205 35.9512C34.2205 33.7586 32.4368 31.9749 30.2442 31.9749C28.0517 31.9749 26.268 33.7586 26.268 35.9512ZM45.2909 23.5863C45.2909 24.2056 45.7945 24.7091 46.4137 24.7091C47.0328 24.7091 47.5366 24.2056 47.5366 23.5863C47.5366 22.9671 47.0329 22.4634 46.4137 22.4634C45.7944 22.4634 45.2909 22.9671 45.2909 23.5863Z" fill="#0044AA" stroke="#F1F3F7" stroke-width="0.2"/>
</g>
<defs>
<clipPath id="clip0_1061_1091">
<rect width="36" height="32" fill="white" transform="translate(17 19)"/>
</clipPath>
</defs>
</svg>
