<svg width="70" height="70" viewBox="0 0 70 70" fill="none" xmlns="http://www.w3.org/2000/svg">
<rect width="70" height="70" rx="35" fill="#F1F3F7"/>
<g clip-path="url(#clip0_1061_1105)">
<mask id="path-2-inside-1_1061_1105" fill="white">
<path d="M27.0921 40.7864C26.9679 40.6743 26.7489 40.5406 26.4151 40.5406H23.1085V38.9985H25.9509C26.2219 38.9985 26.4702 38.8984 26.6519 38.7167C26.828 38.5425 26.9249 38.3101 26.9249 38.0637C26.9249 37.8079 26.8324 37.5792 26.6279 37.3772C26.4481 37.2138 26.2143 37.1283 25.9509 37.1283H23.0882L23.049 35.8388H26.2884C26.5537 35.8388 26.7989 35.7387 26.9806 35.557C27.1567 35.3828 27.2536 35.1485 27.2536 34.904C27.2536 34.652 27.1574 34.4157 26.9566 34.2175C26.7767 34.0541 26.5449 33.9686 26.2884 33.9686H22.7633C22.2738 33.9686 21.8595 34.1484 21.5625 34.4898C21.3123 34.7811 21.1806 35.1561 21.1806 35.5715V40.8167C21.1806 41.2284 21.3085 41.5887 21.5644 41.8909C21.7683 42.1264 22.1432 42.4083 22.7633 42.4083H26.415C26.7697 42.4083 26.9958 42.2525 27.1092 42.1354C27.2909 41.9612 27.3891 41.7256 27.3891 41.4729C27.3891 41.2202 27.2929 40.9846 27.0921 40.7864Z"/>
<path d="M34.8953 39.0631C34.756 38.8396 34.5406 38.6907 34.2753 38.6318C34.1993 38.6154 34.1252 38.6078 34.0511 38.6078L33.7224 38.647L33.5684 38.7345C33.3195 38.8776 33.153 39.1183 33.1049 39.3932C32.9953 39.8941 32.8097 40.2393 32.5444 40.4394C32.3088 40.6154 31.9782 40.7048 31.5608 40.7048C31.0041 40.7048 30.5976 40.5306 30.279 40.1557C29.9098 39.7213 29.7223 39.0607 29.7223 38.1905C29.7223 37.3425 29.9116 36.6858 30.2771 36.2463C30.6109 35.8587 31.0193 35.6769 31.5608 35.6769C31.9858 35.6769 32.3158 35.7644 32.5703 35.9423C32.8319 36.1259 32.9953 36.404 33.0694 36.7789C33.1359 37.1576 33.3424 37.3634 33.4829 37.4559C33.6406 37.5674 33.8243 37.6269 34.0137 37.6269L34.2271 37.6029C34.4684 37.5491 34.6799 37.4097 34.8281 37.1982C34.9713 36.9847 35.0264 36.7365 34.9858 36.454C34.8427 35.6895 34.5013 35.0645 33.9618 34.5914C33.3513 34.0702 32.5425 33.8067 31.5608 33.8067C30.4367 33.8067 29.5146 34.2279 28.8224 35.0556C28.1396 35.8574 27.7944 36.9132 27.7944 38.1913C27.7944 39.4978 28.1415 40.5605 28.8204 41.344C29.5107 42.1622 30.4329 42.5758 31.5608 42.5758C32.5463 42.5758 33.357 42.2901 33.9693 41.7277C34.4817 41.2642 34.8338 40.6346 35.0213 39.8538C35.1049 39.4804 34.9935 39.2094 34.8953 39.0631Z"/>
<path d="M42.6757 35.2036C41.9632 34.2739 40.9613 33.8046 39.6921 33.8046C38.4153 33.8053 37.4076 34.2771 36.6939 35.2119C36.1074 36.0023 35.8104 37.0042 35.8104 38.1898C35.8104 39.3753 36.1074 40.3754 36.6971 41.1601C37.4058 42.0986 38.4134 42.5736 39.6921 42.5736C40.9613 42.5736 41.9651 42.0986 42.6738 41.1632C43.2786 40.3766 43.5832 39.3765 43.5832 38.189C43.5832 37.0035 43.2792 35.9997 42.6757 35.2036ZM41.1639 40.0302C40.8264 40.4957 40.3571 40.7129 39.6927 40.7129C39.0227 40.7129 38.5553 40.4957 38.2234 40.034C37.9024 39.5849 37.7389 38.9655 37.7389 38.1897C37.7389 37.4088 37.9024 36.7888 38.2254 36.3435C38.5553 35.8818 39.0234 35.6646 39.6928 35.6646C40.3571 35.6646 40.8245 35.8818 41.164 36.3493C41.4902 36.7964 41.6555 37.4164 41.6555 38.1897C41.6554 38.9579 41.4882 39.5793 41.1639 40.0302Z"/>
<path d="M54.16 15.6225C54.0441 15.307 53.7673 15.0753 53.4298 15.0138L53.2696 15.0005C52.9896 15.0005 52.7261 15.1208 52.5456 15.3305C51.9307 16.0487 50.2283 16.3489 48.5766 16.6402C46.246 17.0525 43.3359 17.6035 41.603 19.6257C40.6746 17.5553 38.7436 15.8808 37.0444 15.0892C36.7384 14.9461 36.38 14.9771 36.1019 15.1684C35.829 15.3597 35.6694 15.6846 35.696 16.0234C35.7422 16.6174 34.9645 17.5712 34.2127 18.4934C33.2792 19.6365 32.164 21.033 31.8903 22.6156C23.6407 22.7828 17.001 29.51 17.001 37.8002C17.001 46.1949 23.8061 53 32.2008 53C40.5955 53 47.4006 46.1949 47.4006 37.8002C47.4006 34.9205 46.5848 32.2377 45.1941 29.9426C45.8248 30.1066 46.4905 30.1984 47.1884 30.1984C49.8553 30.1984 51.906 29.2041 53.2816 27.2389C55.7288 23.7474 55.1195 18.2609 54.16 15.6225ZM35.6846 19.6935C36.3135 18.9227 36.9221 18.1779 37.2781 17.4072C38.6536 18.3515 39.9336 19.8474 40.2129 21.4313C40.3959 22.47 40.109 23.4681 39.4029 24.4143C38.9791 24.1856 38.5434 23.9754 38.0969 23.7873C38.2597 22.9931 38.3642 22.1084 38.2375 21.0368C38.176 20.5156 37.7036 20.1431 37.1824 20.2053C36.6624 20.2692 36.2894 20.741 36.3509 21.2604C36.4351 21.9722 36.3819 22.5911 36.2799 23.1712C35.4864 22.9501 34.6719 22.781 33.8315 22.6911C34.0576 21.7866 34.7467 20.8442 35.6846 19.6935ZM45.5006 37.8002C45.5006 45.1334 39.534 51.1 32.2008 51.1C24.8675 51.1 18.901 45.1334 18.901 37.8002C18.901 30.467 24.8675 24.5004 32.2008 24.5004C39.534 24.5004 45.5006 30.467 45.5006 37.8002ZM51.7261 26.1503C50.728 27.5752 49.2017 28.2992 47.1884 28.2992C45.7539 28.2992 44.4822 27.8615 43.5417 27.0541C44.2586 26.5126 45.0749 26.0686 45.9742 25.7368L46.1744 25.6589C47.8116 25.0876 49.3423 25.1022 49.462 25.1301L49.666 25.1523C50.1131 25.1523 50.4944 24.8483 50.5938 24.41C50.6875 23.987 50.4823 23.5658 50.1181 23.3675C51.0098 22.5626 51.7148 21.6271 52.2239 20.5733C52.3334 20.3453 52.3481 20.0869 52.2644 19.8475C52.1809 19.6081 52.0086 19.415 51.7799 19.306C51.3265 19.0907 50.7317 19.2946 50.512 19.7475C49.7552 21.3156 48.4917 22.5157 46.6677 23.3935C46.7798 22.6012 46.6563 21.8146 46.2985 21.0983C46.0724 20.6417 45.4682 20.4543 45.0268 20.6715C44.7988 20.7848 44.629 20.9793 44.548 21.2206C44.4663 21.4638 44.486 21.7215 44.5993 21.9463C45.1705 23.0914 44.4492 24.1358 44.1699 24.4752C43.5448 24.7868 42.9558 25.1504 42.4111 25.5607C42.0875 24.8558 41.964 24.0781 42.0539 23.2751C42.4554 19.6531 45.5879 19.1002 48.9071 18.5137C50.3245 18.2629 51.6773 18.0254 52.7349 17.5042C53.3734 20.2274 53.3215 23.8715 51.7261 26.1503Z"/>
</mask>
<path d="M27.0921 40.7864C26.9679 40.6743 26.7489 40.5406 26.4151 40.5406H23.1085V38.9985H25.9509C26.2219 38.9985 26.4702 38.8984 26.6519 38.7167C26.828 38.5425 26.9249 38.3101 26.9249 38.0637C26.9249 37.8079 26.8324 37.5792 26.6279 37.3772C26.4481 37.2138 26.2143 37.1283 25.9509 37.1283H23.0882L23.049 35.8388H26.2884C26.5537 35.8388 26.7989 35.7387 26.9806 35.557C27.1567 35.3828 27.2536 35.1485 27.2536 34.904C27.2536 34.652 27.1574 34.4157 26.9566 34.2175C26.7767 34.0541 26.5449 33.9686 26.2884 33.9686H22.7633C22.2738 33.9686 21.8595 34.1484 21.5625 34.4898C21.3123 34.7811 21.1806 35.1561 21.1806 35.5715V40.8167C21.1806 41.2284 21.3085 41.5887 21.5644 41.8909C21.7683 42.1264 22.1432 42.4083 22.7633 42.4083H26.415C26.7697 42.4083 26.9958 42.2525 27.1092 42.1354C27.2909 41.9612 27.3891 41.7256 27.3891 41.4729C27.3891 41.2202 27.2929 40.9846 27.0921 40.7864Z" fill="#0044AA"/>
<path d="M34.8953 39.0631C34.756 38.8396 34.5406 38.6907 34.2753 38.6318C34.1993 38.6154 34.1252 38.6078 34.0511 38.6078L33.7224 38.647L33.5684 38.7345C33.3195 38.8776 33.153 39.1183 33.1049 39.3932C32.9953 39.8941 32.8097 40.2393 32.5444 40.4394C32.3088 40.6154 31.9782 40.7048 31.5608 40.7048C31.0041 40.7048 30.5976 40.5306 30.279 40.1557C29.9098 39.7213 29.7223 39.0607 29.7223 38.1905C29.7223 37.3425 29.9116 36.6858 30.2771 36.2463C30.6109 35.8587 31.0193 35.6769 31.5608 35.6769C31.9858 35.6769 32.3158 35.7644 32.5703 35.9423C32.8319 36.1259 32.9953 36.404 33.0694 36.7789C33.1359 37.1576 33.3424 37.3634 33.4829 37.4559C33.6406 37.5674 33.8243 37.6269 34.0137 37.6269L34.2271 37.6029C34.4684 37.5491 34.6799 37.4097 34.8281 37.1982C34.9713 36.9847 35.0264 36.7365 34.9858 36.454C34.8427 35.6895 34.5013 35.0645 33.9618 34.5914C33.3513 34.0702 32.5425 33.8067 31.5608 33.8067C30.4367 33.8067 29.5146 34.2279 28.8224 35.0556C28.1396 35.8574 27.7944 36.9132 27.7944 38.1913C27.7944 39.4978 28.1415 40.5605 28.8204 41.344C29.5107 42.1622 30.4329 42.5758 31.5608 42.5758C32.5463 42.5758 33.357 42.2901 33.9693 41.7277C34.4817 41.2642 34.8338 40.6346 35.0213 39.8538C35.1049 39.4804 34.9935 39.2094 34.8953 39.0631Z" fill="#0044AA"/>
<path d="M42.6757 35.2036C41.9632 34.2739 40.9613 33.8046 39.6921 33.8046C38.4153 33.8053 37.4076 34.2771 36.6939 35.2119C36.1074 36.0023 35.8104 37.0042 35.8104 38.1898C35.8104 39.3753 36.1074 40.3754 36.6971 41.1601C37.4058 42.0986 38.4134 42.5736 39.6921 42.5736C40.9613 42.5736 41.9651 42.0986 42.6738 41.1632C43.2786 40.3766 43.5832 39.3765 43.5832 38.189C43.5832 37.0035 43.2792 35.9997 42.6757 35.2036ZM41.1639 40.0302C40.8264 40.4957 40.3571 40.7129 39.6927 40.7129C39.0227 40.7129 38.5553 40.4957 38.2234 40.034C37.9024 39.5849 37.7389 38.9655 37.7389 38.1897C37.7389 37.4088 37.9024 36.7888 38.2254 36.3435C38.5553 35.8818 39.0234 35.6646 39.6928 35.6646C40.3571 35.6646 40.8245 35.8818 41.164 36.3493C41.4902 36.7964 41.6555 37.4164 41.6555 38.1897C41.6554 38.9579 41.4882 39.5793 41.1639 40.0302Z" fill="#0044AA"/>
<path d="M54.16 15.6225C54.0441 15.307 53.7673 15.0753 53.4298 15.0138L53.2696 15.0005C52.9896 15.0005 52.7261 15.1208 52.5456 15.3305C51.9307 16.0487 50.2283 16.3489 48.5766 16.6402C46.246 17.0525 43.3359 17.6035 41.603 19.6257C40.6746 17.5553 38.7436 15.8808 37.0444 15.0892C36.7384 14.9461 36.38 14.9771 36.1019 15.1684C35.829 15.3597 35.6694 15.6846 35.696 16.0234C35.7422 16.6174 34.9645 17.5712 34.2127 18.4934C33.2792 19.6365 32.164 21.033 31.8903 22.6156C23.6407 22.7828 17.001 29.51 17.001 37.8002C17.001 46.1949 23.8061 53 32.2008 53C40.5955 53 47.4006 46.1949 47.4006 37.8002C47.4006 34.9205 46.5848 32.2377 45.1941 29.9426C45.8248 30.1066 46.4905 30.1984 47.1884 30.1984C49.8553 30.1984 51.906 29.2041 53.2816 27.2389C55.7288 23.7474 55.1195 18.2609 54.16 15.6225ZM35.6846 19.6935C36.3135 18.9227 36.9221 18.1779 37.2781 17.4072C38.6536 18.3515 39.9336 19.8474 40.2129 21.4313C40.3959 22.47 40.109 23.4681 39.4029 24.4143C38.9791 24.1856 38.5434 23.9754 38.0969 23.7873C38.2597 22.9931 38.3642 22.1084 38.2375 21.0368C38.176 20.5156 37.7036 20.1431 37.1824 20.2053C36.6624 20.2692 36.2894 20.741 36.3509 21.2604C36.4351 21.9722 36.3819 22.5911 36.2799 23.1712C35.4864 22.9501 34.6719 22.781 33.8315 22.6911C34.0576 21.7866 34.7467 20.8442 35.6846 19.6935ZM45.5006 37.8002C45.5006 45.1334 39.534 51.1 32.2008 51.1C24.8675 51.1 18.901 45.1334 18.901 37.8002C18.901 30.467 24.8675 24.5004 32.2008 24.5004C39.534 24.5004 45.5006 30.467 45.5006 37.8002ZM51.7261 26.1503C50.728 27.5752 49.2017 28.2992 47.1884 28.2992C45.7539 28.2992 44.4822 27.8615 43.5417 27.0541C44.2586 26.5126 45.0749 26.0686 45.9742 25.7368L46.1744 25.6589C47.8116 25.0876 49.3423 25.1022 49.462 25.1301L49.666 25.1523C50.1131 25.1523 50.4944 24.8483 50.5938 24.41C50.6875 23.987 50.4823 23.5658 50.1181 23.3675C51.0098 22.5626 51.7148 21.6271 52.2239 20.5733C52.3334 20.3453 52.3481 20.0869 52.2644 19.8475C52.1809 19.6081 52.0086 19.415 51.7799 19.306C51.3265 19.0907 50.7317 19.2946 50.512 19.7475C49.7552 21.3156 48.4917 22.5157 46.6677 23.3935C46.7798 22.6012 46.6563 21.8146 46.2985 21.0983C46.0724 20.6417 45.4682 20.4543 45.0268 20.6715C44.7988 20.7848 44.629 20.9793 44.548 21.2206C44.4663 21.4638 44.486 21.7215 44.5993 21.9463C45.1705 23.0914 44.4492 24.1358 44.1699 24.4752C43.5448 24.7868 42.9558 25.1504 42.4111 25.5607C42.0875 24.8558 41.964 24.0781 42.0539 23.2751C42.4554 19.6531 45.5879 19.1002 48.9071 18.5137C50.3245 18.2629 51.6773 18.0254 52.7349 17.5042C53.3734 20.2274 53.3215 23.8715 51.7261 26.1503Z" fill="#0044AA"/>
<path d="M27.0921 40.7864C26.9679 40.6743 26.7489 40.5406 26.4151 40.5406H23.1085V38.9985H25.9509C26.2219 38.9985 26.4702 38.8984 26.6519 38.7167C26.828 38.5425 26.9249 38.3101 26.9249 38.0637C26.9249 37.8079 26.8324 37.5792 26.6279 37.3772C26.4481 37.2138 26.2143 37.1283 25.9509 37.1283H23.0882L23.049 35.8388H26.2884C26.5537 35.8388 26.7989 35.7387 26.9806 35.557C27.1567 35.3828 27.2536 35.1485 27.2536 34.904C27.2536 34.652 27.1574 34.4157 26.9566 34.2175C26.7767 34.0541 26.5449 33.9686 26.2884 33.9686H22.7633C22.2738 33.9686 21.8595 34.1484 21.5625 34.4898C21.3123 34.7811 21.1806 35.1561 21.1806 35.5715V40.8167C21.1806 41.2284 21.3085 41.5887 21.5644 41.8909C21.7683 42.1264 22.1432 42.4083 22.7633 42.4083H26.415C26.7697 42.4083 26.9958 42.2525 27.1092 42.1354C27.2909 41.9612 27.3891 41.7256 27.3891 41.4729C27.3891 41.2202 27.2929 40.9846 27.0921 40.7864Z" stroke="#F1F3F7" stroke-width="0.2" mask="url(#path-2-inside-1_1061_1105)"/>
<path d="M34.8953 39.0631C34.756 38.8396 34.5406 38.6907 34.2753 38.6318C34.1993 38.6154 34.1252 38.6078 34.0511 38.6078L33.7224 38.647L33.5684 38.7345C33.3195 38.8776 33.153 39.1183 33.1049 39.3932C32.9953 39.8941 32.8097 40.2393 32.5444 40.4394C32.3088 40.6154 31.9782 40.7048 31.5608 40.7048C31.0041 40.7048 30.5976 40.5306 30.279 40.1557C29.9098 39.7213 29.7223 39.0607 29.7223 38.1905C29.7223 37.3425 29.9116 36.6858 30.2771 36.2463C30.6109 35.8587 31.0193 35.6769 31.5608 35.6769C31.9858 35.6769 32.3158 35.7644 32.5703 35.9423C32.8319 36.1259 32.9953 36.404 33.0694 36.7789C33.1359 37.1576 33.3424 37.3634 33.4829 37.4559C33.6406 37.5674 33.8243 37.6269 34.0137 37.6269L34.2271 37.6029C34.4684 37.5491 34.6799 37.4097 34.8281 37.1982C34.9713 36.9847 35.0264 36.7365 34.9858 36.454C34.8427 35.6895 34.5013 35.0645 33.9618 34.5914C33.3513 34.0702 32.5425 33.8067 31.5608 33.8067C30.4367 33.8067 29.5146 34.2279 28.8224 35.0556C28.1396 35.8574 27.7944 36.9132 27.7944 38.1913C27.7944 39.4978 28.1415 40.5605 28.8204 41.344C29.5107 42.1622 30.4329 42.5758 31.5608 42.5758C32.5463 42.5758 33.357 42.2901 33.9693 41.7277C34.4817 41.2642 34.8338 40.6346 35.0213 39.8538C35.1049 39.4804 34.9935 39.2094 34.8953 39.0631Z" stroke="#F1F3F7" stroke-width="0.2" mask="url(#path-2-inside-1_1061_1105)"/>
<path d="M42.6757 35.2036C41.9632 34.2739 40.9613 33.8046 39.6921 33.8046C38.4153 33.8053 37.4076 34.2771 36.6939 35.2119C36.1074 36.0023 35.8104 37.0042 35.8104 38.1898C35.8104 39.3753 36.1074 40.3754 36.6971 41.1601C37.4058 42.0986 38.4134 42.5736 39.6921 42.5736C40.9613 42.5736 41.9651 42.0986 42.6738 41.1632C43.2786 40.3766 43.5832 39.3765 43.5832 38.189C43.5832 37.0035 43.2792 35.9997 42.6757 35.2036ZM41.1639 40.0302C40.8264 40.4957 40.3571 40.7129 39.6927 40.7129C39.0227 40.7129 38.5553 40.4957 38.2234 40.034C37.9024 39.5849 37.7389 38.9655 37.7389 38.1897C37.7389 37.4088 37.9024 36.7888 38.2254 36.3435C38.5553 35.8818 39.0234 35.6646 39.6928 35.6646C40.3571 35.6646 40.8245 35.8818 41.164 36.3493C41.4902 36.7964 41.6555 37.4164 41.6555 38.1897C41.6554 38.9579 41.4882 39.5793 41.1639 40.0302Z" stroke="#F1F3F7" stroke-width="0.2" mask="url(#path-2-inside-1_1061_1105)"/>
<path d="M54.16 15.6225C54.0441 15.307 53.7673 15.0753 53.4298 15.0138L53.2696 15.0005C52.9896 15.0005 52.7261 15.1208 52.5456 15.3305C51.9307 16.0487 50.2283 16.3489 48.5766 16.6402C46.246 17.0525 43.3359 17.6035 41.603 19.6257C40.6746 17.5553 38.7436 15.8808 37.0444 15.0892C36.7384 14.9461 36.38 14.9771 36.1019 15.1684C35.829 15.3597 35.6694 15.6846 35.696 16.0234C35.7422 16.6174 34.9645 17.5712 34.2127 18.4934C33.2792 19.6365 32.164 21.033 31.8903 22.6156C23.6407 22.7828 17.001 29.51 17.001 37.8002C17.001 46.1949 23.8061 53 32.2008 53C40.5955 53 47.4006 46.1949 47.4006 37.8002C47.4006 34.9205 46.5848 32.2377 45.1941 29.9426C45.8248 30.1066 46.4905 30.1984 47.1884 30.1984C49.8553 30.1984 51.906 29.2041 53.2816 27.2389C55.7288 23.7474 55.1195 18.2609 54.16 15.6225ZM35.6846 19.6935C36.3135 18.9227 36.9221 18.1779 37.2781 17.4072C38.6536 18.3515 39.9336 19.8474 40.2129 21.4313C40.3959 22.47 40.109 23.4681 39.4029 24.4143C38.9791 24.1856 38.5434 23.9754 38.0969 23.7873C38.2597 22.9931 38.3642 22.1084 38.2375 21.0368C38.176 20.5156 37.7036 20.1431 37.1824 20.2053C36.6624 20.2692 36.2894 20.741 36.3509 21.2604C36.4351 21.9722 36.3819 22.5911 36.2799 23.1712C35.4864 22.9501 34.6719 22.781 33.8315 22.6911C34.0576 21.7866 34.7467 20.8442 35.6846 19.6935ZM45.5006 37.8002C45.5006 45.1334 39.534 51.1 32.2008 51.1C24.8675 51.1 18.901 45.1334 18.901 37.8002C18.901 30.467 24.8675 24.5004 32.2008 24.5004C39.534 24.5004 45.5006 30.467 45.5006 37.8002ZM51.7261 26.1503C50.728 27.5752 49.2017 28.2992 47.1884 28.2992C45.7539 28.2992 44.4822 27.8615 43.5417 27.0541C44.2586 26.5126 45.0749 26.0686 45.9742 25.7368L46.1744 25.6589C47.8116 25.0876 49.3423 25.1022 49.462 25.1301L49.666 25.1523C50.1131 25.1523 50.4944 24.8483 50.5938 24.41C50.6875 23.987 50.4823 23.5658 50.1181 23.3675C51.0098 22.5626 51.7148 21.6271 52.2239 20.5733C52.3334 20.3453 52.3481 20.0869 52.2644 19.8475C52.1809 19.6081 52.0086 19.415 51.7799 19.306C51.3265 19.0907 50.7317 19.2946 50.512 19.7475C49.7552 21.3156 48.4917 22.5157 46.6677 23.3935C46.7798 22.6012 46.6563 21.8146 46.2985 21.0983C46.0724 20.6417 45.4682 20.4543 45.0268 20.6715C44.7988 20.7848 44.629 20.9793 44.548 21.2206C44.4663 21.4638 44.486 21.7215 44.5993 21.9463C45.1705 23.0914 44.4492 24.1358 44.1699 24.4752C43.5448 24.7868 42.9558 25.1504 42.4111 25.5607C42.0875 24.8558 41.964 24.0781 42.0539 23.2751C42.4554 19.6531 45.5879 19.1002 48.9071 18.5137C50.3245 18.2629 51.6773 18.0254 52.7349 17.5042C53.3734 20.2274 53.3215 23.8715 51.7261 26.1503Z" stroke="#F1F3F7" stroke-width="0.2" mask="url(#path-2-inside-1_1061_1105)"/>
</g>
<defs>
<clipPath id="clip0_1061_1105">
<rect width="38" height="38" fill="white" transform="translate(17 15)"/>
</clipPath>
</defs>
</svg>
