<svg width="70" height="70" viewBox="0 0 70 70" fill="none" xmlns="http://www.w3.org/2000/svg">
<rect width="70" height="70" rx="35" fill="#F1F3F7"/>
<g clip-path="url(#clip0_1061_1097)">
<path d="M52.0525 35.0039C52.0525 30.969 50.6225 27.0818 48.0243 24.007L48.0311 24.0003L47.7021 23.631C44.4728 20.0258 39.8404 17.9513 34.9999 17.9513C30.1594 17.9513 25.5337 20.0191 22.3044 23.631L22.2977 23.6377L21.9687 24.007L21.9754 24.0137C19.3773 27.0818 17.9473 30.969 17.9473 35.0039C17.9473 39.0388 19.3773 42.926 21.9754 45.9942L21.9687 46.0009L22.2977 46.3701C25.5135 49.9686 30.1258 52.0364 34.9529 52.0499C34.973 52.0499 34.9865 52.0499 35.0066 52.0499C35.0335 52.0499 35.0603 52.0499 35.0872 52.0499C39.9009 52.023 44.493 49.9619 47.7021 46.3701L47.7088 46.3634L48.0378 45.9942L48.0311 45.9874C50.6225 42.926 52.0525 39.0388 52.0525 35.0039ZM47.2724 24.8261C49.5282 27.5451 50.8172 30.922 50.9381 34.4534H47.0509C46.8092 33.0167 45.641 31.8955 44.1774 31.7277C44.0297 30.338 43.7948 29.0221 43.4859 27.7868C44.8689 26.9878 46.1445 25.9942 47.2724 24.8261ZM46.0035 35.0039C46.0035 36.2191 45.0166 37.206 43.8015 37.206C42.5863 37.206 41.5994 36.2191 41.5994 35.0039C41.5994 33.7888 42.5863 32.8019 43.8015 32.8019C45.0166 32.8019 46.0035 33.7888 46.0035 35.0039ZM46.1915 23.6445C46.2587 23.7116 46.3325 23.7854 46.4064 23.8593C46.4534 23.9063 46.5004 23.96 46.5473 24.007C45.547 25.0543 44.4124 25.9539 43.1838 26.6857C42.2372 23.5639 40.7669 21.0731 39.0012 19.5693C41.6934 20.2675 44.1842 21.6706 46.1915 23.6445ZM35.5504 19.0926C38.3366 19.4686 40.834 22.6374 42.1902 27.2295C40.1425 28.2702 37.88 28.8542 35.5504 28.9415V19.0926ZM35.5504 30.0358C37.974 29.9553 40.3372 29.3578 42.4789 28.3104C42.7474 29.4048 42.9488 30.5662 43.0764 31.7814C41.7807 32.0768 40.7736 33.1308 40.5521 34.4534H35.5504V30.0358ZM35.5504 35.5612H40.5521C40.7736 36.8837 41.7807 37.9378 43.0831 38.2265C42.9488 39.4416 42.7474 40.6098 42.4789 41.7041C41.1563 41.0529 39.7464 40.5695 38.2896 40.2876C38.1889 38.7569 37.0408 37.5081 35.5504 37.2597V35.5612ZM34.4494 19.0926V28.9281C33.0865 28.8811 31.7505 28.6663 30.4481 28.2769C30.542 27.968 30.5958 27.6391 30.5958 27.2967C30.6025 26.0479 29.8975 24.9603 28.8636 24.3964C30.3205 21.2611 32.3144 19.3679 34.4494 19.0926ZM26.7623 34.4534C26.7824 33.1375 26.8898 31.8485 27.0845 30.5931C27.1517 30.5998 27.2255 30.6065 27.2994 30.6065C28.3803 30.6065 29.3336 30.0828 29.9378 29.2772C31.3947 29.7337 32.912 29.9821 34.4494 30.0291V34.4534H26.7623ZM34.4494 35.5477V35.5544V37.253C32.959 37.5014 31.8109 38.7501 31.7102 40.2808C30.2534 40.5695 28.8435 41.0462 27.5142 41.6974C27.0644 39.8176 26.7958 37.7364 26.7556 35.5477H34.4494ZM25.0973 27.3034C25.0973 26.0882 26.0909 25.1013 27.2994 25.1013C28.5145 25.1013 29.5014 26.0882 29.5014 27.3034C29.5014 28.5186 28.5145 29.5055 27.2994 29.5055C26.0842 29.5055 25.0973 28.5186 25.0973 27.3034ZM23.6001 23.8593C23.674 23.7854 23.7411 23.7116 23.815 23.6445C25.8224 21.6706 28.3064 20.2675 30.9986 19.5693C29.7834 20.6099 28.7025 22.1205 27.823 24.0473C27.6552 24.0204 27.4806 24.0003 27.3061 24.0003C26.2789 24.0003 25.3658 24.4702 24.7549 25.2087C24.3051 24.8261 23.8687 24.43 23.4592 24.007C23.5062 23.96 23.5532 23.9063 23.6001 23.8593ZM22.7341 24.8126C23.1973 25.296 23.6874 25.7525 24.2044 26.1755C24.0768 26.5246 24.003 26.9073 24.003 27.3034C24.003 28.6663 24.8287 29.8344 26.0103 30.338C25.8022 31.674 25.6881 33.0503 25.6679 34.4534H19.0617C19.1826 30.9153 20.4716 27.5317 22.7341 24.8126ZM22.7341 45.1885C20.4716 42.4695 19.1826 39.0858 19.0617 35.5544H25.6612C25.7015 37.9311 26.0103 40.1801 26.534 42.2211C25.1376 43.02 23.862 44.0203 22.7341 45.1885ZM23.8083 46.3567C23.7344 46.2895 23.6673 46.2224 23.6001 46.1486C23.5532 46.1016 23.5062 46.0479 23.4592 46.0009C24.4595 44.9468 25.6075 44.0539 26.8428 43.3154C27.7962 46.4238 29.2732 48.9347 31.0523 50.452C28.3333 49.7538 25.8291 48.3506 23.8083 46.3567ZM34.4494 50.9152C31.5894 50.5527 29.1255 47.3637 27.8029 42.7783C29.0718 42.1405 30.4212 41.6706 31.8243 41.3819C32.16 42.6038 33.1872 43.537 34.4494 43.7518V50.9152ZM34.9999 42.7045C33.7847 42.7045 32.7978 41.7176 32.7978 40.5024C32.7978 39.2872 33.7847 38.3003 34.9999 38.3003C36.2151 38.3003 37.202 39.2872 37.202 40.5024C37.202 41.7176 36.2151 42.7045 34.9999 42.7045ZM35.5504 50.9152V43.7585C36.8193 43.5437 37.8398 42.6105 38.1754 41.3886C39.5719 41.6706 40.9213 42.1405 42.1835 42.785C40.834 47.3704 38.3433 50.546 35.5504 50.9152ZM46.3996 46.1486C46.3325 46.2157 46.2654 46.2895 46.1915 46.3567C44.1842 48.3372 41.7001 49.7404 39.0012 50.4386C40.7669 48.928 42.2305 46.4507 43.1771 43.3288C44.4057 44.0673 45.5403 44.9535 46.5406 46.0009C46.4936 46.0479 46.4466 46.1016 46.3996 46.1486ZM47.2657 45.1885C46.1445 44.0271 44.8757 43.0267 43.4859 42.2278C43.8015 40.9925 44.0365 39.6699 44.1774 38.2802C45.6343 38.1123 46.8092 36.9912 47.0509 35.5544H50.9381C50.8172 39.0925 49.5282 42.4695 47.2657 45.1885Z" fill="#0044AA" stroke="#0044AA" stroke-width="0.5"/>
</g>
<defs>
<clipPath id="clip0_1061_1097">
<rect width="36" height="36" fill="white" transform="translate(17 17)"/>
</clipPath>
</defs>
</svg>
