<svg width="8" height="8" viewBox="0 0 8 8" fill="none" xmlns="http://www.w3.org/2000/svg">
<path d="M6.33337 1.00003L6.33337 7.00003C6.33318 7.06078 6.31642 7.12032 6.28491 7.17225C6.2534 7.22419 6.20831 7.26654 6.15452 7.29476C6.10072 7.32298 6.04025 7.33599 5.97961 7.3324C5.91897 7.3288 5.86045 7.30874 5.81037 7.27436L1.47704 4.27436C1.29737 4.15003 1.29737 3.8507 1.47704 3.72603L5.81037 0.726028C5.86035 0.691303 5.91889 0.67094 5.97963 0.66715C6.04038 0.663361 6.101 0.67629 6.1549 0.704533C6.20881 0.732776 6.25395 0.775254 6.28542 0.82735C6.31688 0.879446 6.33346 0.939168 6.33337 1.00003Z" fill="#002D72"/>
</svg>
