<svg width="30" height="30" viewBox="0 0 30 30" fill="none" xmlns="http://www.w3.org/2000/svg">
<path fill-rule="evenodd" clip-rule="evenodd" d="M0 15C0 6.71562 6.71562 0 15 0C23.2844 0 30 6.71562 30 15C30 23.2844 23.2844 30 15 30C6.71562 30 0 23.2844 0 15ZM22.4215 18.8405C22.095 18.2327 20.7684 16.9233 20.7684 16.9233C19.545 15.778 19.545 15.7015 20.6965 14.1921L20.7033 14.1832C20.8658 13.9696 21.0526 13.7241 21.2637 13.4437C22.534 11.7233 22.6153 11.1562 22.5465 10.9702C22.5075 10.853 22.2997 10.8077 21.9965 10.8077H19.2137C19.17 10.8077 19.084 10.8155 19.02 10.853C18.9429 10.899 18.877 11.0139 18.8505 11.0602C18.849 11.0627 18.8477 11.065 18.8465 11.0671C18.8184 11.1437 18.4247 12.1796 17.9168 13.0577C16.7575 15.0468 16.3293 15.0468 16.1872 15.0468C16.1231 15.0468 16.0622 15.028 16.009 14.9952C15.6007 14.7256 15.6183 14.0703 15.6339 13.4916L15.634 13.4874C15.634 13.4326 15.6353 13.3795 15.6365 13.328C15.6376 13.2797 15.6387 13.2328 15.6387 13.1874C15.6387 12.7562 15.6528 12.3905 15.6668 12.0671C15.7122 10.928 15.7012 10.5952 15.1856 10.4718C14.9309 10.4077 14.7497 10.3624 14.0465 10.353H13.6856C13.0372 10.353 12.384 10.3796 12.0215 10.5608C11.8778 10.6312 11.7622 10.7483 11.7106 10.8249C11.9106 10.8624 12.2403 10.964 12.434 11.2312C12.7043 11.5999 12.7059 12.3687 12.7059 12.4421C12.7293 12.8327 12.8278 14.7155 12.2997 15.0093C12.2293 15.0452 12.159 15.0655 12.0825 15.0655C11.6778 15.0655 11.1731 14.478 10.3497 13.0312C9.89812 12.242 9.60348 11.5307 9.4844 11.2432C9.46956 11.2074 9.45745 11.1781 9.4481 11.1562C9.37622 10.9858 9.2731 10.7937 8.95747 10.7937H6.59028C6.32622 10.7937 6.08403 10.9452 6.20122 11.228C6.21685 11.2687 8.07622 15.6405 10.1418 17.8202C11.8293 19.5999 13.734 19.728 14.0997 19.728H15.1731C15.3715 19.728 15.6528 19.5233 15.6528 19.1671C15.6528 18.0265 16.0372 17.5983 16.3372 17.5015C16.384 17.4858 16.4356 17.478 16.4856 17.478C16.8825 17.478 17.2762 17.9343 17.7309 18.4624L17.7327 18.4644C18.0368 18.8185 18.3487 19.1816 18.6653 19.403C19.0778 19.6874 19.4184 19.7296 19.5809 19.7296H21.9247C22.0528 19.7202 22.4278 19.614 22.5372 19.3983C22.6028 19.2687 22.5715 19.0952 22.4387 18.8718C22.4356 18.8655 22.4309 18.853 22.4215 18.8405Z" fill="#003A7D"/>
</svg>
