<svg width="30" height="30" viewBox="0 0 30 30" fill="none" xmlns="http://www.w3.org/2000/svg">
<circle cx="15" cy="15" r="15" fill="#003A7D"/>
<g clip-path="url(#clip0_1302_866)">
<path d="M16.4464 16.4464C15.2679 17.6625 15.1821 19.1786 15.0804 22.5C18.1768 22.5 20.3143 22.4893 21.4179 21.4179C22.4893 20.3143 22.5 18.075 22.5 15.0804C19.1786 15.1875 17.6625 15.2679 16.4464 16.4464ZM7.5 15.0804C7.5 18.075 7.51071 20.3143 8.58214 21.4179C9.68571 22.4893 11.8232 22.5 14.9196 22.5C14.8125 19.1786 14.7321 17.6625 13.5536 16.4464C12.3375 15.2679 10.8214 15.1821 7.5 15.0804ZM14.9196 7.5C11.8286 7.5 9.68571 7.51071 8.58214 8.58214C7.51071 9.68571 7.5 11.925 7.5 14.9196C10.8214 14.8125 12.3375 14.7321 13.5536 13.5536C14.7321 12.3375 14.8179 10.8214 14.9196 7.5ZM16.4464 13.5536C15.2679 12.3375 15.1821 10.8214 15.0804 7.5C18.1768 7.5 20.3143 7.51071 21.4179 8.58214C22.4893 9.68571 22.5 11.925 22.5 14.9196C19.1786 14.8125 17.6625 14.7321 16.4464 13.5536Z" fill="white"/>
<path d="M22.5 15.0804V14.9196C19.1786 14.8125 17.6625 14.7321 16.4464 13.5536C15.2679 12.3375 15.1821 10.8214 15.0804 7.5H14.9196C14.8125 10.8214 14.7321 12.3375 13.5536 13.5536C12.3375 14.7321 10.8214 14.8179 7.5 14.9196V15.0804C10.8214 15.1875 12.3375 15.2679 13.5536 16.4464C14.7321 17.6625 14.8179 19.1786 14.9196 22.5H15.0804C15.1875 19.1786 15.2679 17.6625 16.4464 16.4464C17.6625 15.2679 19.1786 15.1821 22.5 15.0804Z" fill="#003A7D"/>
</g>
<defs>
<clipPath id="clip0_1302_866">
<rect width="15" height="15" fill="white" transform="translate(7.5 7.5)"/>
</clipPath>
</defs>
</svg>
