<svg width="52" height="52" viewBox="0 0 52 52" fill="none" xmlns="http://www.w3.org/2000/svg">
<path d="M39 27.625C38.7238 27.625 38.4556 27.625 38.1875 27.625V3.25C38.1875 3.03451 38.1019 2.82785 37.9495 2.67548C37.7972 2.5231 37.5905 2.4375 37.375 2.4375H4.875C4.65951 2.4375 4.45285 2.5231 4.30048 2.67548C4.1481 2.82785 4.0625 3.03451 4.0625 3.25V42.25C4.0625 42.4655 4.1481 42.6722 4.30048 42.8245C4.45285 42.9769 4.65951 43.0625 4.875 43.0625H28.3887C29.1294 44.9995 30.3854 46.6971 32.021 47.9719C33.6567 49.2467 35.6096 50.0501 37.6688 50.2952C39.728 50.5404 41.815 50.218 43.7043 49.3628C45.5934 48.5077 47.2129 47.1524 48.3876 45.4434C49.5623 43.7345 50.2474 41.7369 50.369 39.6668C50.4906 37.5966 50.0439 35.5326 49.0773 33.6979C48.1107 31.8632 46.661 30.3277 44.8848 29.2574C43.1087 28.187 41.0737 27.6225 39 27.625ZM5.6875 41.4375V4.0625H36.5625V27.8931C33.6173 28.5405 31.0497 30.3309 29.424 32.8707C27.7983 35.4105 27.2477 38.4919 27.8931 41.4375H5.6875ZM39 48.75C37.0716 48.75 35.1866 48.1782 33.5832 47.1068C31.9798 46.0355 30.7301 44.5127 29.9922 42.7312C29.2542 40.9496 29.0611 38.9892 29.4373 37.0979C29.8135 35.2066 30.7421 33.4693 32.1057 32.1057C33.4693 30.7421 35.2066 29.8135 37.0979 29.4373C38.9892 29.0611 40.9496 29.2542 42.7312 29.9922C44.5127 30.7301 46.0355 31.9798 47.1068 33.5832C48.1782 35.1866 48.75 37.0716 48.75 39C48.75 41.5859 47.7228 44.0658 45.8943 45.8943C44.0658 47.7228 41.5859 48.75 39 48.75Z" fill="white"/>
<path d="M15.4375 16.25H26.8125C27.028 16.25 27.2347 16.1644 27.387 16.012C27.5394 15.8597 27.625 15.653 27.625 15.4375C27.625 15.222 27.5394 15.0153 27.387 14.863C27.2347 14.7106 27.028 14.625 26.8125 14.625H15.4375C15.222 14.625 15.0153 14.7106 14.863 14.863C14.7106 15.0153 14.625 15.222 14.625 15.4375C14.625 15.653 14.7106 15.8597 14.863 16.012C15.0153 16.1644 15.222 16.25 15.4375 16.25Z" fill="white"/>
<path d="M10.5625 26H31.6875C31.903 26 32.1097 25.9144 32.262 25.762C32.4144 25.6097 32.5 25.403 32.5 25.1875C32.5 24.972 32.4144 24.7653 32.262 24.613C32.1097 24.4606 31.903 24.375 31.6875 24.375H10.5625C10.347 24.375 10.1403 24.4606 9.98798 24.613C9.8356 24.7653 9.75 24.972 9.75 25.1875C9.75 25.403 9.8356 25.6097 9.98798 25.762C10.1403 25.9144 10.347 26 10.5625 26Z" fill="white"/>
<path d="M10.5625 21.125H31.6875C31.903 21.125 32.1097 21.0394 32.262 20.887C32.4144 20.7347 32.5 20.528 32.5 20.3125C32.5 20.097 32.4144 19.8903 32.262 19.738C32.1097 19.5856 31.903 19.5 31.6875 19.5H10.5625C10.347 19.5 10.1403 19.5856 9.98798 19.738C9.8356 19.8903 9.75 20.097 9.75 20.3125C9.75 20.528 9.8356 20.7347 9.98798 20.887C10.1403 21.0394 10.347 21.125 10.5625 21.125Z" fill="white"/>
<path d="M24.375 29.25H10.5625C10.347 29.25 10.1403 29.3356 9.98798 29.488C9.8356 29.6403 9.75 29.847 9.75 30.0625C9.75 30.278 9.8356 30.4847 9.98798 30.637C10.1403 30.7894 10.347 30.875 10.5625 30.875H24.375C24.5905 30.875 24.7972 30.7894 24.9495 30.637C25.1019 30.4847 25.1875 30.278 25.1875 30.0625C25.1875 29.847 25.1019 29.6403 24.9495 29.488C24.7972 29.3356 24.5905 29.25 24.375 29.25Z" fill="white"/>
<path d="M40.9903 43.2006L39.8122 44.0131V37.375C39.8118 37.228 39.7715 37.0839 39.6957 36.958C39.6199 36.8321 39.5113 36.7291 39.3816 36.66C39.2545 36.5948 39.1125 36.5642 38.9699 36.5713C38.8272 36.5785 38.689 36.6231 38.5691 36.7006L36.1316 38.3256C36.0319 38.3791 35.9446 38.4527 35.875 38.5419C35.8055 38.631 35.7553 38.7337 35.7277 38.8433C35.7001 38.9529 35.6957 39.0671 35.7147 39.1785C35.7338 39.29 35.7759 39.3962 35.8383 39.4905C35.9008 39.5847 35.9822 39.6649 36.0774 39.7258C36.1726 39.7868 36.2795 39.8272 36.3912 39.8446C36.5029 39.8619 36.617 39.8557 36.7262 39.8264C36.8354 39.7971 36.9373 39.7453 37.0253 39.6744L38.2034 38.8619V45.5C38.2038 45.647 38.2441 45.7911 38.3199 45.917C38.3958 46.043 38.5043 46.1459 38.6341 46.215C38.7611 46.2803 38.9031 46.3109 39.0458 46.3037C39.1884 46.2966 39.3266 46.252 39.4466 46.1744L41.8841 44.5494C42.0622 44.4303 42.186 44.2456 42.2286 44.0356C42.2712 43.8256 42.2292 43.6073 42.1116 43.4282C41.9924 43.25 41.8078 43.1262 41.5978 43.0836C41.3878 43.041 41.1694 43.0831 40.9903 43.2006Z" fill="white"/>
<path d="M39 34.9375C39.8975 34.9375 40.625 34.21 40.625 33.3125C40.625 32.415 39.8975 31.6875 39 31.6875C38.1025 31.6875 37.375 32.415 37.375 33.3125C37.375 34.21 38.1025 34.9375 39 34.9375Z" fill="white"/>
</svg>
