<svg width="20" height="20" viewBox="0 0 20 20" fill="none" xmlns="http://www.w3.org/2000/svg">
<path d="M1.81836 5.45453C1.81836 4.97232 2.00992 4.50986 2.35089 4.16889C2.69187 3.82791 3.15433 3.63635 3.63654 3.63635H16.3638C16.846 3.63635 17.3085 3.82791 17.6495 4.16889C17.9904 4.50986 18.182 4.97232 18.182 5.45453V14.5454C18.182 15.0277 17.9904 15.4901 17.6495 15.8311C17.3085 16.1721 16.846 16.3636 16.3638 16.3636H3.63654C3.15433 16.3636 2.69187 16.1721 2.35089 15.8311C2.00992 15.4901 1.81836 15.0277 1.81836 14.5454V5.45453Z" stroke="#FFAA05" stroke-width="1.5" stroke-linecap="round" stroke-linejoin="round"/>
<path d="M1.81836 5.45459L10.0002 10.9091L18.182 5.45459" stroke="#FFAA05" stroke-width="1.5" stroke-linecap="round" stroke-linejoin="round"/>
</svg>
