<svg width="24" height="24" viewBox="0 0 24 24" fill="none" xmlns="http://www.w3.org/2000/svg">
<g clip-path="url(#clip0_1453_4274)">
<path d="M12.0001 0C5.37266 0 0 5.37266 0 12.0001C0 18.6275 5.37266 23.9999 12.0001 23.9999C18.6275 23.9999 23.9999 18.6275 23.9999 12.0001C23.9999 5.37266 18.6275 0 12.0001 0ZM16.8822 9.442L11.9874 15.5053C11.8537 15.6746 11.6534 15.7782 11.4378 15.7896H11.4001C11.1987 15.7909 11.0051 15.7111 10.8631 15.5684L7.80631 12.5369C7.50979 12.2439 7.50702 11.766 7.80006 11.4695C8.09311 11.173 8.57096 11.1702 8.86747 11.4633L11.3367 13.9011L15.7074 8.49463C15.969 8.17036 16.4441 8.11948 16.7684 8.38107C17.0929 8.64266 17.1438 9.11773 16.8822 9.442Z" fill="#FFAA05"/>
</g>
<defs>
<clipPath id="clip0_1453_4274">
<rect width="24" height="24" fill="white"/>
</clipPath>
</defs>
</svg>
