<svg width="20" height="20" viewBox="0 0 20 20" fill="none" xmlns="http://www.w3.org/2000/svg">
<path fill-rule="evenodd" clip-rule="evenodd" d="M3.83934 7.85601C5.63042 11.7542 8.81207 14.8435 12.7613 16.519L12.7733 16.524L13.5373 16.864C14.0092 17.0744 14.5392 17.1161 15.0382 16.9818C15.5371 16.8476 15.9747 16.5458 16.2773 16.127L17.5513 14.364C17.5888 14.3121 17.6049 14.2478 17.5963 14.1843C17.5878 14.1209 17.5552 14.0631 17.5053 14.023L15.2813 12.228C15.2551 12.2068 15.2248 12.1912 15.1924 12.182C15.1599 12.1729 15.126 12.1703 15.0925 12.1746C15.0591 12.1789 15.0269 12.19 14.9978 12.207C14.9687 12.2241 14.9434 12.2469 14.9233 12.274L14.0573 13.442C13.9553 13.5798 13.8092 13.6785 13.6432 13.7216C13.4773 13.7647 13.3015 13.7497 13.1453 13.679C10.1871 12.3376 7.81678 9.96727 6.47534 7.00901C6.40465 6.8528 6.38961 6.67709 6.43274 6.51114C6.47586 6.34519 6.57454 6.19903 6.71234 6.09701L7.87934 5.23001C7.90646 5.20996 7.92924 5.18464 7.94632 5.15557C7.9634 5.12649 7.97442 5.09426 7.97871 5.06082C7.98301 5.02737 7.9805 4.99341 7.97133 4.96096C7.96215 4.92851 7.94651 4.89825 7.92534 4.87201L6.13134 2.64801C6.0912 2.59814 6.03346 2.56557 5.97002 2.55701C5.90657 2.54845 5.84226 2.56456 5.79034 2.60201L4.01734 3.88201C3.59574 4.18611 3.29245 4.62682 3.15901 5.12924C3.02556 5.63166 3.0702 6.16478 3.28534 6.63801L3.83934 7.85601ZM12.1693 17.897C7.87866 16.0747 4.42226 12.7171 2.47634 8.48101L2.47434 8.47901L1.92034 7.25901C1.56176 6.47044 1.48725 5.58205 1.70947 4.74477C1.93169 3.9075 2.43692 3.17298 3.13934 2.66601L4.91234 1.38601C5.27547 1.12393 5.72526 1.01103 6.16911 1.07056C6.61296 1.13009 7.0171 1.35751 7.29834 1.70601L9.09334 3.93101C9.24147 4.11458 9.35096 4.3262 9.41523 4.55316C9.4795 4.78013 9.49722 5.01774 9.46733 5.25172C9.43744 5.4857 9.36056 5.71123 9.2413 5.91475C9.12204 6.11826 8.96287 6.29557 8.77334 6.43601L8.10334 6.93201C9.23656 9.12803 11.0253 10.9168 13.2213 12.05L13.7183 11.38C13.8588 11.1906 14.036 11.0316 14.2395 10.9124C14.4429 10.7933 14.6683 10.7164 14.9022 10.6865C15.136 10.6566 15.3735 10.6743 15.6004 10.7385C15.8272 10.8027 16.0388 10.912 16.2223 11.06L18.4473 12.855C18.7961 13.1363 19.0237 13.5406 19.0833 13.9847C19.1428 14.4288 19.0297 14.8788 18.7673 15.242L17.4933 17.006C16.989 17.7039 16.2599 18.2071 15.4285 18.4309C14.597 18.6547 13.7138 18.5855 12.9273 18.235L12.1693 17.897Z" fill="#FFAA05"/>
</svg>
