<svg width="62" height="62" viewBox="0 0 62 62" fill="none" xmlns="http://www.w3.org/2000/svg">
<path fill-rule="evenodd" clip-rule="evenodd" d="M46.6262 3.56982V23.2665H61.3996V50.7162H53.8918V58.9215L41.4063 50.7162H22.3965V38.182H16.8538L7.86523 47.0429V38.182H0.599609V3.56982H46.6262ZM10.298 41.2647L15.8407 35.8007H22.3965V23.2665H44.1934V5.95104H3.03242V35.8007H10.298V41.2647ZM51.459 48.335H58.9668V25.6477H24.8293V48.335H42.1476L51.459 54.4546V48.335Z" fill="#0044AA"/>
<path d="M32.6953 35.2007H36.3281V38.7819H32.6953V35.2007Z" fill="#0044AA"/>
<path d="M39.9609 35.2007H43.5938V38.7819H39.9609V35.2007Z" fill="#0044AA"/>
<path d="M47.2266 35.2007H50.8594V38.7819H47.2266V35.2007Z" fill="#0044AA"/>
</svg>
