<svg width="80" height="80" viewBox="0 0 80 80" fill="none" xmlns="http://www.w3.org/2000/svg">
<circle cx="40" cy="40" r="40" fill="white"/>
<g clip-path="url(#clip0_1147_7)">
<path d="M55.9904 29.3149C56.0325 28.9203 56.055 28.5224 56.055 28.1229C56.055 21.9951 51.0697 17.0098 44.9418 17.0098C38.8139 17.0098 33.8285 21.9951 33.8285 28.1229C33.8285 28.5224 33.851 28.9202 33.8932 29.3149H19V58.9909H61V29.3149H55.9904ZM44.9417 19.4708C49.7125 19.4708 53.5939 23.3521 53.5939 28.1229C53.5939 28.8432 53.5058 29.5568 53.3317 30.2451C53.0901 31.2052 52.4493 32.4358 51.9336 33.2147L44.9418 43.5942L40.3931 36.8425L38.0076 33.3003L37.9238 33.1762L37.9069 33.1608C37.2724 32.2768 36.8166 31.2963 36.5516 30.2438C36.3779 29.5568 36.2898 28.8431 36.2898 28.1229C36.2896 23.3522 40.171 19.4708 44.9417 19.4708ZM28.3653 31.776H34.4438C34.8061 32.82 35.3215 33.8007 35.9838 34.701L38.232 38.0385L36.2257 40.0426L28.1622 31.9791L28.3653 31.776ZM34.4847 41.7819L30.07 46.192L22.0096 38.1317L26.422 33.7193L34.4847 41.7819ZM21.461 31.776H24.885L21.461 35.1999V31.776ZM21.461 41.0634L28.3288 47.9312L21.461 54.7918V41.0634ZM58.539 56.5299H45.412L53.4749 48.4669L58.539 53.531V56.5299ZM58.539 50.0506L55.2151 46.7267L58.539 43.4028V50.0506ZM58.5391 39.9225L41.9317 56.5299H23.2034L39.6327 40.1177L44.9418 47.9988L51.5317 38.2172L53.8814 34.7283L53.9157 34.6777C54.3945 33.972 55.0099 32.8769 55.4228 31.776H58.5391V39.9225Z" fill="#003A7D"/>
<path d="M44.9415 22.5205C41.9836 22.5205 39.5771 24.9268 39.5771 27.8848C39.5771 29.1472 40.0245 30.3736 40.8367 31.3375C41.8591 32.5524 43.3553 33.249 44.9416 33.249C46.5279 33.249 48.024 32.5524 49.0458 31.338C49.8583 30.3737 50.3058 29.1472 50.3058 27.8848C50.3058 24.9269 47.8994 22.5205 44.9415 22.5205ZM47.1633 29.7528C46.6097 30.4106 45.7999 30.7879 44.9416 30.7879C44.0832 30.7879 43.2734 30.4106 42.7194 29.7522C42.2802 29.231 42.0383 28.5677 42.0383 27.8846C42.0384 26.2839 43.3408 24.9815 44.9416 24.9815C46.5423 24.9815 47.8447 26.2839 47.8447 27.8847C47.8448 28.5678 47.603 29.231 47.1633 29.7528Z" fill="#003A7D"/>
</g>
<defs>
<clipPath id="clip0_1147_7">
<rect width="42" height="42" fill="white" transform="translate(19 17)"/>
</clipPath>
</defs>
</svg>
