<svg width="80" height="80" viewBox="0 0 80 80" fill="none" xmlns="http://www.w3.org/2000/svg">
<circle cx="40" cy="40" r="40" fill="white"/>
<g clip-path="url(#clip0_1147_42)">
<path d="M49.125 47.2031V54.2344H56.1562V47.2031H49.125ZM53.8125 51.8906H51.4688V49.5469H53.8125V51.8906Z" fill="#003A7D"/>
<path d="M39.75 47.2031V54.2344H46.7812V47.2031H39.75ZM44.4375 51.8906H42.0938V49.5469H44.4375V51.8906Z" fill="#003A7D"/>
<path d="M49.125 34.3355V41.3438L39.75 34.3125V41.3438L33.6013 36.7323L32.5254 30.7969H30.375V28.375H31.5469C34.7777 28.375 37.4062 25.7465 37.4062 22.5156V19H33.8906C31.9759 19 30.273 19.9233 29.2031 21.3478C28.1332 19.9233 26.4303 19 24.5156 19H21V22.5156C21 25.7465 23.6285 28.375 26.8594 28.375H28.0312V30.7969H25.8727L21 59H36.2344H37.6377H61V43.0958L49.125 34.3355ZM30.375 24.8594C30.375 22.9209 31.9521 21.3438 33.8906 21.3438H35.0625V22.5156C35.0625 24.4541 33.4854 26.0312 31.5469 26.0312H30.375V24.8594ZM26.8594 26.0312C24.9209 26.0312 23.3438 24.4541 23.3438 22.5156V21.3438H24.5156C26.4541 21.3438 28.0312 22.9209 28.0312 24.8594V26.0312H26.8594ZM27.8461 33.1406H30.5684L30.9932 35.4844H27.4411L27.8461 33.1406ZM23.7823 56.6562L27.036 37.8281H31.1562L31.4592 38.0553L34.831 56.6562H23.7823ZM58.6562 56.6562H37.2129L34.2159 40.1229L42.0938 46.0312V39L51.4688 46.0312V38.977L58.6562 44.2793V56.6562Z" fill="#003A7D"/>
</g>
<defs>
<clipPath id="clip0_1147_42">
<rect width="40" height="40" fill="white" transform="translate(21 19)"/>
</clipPath>
</defs>
</svg>
