<svg width="80" height="80" viewBox="0 0 80 80" fill="none" xmlns="http://www.w3.org/2000/svg">
<circle cx="40" cy="40" r="40" fill="white"/>
<path d="M51.3558 43.7693C53.8618 41.0306 55.3931 37.3859 55.3931 33.3899C55.3931 24.9039 48.4893 18 40.0033 18C31.5173 18 24.6134 24.9039 24.6134 33.3899C24.6134 37.4025 26.1576 41.0608 28.6822 43.8032L22.4355 57.0769L28.7857 57.1599L32.8969 62L39.1304 48.7543C39.4194 48.7706 39.7102 48.7796 40.0033 48.7796C40.2962 48.7796 40.5871 48.7706 40.8761 48.7543L47.1096 62L51.2209 57.1599L57.5635 57.077L51.3558 43.7693ZM32.2695 57.2801L29.9913 54.5979L26.4724 54.5519L30.6751 45.6215C32.365 46.9133 34.3289 47.8637 36.4635 48.3681L32.2695 57.2801ZM40.0033 46.2022C32.9385 46.2022 27.1908 40.4546 27.1908 33.3898C27.1908 26.325 32.9384 20.5774 40.0033 20.5774C47.0679 20.5774 52.8156 26.325 52.8156 33.3898C52.8156 40.4547 47.0679 46.2022 40.0033 46.2022ZM50.0152 54.598L47.737 57.2802L43.543 48.3681C45.6914 47.8605 47.6668 46.9012 49.3641 45.5965L53.5415 54.5519L50.0152 54.598Z" fill="#003A7D"/>
<path d="M50.0394 30.2598L43.1052 29.2523L40.004 22.9688L36.903 29.2523L29.9688 30.2598L34.9864 35.1508L33.8019 42.057L40.004 38.7963L46.2062 42.057L45.0217 35.1508L50.0394 30.2598ZM42.7831 37.3454L40.0041 35.8844L37.2251 37.3454L37.7558 34.251L35.5076 32.0596L38.6145 31.6081L40.004 28.7927L41.3936 31.6081L44.5005 32.0596L42.2523 34.251L42.7831 37.3454Z" fill="#003A7D"/>
</svg>
