<svg width="30" height="30" viewBox="0 0 30 30" fill="none" xmlns="http://www.w3.org/2000/svg">
<path d="M5.33203 26.9688H7.08984V20.8164C7.08984 20.3306 7.48295 19.9375 7.96875 19.9375H10.6055V13.7852C10.6055 13.2994 10.9986 12.9062 11.4844 12.9062H18.5156C19.0014 12.9062 19.3945 13.2994 19.3945 13.7852V19.9375H22.0312C22.5171 19.9375 22.9102 20.3306 22.9102 20.8164V26.9688H24.668V9.27344H5.33203V26.9688Z" fill="#FF9500"/>
<path d="M12.3633 14.6641V19.9375H17.6367V14.6641H15.8789V15.543C15.8789 16.0288 15.4858 16.4219 15 16.4219C14.5142 16.4219 14.1211 16.0288 14.1211 15.543V14.6641H12.3633Z" fill="#FF9500"/>
<path d="M29.1211 4H0.878906C0.393105 4 0 4.39311 0 4.87891V26.0898C0 26.5756 0.393105 26.9688 0.878906 26.9688H3.57422V8.39453C3.57422 7.90873 3.96732 7.51562 4.45312 7.51562H25.5469C26.0327 7.51562 26.4258 7.90873 26.4258 8.39453V26.9688H29.1211C29.6069 26.9688 30 26.5756 30 26.0898V4.87891C30 4.39311 29.6069 4 29.1211 4Z" fill="#FF9500"/>
<path d="M21.1523 21.6953H19.3945V22.5742C19.3945 23.06 19.0014 23.4531 18.5156 23.4531C18.0298 23.4531 17.6367 23.06 17.6367 22.5742V21.6953H15.8789V26.9688H21.1523V21.6953Z" fill="#FF9500"/>
<path d="M8.84766 21.6953V26.9688H14.1211V21.6953H12.3633V22.5742C12.3633 23.06 11.9702 23.4531 11.4844 23.4531C10.9986 23.4531 10.6055 23.06 10.6055 22.5742V21.6953H8.84766Z" fill="#FF9500"/>
</svg>
