<svg width="28" height="28" viewBox="0 0 28 28" fill="none" xmlns="http://www.w3.org/2000/svg">
<g clip-path="url(#clip0_1097_2375)">
<path d="M9.60684 0H0.820312C0.367336 0 0 0.367281 0 0.820313V7.02915H10.4272V0.820313C10.4272 0.367281 10.0598 0 9.60684 0Z" fill="#FF9500"/>
<path d="M10.4273 8.66956H0V14.0579H10.4273V8.66956Z" fill="#FF9500"/>
<path d="M0 15.699V21.9078V27.1797C0 27.6327 0.367336 28 0.820312 28H9.60684C10.0598 28 10.4272 27.6327 10.4272 27.1797V21.9078V15.699H0ZM8.78653 26.3594H1.64062V22.7281H8.78653V26.3594Z" fill="#FF9500"/>
<path d="M27.1793 17.5729H20.1201L12.0674 25.6256V28H27.1793C27.6324 28 27.9996 27.6327 27.9996 27.1797V18.3932C27.9996 17.9402 27.6324 17.5729 27.1793 17.5729Z" fill="#FF9500"/>
<path d="M27.7593 6.45334L21.5464 0.240297C21.3925 0.0864063 21.1839 0 20.9664 0C20.7488 0 20.5402 0.0864063 20.3863 0.240297L12.0674 8.55936V17.5729V23.3055L17.7999 17.5729L27.7593 7.61343C28.0797 7.29312 28.0797 6.7737 27.7593 6.45334Z" fill="#FF9500"/>
</g>
<defs>
<clipPath id="clip0_1097_2375">
<rect width="28" height="28" fill="white"/>
</clipPath>
</defs>
</svg>
