<svg width="30" height="30" viewBox="0 0 30 30" fill="none" xmlns="http://www.w3.org/2000/svg">
<g clip-path="url(#clip0_1097_2391)">
<path d="M28.4912 7.6074L22.3926 1.50879C21.4197 0.535898 20.1264 0 18.75 0C17.3736 0 16.0803 0.535898 15.1074 1.50879L2.77225 13.844C0.984492 15.6317 0 18.0084 0 20.5359C0 25.7544 4.24559 30 9.46412 30C11.9916 30 14.3683 29.0155 16.156 27.2278L28.4912 14.8926C29.4641 13.9197 30 12.6264 30 11.25C30 9.87363 29.4641 8.58035 28.4912 7.6074ZM8.74998 25.448C8.74998 25.6415 8.66027 25.824 8.5077 25.9424C8.3966 26.0279 8.26172 26.073 8.12502 26.073C8.07252 26.073 8.02002 26.0663 7.96816 26.0529C5.99795 25.5427 4.4574 24.0021 3.94717 22.0319C3.89836 21.8445 3.93926 21.6455 4.05762 21.4924C4.17603 21.3398 4.3585 21.2501 4.55203 21.2501H7.22174C7.44451 21.2501 7.65023 21.3685 7.76191 21.5607C7.92486 21.8409 8.15924 22.0753 8.43943 22.2383C8.63168 22.3499 8.7501 22.5557 8.7501 22.7784V25.448H8.74998ZM8.74998 18.4717C8.74998 18.6945 8.63156 18.9002 8.43932 19.0119C8.15977 19.1748 7.92539 19.4092 7.7618 19.69C7.64947 19.8816 7.44381 20 7.22162 20H4.55203C4.35855 20 4.17603 19.9103 4.05762 19.7578C3.9392 19.6045 3.8983 19.4056 3.94717 19.2182C4.4574 17.248 5.99795 15.7075 7.96816 15.1972C8.15373 15.1478 8.3533 15.1887 8.5077 15.3077C8.66027 15.4261 8.74998 15.6086 8.74998 15.8021V18.4717ZM12.5 10C13.189 10 13.75 10.5609 13.75 11.25C13.75 11.9391 13.189 12.5 12.5 12.5C11.8109 12.5 11.25 11.9391 11.25 11.25C11.25 10.5609 11.8109 10 12.5 10ZM14.8028 22.0318C14.2926 24.0021 12.7521 25.5426 10.7818 26.0528C10.73 26.0662 10.6775 26.073 10.625 26.073C10.4883 26.073 10.3534 26.0278 10.2423 25.9424C10.0897 25.824 10 25.6415 10 25.448V22.7783C10 22.5555 10.1184 22.3498 10.3107 22.2381C10.5908 22.0752 10.8252 21.8408 10.9882 21.5606C11.0999 21.3684 11.3056 21.25 11.5284 21.25H14.1981C14.3916 21.25 14.5741 21.3397 14.6925 21.4922C14.8108 21.6455 14.8517 21.8445 14.8028 22.0318ZM14.6924 19.7577C14.574 19.9103 14.3915 20 14.198 20H11.5283C11.3061 20 11.1005 19.8816 10.9881 19.6899C10.8246 19.4091 10.5902 19.1747 10.3106 19.0118C10.1184 18.9001 9.99996 18.6944 9.99996 18.4716V15.8019C9.99996 15.6084 10.0897 15.4259 10.2422 15.3075C10.3961 15.1885 10.5938 15.1476 10.7818 15.1971C12.752 15.7073 14.2925 17.2478 14.8028 19.218C14.8517 19.4055 14.8108 19.6045 14.6924 19.7577ZM15.625 15.625C14.936 15.625 14.375 15.0641 14.375 14.375C14.375 13.686 14.936 13.1251 15.625 13.1251C16.3141 13.1251 16.875 13.686 16.875 14.375C16.875 15.0641 16.3141 15.625 15.625 15.625ZM15.625 9.375C14.936 9.375 14.375 8.81408 14.375 8.12502C14.375 7.43596 14.936 6.87504 15.625 6.87504C16.3141 6.87504 16.875 7.43596 16.875 8.12502C16.875 8.81408 16.3141 9.375 15.625 9.375ZM18.75 18.75C18.0609 18.75 17.5 18.1891 17.5 17.5C17.5 16.811 18.0609 16.25 18.75 16.25C19.4391 16.25 20 16.811 20 17.5C20 18.1891 19.4391 18.75 18.75 18.75ZM18.75 12.5C18.0609 12.5 17.5 11.9391 17.5 11.25C17.5 10.5609 18.0609 10 18.75 10C19.4391 10 20 10.5609 20 11.25C20 11.9391 19.4391 12.5 18.75 12.5ZM18.75 6.25002C18.0609 6.25002 17.5 5.6891 17.5 5.00004C17.5 4.31092 18.0609 3.75 18.75 3.75C19.4391 3.75 20 4.31092 20 4.99998C20 5.6891 19.4391 6.25002 18.75 6.25002ZM21.875 15.625C21.1859 15.625 20.625 15.0641 20.625 14.375C20.625 13.686 21.1859 13.1251 21.875 13.1251C22.564 13.1251 23.125 13.686 23.125 14.375C23.125 15.0641 22.5641 15.625 21.875 15.625ZM25 12.5C24.311 12.5 23.75 11.9391 23.75 11.25C23.75 10.5609 24.311 10 25 10C25.6891 10 26.25 10.5609 26.25 11.25C26.25 11.9391 25.6891 12.5 25 12.5Z" fill="#FF9500"/>
</g>
<defs>
<clipPath id="clip0_1097_2391">
<rect width="30" height="30" fill="white"/>
</clipPath>
</defs>
</svg>
