<svg width="28" height="28" viewBox="0 0 28 28" fill="none" xmlns="http://www.w3.org/2000/svg">
<g clip-path="url(#clip0_1097_2360)">
<path d="M27.3811 0H0.618993C0.278547 0 0 0.278471 0 0.618993V27.3809C0 27.7216 0.278547 27.9999 0.618993 27.9999H27.3809C27.7215 27.9999 27.9999 27.7215 27.9999 27.3809V0.618993C28.0001 0.278547 27.7215 0 27.3811 0ZM11.0442 19.2297L6.7785 23.4844C6.60745 23.6555 6.60745 23.9353 6.7785 24.1062L7.74609 25.0737C7.91722 25.2449 7.85985 25.4003 7.61867 25.4194L2.59539 25.8165C2.35436 25.8356 2.17259 25.6539 2.19169 25.4128L2.58882 20.3895C2.60792 20.1484 2.76343 20.091 2.9344 20.2621L3.90207 21.2296C4.07312 21.4007 4.35295 21.4007 4.52393 21.2296L8.7897 16.9749C8.96075 16.8038 9.24058 16.8038 9.41156 16.9749L11.0441 18.6075C11.2152 18.7789 11.2152 19.0587 11.0442 19.2297ZM11.0442 9.49958L9.41164 11.1321C9.24058 11.3033 8.96075 11.3033 8.78978 11.1321L4.52401 6.87747C4.35295 6.70641 4.07312 6.70641 3.90215 6.87747L2.93448 7.84506C2.7635 8.01611 2.608 7.95874 2.5889 7.71763L2.19176 2.69428C2.17267 2.45325 2.35436 2.27148 2.59547 2.29058L7.61875 2.68771C7.85993 2.70674 7.9173 2.86231 7.74617 3.03329L6.77858 4.00088C6.60752 4.17201 6.60752 4.45184 6.77858 4.62282L11.0443 8.87757C11.2152 9.0487 11.2152 9.32853 11.0442 9.49958ZM25.4047 25.8168L20.3814 25.4196C20.1402 25.4005 20.0829 25.245 20.254 25.074L21.2216 24.1064C21.3926 23.9353 21.3926 23.6555 21.2216 23.4847L16.9559 19.2299C16.7847 19.0587 16.7847 18.7789 16.9559 18.6081L18.5884 16.9754C18.7595 16.8044 19.0393 16.8044 19.2103 16.9754L23.4761 21.2301C23.6471 21.4012 23.9269 21.4012 24.0979 21.2301L25.0654 20.2626C25.2366 20.0915 25.3919 20.1489 25.411 20.39L25.8082 25.4132C25.8275 25.6542 25.6457 25.8359 25.4047 25.8168ZM25.4112 7.71763C25.3922 7.95866 25.2367 8.01604 25.0656 7.84506L24.0982 6.87747C23.9269 6.70641 23.6471 6.70641 23.4763 6.87747L19.2105 11.1321C19.0393 11.3033 18.7595 11.3033 18.5887 11.1321L16.9561 9.49958C16.7851 9.32853 16.7851 9.0487 16.9561 8.87772L21.2218 4.62297C21.3929 4.45192 21.3929 4.17209 21.2218 4.00103L20.2542 3.03344C20.0831 2.86239 20.1404 2.70689 20.3816 2.68786L25.4049 2.29073C25.6459 2.27163 25.8277 2.45333 25.8086 2.69443L25.4112 7.71763Z" fill="#FF9500"/>
</g>
<defs>
<clipPath id="clip0_1097_2360">
<rect width="28" height="28" fill="white"/>
</clipPath>
</defs>
</svg>
