<svg width="20" height="20" viewBox="0 0 20 20" fill="none" xmlns="http://www.w3.org/2000/svg">
<g clip-path="url(#clip0_1327_637)">
<path d="M18.1822 18.1818L14.234 14.2336M14.234 14.2336C14.9094 13.5583 15.4451 12.7565 15.8106 11.8741C16.1761 10.9917 16.3642 10.046 16.3642 9.09091C16.3642 8.13581 16.1761 7.19007 15.8106 6.30768C15.4451 5.42529 14.9094 4.62353 14.234 3.94818C13.5586 3.27283 12.7569 2.73711 11.8745 2.37161C10.9921 2.00611 10.0464 1.81799 9.09127 1.81799C8.13618 1.81799 7.19044 2.00611 6.30805 2.37161C5.42566 2.73711 4.6239 3.27283 3.94855 3.94818C2.58461 5.31212 1.81836 7.16201 1.81836 9.09091C1.81836 11.0198 2.58461 12.8697 3.94855 14.2336C5.31248 15.5976 7.16238 16.3638 9.09127 16.3638C11.0202 16.3638 12.8701 15.5976 14.234 14.2336Z" stroke="#0044AA" stroke-width="2" stroke-linecap="round" stroke-linejoin="round"/>
</g>
<defs>
<clipPath id="clip0_1327_637">
<rect width="20" height="20" fill="white"/>
</clipPath>
</defs>
</svg>
