<svg width="20" height="20" viewBox="0 0 20 20" fill="none" xmlns="http://www.w3.org/2000/svg">
<g clip-path="url(#clip0_1061_149)">
<path d="M10.0001 0.909088C15.021 0.909088 19.091 4.97909 19.091 10C19.091 15.0209 15.021 19.0909 10.0001 19.0909C4.97918 19.0909 0.90918 15.0209 0.90918 10C0.90918 4.97909 4.97918 0.909088 10.0001 0.909088ZM10.0001 2.72727C8.07124 2.72727 6.2214 3.4935 4.85749 4.8574C3.49359 6.2213 2.72736 8.07115 2.72736 10C2.72736 11.9288 3.49359 13.7787 4.85749 15.1426C6.2214 16.5065 8.07124 17.2727 10.0001 17.2727C11.9289 17.2727 13.7788 16.5065 15.1427 15.1426C16.5066 13.7787 17.2728 11.9288 17.2728 10C17.2728 8.07115 16.5066 6.2213 15.1427 4.8574C13.7788 3.4935 11.9289 2.72727 10.0001 2.72727ZM10.0001 4.54545C10.2228 4.54548 10.4377 4.62723 10.6041 4.77519C10.7705 4.92316 10.8768 5.12704 10.9028 5.34818L10.9092 5.45454V9.62364L13.3701 12.0845C13.5331 12.2481 13.6278 12.4677 13.6348 12.6985C13.6419 12.9294 13.5608 13.1543 13.408 13.3275C13.2553 13.5008 13.0423 13.6094 12.8124 13.6313C12.5825 13.6532 12.3528 13.5867 12.1701 13.4455L12.0846 13.37L9.35736 10.6427C9.21607 10.5013 9.12533 10.3173 9.09918 10.1191L9.091 10V5.45454C9.091 5.21344 9.18678 4.98221 9.35727 4.81172C9.52775 4.64123 9.75898 4.54545 10.0001 4.54545Z" fill="#FFAA05"/>
</g>
<defs>
<clipPath id="clip0_1061_149">
<rect width="20" height="20" fill="white"/>
</clipPath>
</defs>
</svg>
