<svg width="26" height="26" viewBox="0 0 26 26" fill="none" xmlns="http://www.w3.org/2000/svg">
<rect width="26" height="26" fill="#FFAA05"/>
<path d="M19.354 9.85403L11.354 17.854C11.3076 17.9005 11.2524 17.9374 11.1917 17.9626C11.131 17.9877 11.066 18.0007 11.0003 18.0007C10.9346 18.0007 10.8695 17.9877 10.8088 17.9626C10.7481 17.9374 10.693 17.9005 10.6465 17.854L7.14653 14.354C7.05271 14.2602 7 14.133 7 14.0003C7 13.8676 7.05271 13.7403 7.14653 13.6465C7.24035 13.5527 7.3676 13.5 7.50028 13.5C7.63296 13.5 7.76021 13.5527 7.85403 13.6465L11.0003 16.7934L18.6465 9.14653C18.7403 9.05271 18.8676 9 19.0003 9C19.133 9 19.2602 9.05271 19.354 9.14653C19.4478 9.24035 19.5006 9.3676 19.5006 9.50028C19.5006 9.63296 19.4478 9.76021 19.354 9.85403Z" fill="white" stroke="white"/>
</svg>
