<svg width="70" height="70" viewBox="0 0 70 70" fill="none" xmlns="http://www.w3.org/2000/svg">
<rect width="70" height="70" rx="35" fill="#F1F3F7"/>
<g clip-path="url(#clip0_1061_1083)">
<path fill-rule="evenodd" clip-rule="evenodd" d="M45.9501 18.4722V21.1284H48.0161C49.9522 21.1284 51.5282 22.7044 51.5282 24.6406V48.0156C51.5282 49.9518 49.9522 51.5277 48.0161 51.5277H21.9848C20.0486 51.5277 18.4727 49.9518 18.4727 48.0156V24.6406C18.4727 22.7044 20.0486 21.1284 21.9848 21.1284H24.0508V18.4722H25.7626V21.1284H44.2383V18.4722H45.9501ZM49.8164 30.0121H20.1845V48.0156C20.1845 49.0087 20.9917 49.8159 21.9848 49.8159H48.0161C49.0092 49.8159 49.8164 49.0087 49.8164 48.0156V30.0121ZM20.1845 28.3003H49.8164V24.6406C49.8164 23.6474 49.0092 22.8402 48.0161 22.8402H45.9501V25.4965H44.2383V22.8402H25.7626V25.4965H24.0508V22.8402H21.9848C20.9917 22.8402 20.1845 23.6474 20.1845 24.6406V28.3003ZM23.5195 33.7456H25.2313V35.4574H23.5195V33.7456ZM28.832 33.7456H30.5438V35.4574H28.832V33.7456ZM34.1445 33.7456H35.8563V35.4574H34.1445V33.7456ZM39.457 33.7456H41.1688V35.4574H39.457V33.7456ZM44.7695 33.7456H46.4813V35.4574H44.7695V33.7456ZM23.5195 39.0581H25.2313V40.7699H23.5195V39.0581ZM28.832 39.0581H30.5438V40.7699H28.832V39.0581ZM34.1445 39.0581H35.8563V40.7699H34.1445V39.0581ZM39.457 39.0581H41.1688V40.7699H39.457V39.0581ZM23.5195 44.3706H25.2313V46.0824H23.5195V44.3706ZM28.832 44.3706H30.5438V46.0824H28.832V44.3706ZM34.1445 44.3706H35.8563V46.0824H34.1445V44.3706ZM39.457 44.3706H41.1688V46.0824H39.457V44.3706ZM44.7695 39.0581H46.4813V40.7699H44.7695V39.0581Z" fill="#0044AA"/>
</g>
<defs>
<clipPath id="clip0_1061_1083">
<rect width="34" height="34" fill="white" transform="translate(18 18)"/>
</clipPath>
</defs>
</svg>
