<svg width="30" height="30" viewBox="0 0 30 30" fill="none" xmlns="http://www.w3.org/2000/svg">
<circle cx="15" cy="15" r="15" fill="#003A7D"/>
<path d="M7.5 11.8752C7.5 10.8397 8.33947 10.0002 9.375 10.0002H20.625C21.6605 10.0002 22.5 10.8397 22.5 11.8752V19.3752C22.5 20.4108 21.6605 21.2502 20.625 21.2502H9.375C8.33947 21.2502 7.5 20.4108 7.5 19.3752V11.8752Z" fill="white"/>
<path d="M17.5064 15.2945C17.7706 15.4358 17.7706 15.8147 17.5064 15.956L13.6143 18.0366C13.3645 18.1701 13.0625 17.9891 13.0625 17.7059V13.5446C13.0625 13.2613 13.3645 13.0804 13.6143 13.2139L17.5064 15.2945Z" fill="#003A7D"/>
</svg>
