<svg width="170" height="40" viewBox="0 0 170 40" fill="none" xmlns="http://www.w3.org/2000/svg">
<rect width="170" height="40" fill="#003A7B"/>
<path fill-rule="evenodd" clip-rule="evenodd" d="M10.709 29.9105V11.3273H17.5838V18.9397H21.7102L21.6958 11.3142H28.5719L28.585 29.9105H21.7102V22.3783H17.5838V29.9105H10.709Z" fill="#FFAA05"/>
<path fill-rule="evenodd" clip-rule="evenodd" d="M76.3945 29.9094V11.3263H82.26L87.5979 19.963L92.9371 11.3263H98.355V29.9094H91.6023V20.1668L85.2512 30.4407L79.3476 19.8801V29.9094H76.3945Z" fill="#FFAA05"/>
<path fill-rule="evenodd" clip-rule="evenodd" d="M122.68 29.9116V11.3285H126.926L136.106 20.8238V11.3285H139.019V29.9116H134.367L126.441 20.9475V29.9116H122.68Z" fill="#FFAA05"/>
<path fill-rule="evenodd" clip-rule="evenodd" d="M142.932 29.9094V11.3263H147.179L156.358 20.823V11.3263H159.271V29.9094H154.621L146.693 20.9466V29.9094H142.932Z" fill="#FFAA05"/>
<path fill-rule="evenodd" clip-rule="evenodd" d="M65.0843 20.1209L65.087 14.2311H60.9618V20.1248L65.0843 20.1209ZM53.9248 29.9085V11.3267L67.0287 11.3306C69.8413 11.3306 72.1198 13.6371 72.1198 16.4827C72.1198 18.8233 70.5802 20.7971 68.4711 21.4243L74.4718 29.9085H66.3029L60.9624 21.64V29.9085H53.9248Z" fill="#FFAA05"/>
<path fill-rule="evenodd" clip-rule="evenodd" d="M108.266 17.3856L105.483 24.3221L110.915 24.3089L108.266 17.3856ZM107.483 11.3162H113.748L120.761 29.9059H113.104L112.069 27.3141L104.382 27.3404L103.321 29.9204L100.094 29.9059L107.483 11.3162Z" fill="#FFAA05"/>
<path fill-rule="evenodd" clip-rule="evenodd" d="M34.1517 11.2686C34.1517 10.214 33.3064 9.35794 32.2656 9.35794C31.2235 9.35794 30.377 10.214 30.377 11.2686C30.377 12.3245 31.2235 13.1779 32.2656 13.1779C33.3064 13.1779 34.1517 12.3245 34.1517 11.2686Z" fill="#FFAA05"/>
<path fill-rule="evenodd" clip-rule="evenodd" d="M52.304 11.244C52.304 10.1894 51.4575 9.33333 50.4167 9.33333C49.3745 9.33333 48.5293 10.1894 48.5293 11.244C48.5293 12.2999 49.3745 13.1533 50.4167 13.1533C51.4575 13.1533 52.304 12.2999 52.304 11.244Z" fill="#FFAA05"/>
<path fill-rule="evenodd" clip-rule="evenodd" d="M39.1631 27.2108V14.1939L43.363 14.186V27.2016L39.1631 27.2108ZM51.0698 20.8255C51.0698 15.3907 46.7176 10.9829 41.3469 10.9829C35.9762 10.9829 31.624 15.3907 31.624 20.8255C31.624 26.2589 35.9762 30.6667 41.3469 30.6667C46.7176 30.6667 51.0698 26.2589 51.0698 20.8255Z" fill="#FFAA05"/>
</svg>
