<svg width="8" height="8" viewBox="0 0 8 8" fill="none" xmlns="http://www.w3.org/2000/svg">
<path d="M1.66663 1.00003L1.66663 7.00003C1.66682 7.06078 1.68358 7.12032 1.71509 7.17225C1.7466 7.22419 1.79169 7.26654 1.84548 7.29476C1.89928 7.32298 1.95975 7.33599 2.02039 7.3324C2.08103 7.3288 2.13955 7.30874 2.18963 7.27436L6.52296 4.27436C6.70263 4.15003 6.70263 3.8507 6.52296 3.72603L2.18963 0.726028C2.13965 0.691303 2.08111 0.67094 2.02037 0.66715C1.95962 0.663361 1.899 0.67629 1.8451 0.704533C1.79119 0.732776 1.74605 0.775254 1.71458 0.82735C1.68312 0.879446 1.66654 0.939168 1.66663 1.00003Z" fill="#002D72"/>
</svg>
