<svg width="80" height="80" viewBox="0 0 80 80" fill="none" xmlns="http://www.w3.org/2000/svg">
<circle cx="40" cy="40" r="40" fill="white"/>
<g clip-path="url(#clip0_1147_20)">
<path d="M59.0696 30.0543C54.9626 27.5924 52.708 24.9851 51.5404 23.231C50.3163 21.393 49.9975 20.0837 49.9783 20.001C49.8639 19.4102 49.3496 19 48.7471 19H31.328C30.7304 19 30.2155 19.4204 30.0959 20.0055C30.0854 20.0581 28.9331 25.3026 21.0055 30.0543C20.5294 30.3395 20.2967 30.9035 20.4332 31.4415C20.5431 31.8753 23.1691 42.1411 27.0265 48.5404C29.4067 52.4882 32.4332 55.597 34.0254 57.0989C35.1931 58.2005 36.3287 59.1394 37.3096 59.8142C38.8534 60.8771 39.6061 61.0002 40.0377 61.0002C40.4694 61.0002 41.2217 60.8771 42.7659 59.8142C43.7464 59.1394 44.8821 58.2005 46.05 57.0989C47.6423 55.597 50.6688 52.4882 53.0487 48.5404C56.9064 42.1411 59.5323 31.8753 59.6422 31.4415C59.7784 30.9035 59.5458 30.3395 59.0696 30.0543ZM56.9666 31.7103C56.6545 32.8424 56.047 34.948 55.2145 37.3801H48.701C48.1476 33.564 45.1157 30.5407 41.2958 30.0005V21.5148H47.8233C48.5353 23.4281 50.7345 27.7357 56.9666 31.7103ZM40.0682 44.8461C36.6966 44.8461 33.9459 42.1446 33.863 38.7925C33.8694 38.7416 33.8735 38.69 33.8735 38.6374C33.8735 38.5846 33.8694 38.5333 33.863 38.482C33.9459 35.1303 36.6966 32.4284 40.0682 32.4284C43.4917 32.4284 46.2772 35.2136 46.2772 38.6374C46.2772 42.0609 43.4917 44.8461 40.0682 44.8461ZM32.2515 21.5148H38.781V30.0088C34.989 30.5718 31.9859 33.5839 31.4353 37.3801H24.8607C24.0282 34.948 23.4206 32.8424 23.1085 31.7103C29.3407 27.7357 31.5398 23.4281 32.2515 21.5148ZM35.5456 55.0744C34.094 53.685 31.337 50.8193 29.1804 47.242C27.8897 45.1009 26.7285 42.4435 25.7649 39.8948H31.4353C31.9871 43.7006 35.005 46.7184 38.8108 47.2702V57.7955C38.0235 57.2607 36.9177 56.3878 35.5456 55.0744ZM50.8947 47.242C48.7382 50.8193 45.9812 53.6847 44.5296 55.0744C43.1924 56.3545 42.1084 57.2155 41.3256 57.7535V47.2702C45.1314 46.7184 48.1492 43.7006 48.701 39.8948H54.3102C53.3463 42.4435 52.1854 45.1009 50.8947 47.242Z" fill="#003A7D"/>
<path d="M41.7284 36.3223L38.9557 39.095L38.2312 38.2144C37.7899 37.6784 36.9978 37.6011 36.4614 38.0424C35.9253 38.4836 35.8481 39.276 36.2893 39.8124L37.8941 41.7626C38.1193 42.0366 38.45 42.2026 38.8041 42.2195C38.8246 42.2205 38.8448 42.2211 38.8653 42.2211C39.1979 42.2211 39.518 42.0891 39.7542 41.8526L43.5065 38.1007C43.9977 37.6095 43.9977 36.8135 43.5065 36.3223C43.0156 35.8314 42.2193 35.8314 41.7284 36.3223Z" fill="#003A7D"/>
</g>
<defs>
<clipPath id="clip0_1147_20">
<rect width="42" height="42" fill="white" transform="translate(19 19)"/>
</clipPath>
</defs>
</svg>
