<?xml version="1.0" encoding="utf-8"?>
<svg version="1.1" xmlns:xlink="http://www.w3.org/1999/xlink" width="26px" height="20px" xmlns="http://www.w3.org/2000/svg">
  <g transform="matrix(1 0 0 1 -90 -902 )">
    <path d="M 25.5303225806452 2.76094276094276  C 25.8434408602151 3.07519640852974  26 3.45679012345679  26 3.90572390572391  C 26 4.35465768799102  25.8434408602151 4.73625140291807  25.5303225806452 5.05050505050505  L 13.3858064516129 17.2390572390572  L 11.1045161290323 19.5286195286195  C 10.7913978494624 19.8428731762065  10.4111827956989 20  9.96387096774194 20  C 9.51655913978495 20  9.13634408602151 19.8428731762065  8.82322580645161 19.5286195286195  L 6.54193548387097 17.2390572390572  L 0.469677419354839 11.1447811447811  C 0.156559139784946 10.8305274971942  0 10.4489337822671  0 10  C 0 9.55106621773288  0.156559139784946 9.16947250280584  0.469677419354839 8.85521885521886  L 2.75096774193548 6.56565656565657  C 3.06408602150538 6.25140291806958  3.44430107526882 6.09427609427609  3.89161290322581 6.09427609427609  C 4.3389247311828 6.09427609427609  4.71913978494624 6.25140291806958  5.03225806451613 6.56565656565657  L 9.96387096774194 11.5319865319865  L 20.9677419354839 0.471380471380471  C 21.2808602150538 0.15712682379349  21.6610752688172 0  22.1083870967742 0  C 22.5556989247312 0  22.9359139784946 0.15712682379349  23.2490322580645 0.471380471380471  L 25.5303225806452 2.76094276094276  Z " fill-rule="nonzero" fill="#000000" stroke="none" transform="matrix(1 0 0 1 90 902 )" />
  </g>
</svg>