<svg width="15" height="15" viewBox="0 0 15 15" fill="none" xmlns="http://www.w3.org/2000/svg">
<path d="M0.666667 0.333333H3.33333C3.52 0.333333 3.67556 0.4 3.8 0.533333C3.93333 0.657777 4 0.813333 4 1V3.66667C4 3.85333 3.93333 4.01333 3.8 4.14667C3.67556 4.27111 3.52 4.33333 3.33333 4.33333H0.666667C0.48 4.33333 0.32 4.27111 0.186667 4.14667C0.0622222 4.01333 0 3.85333 0 3.66667V1C0 0.813333 0.0622222 0.657777 0.186667 0.533333C0.32 0.4 0.48 0.333333 0.666667 0.333333ZM6 0.333333H8.66667C8.85333 0.333333 9.00889 0.4 9.13333 0.533333C9.26667 0.657777 9.33333 0.813333 9.33333 1V3.66667C9.33333 3.85333 9.26667 4.01333 9.13333 4.14667C9.00889 4.27111 8.85333 4.33333 8.66667 4.33333H6C5.81333 4.33333 5.65333 4.27111 5.52 4.14667C5.39556 4.01333 5.33333 3.85333 5.33333 3.66667V1C5.33333 0.813333 5.39556 0.657777 5.52 0.533333C5.65333 0.4 5.81333 0.333333 6 0.333333ZM11.3333 0.333333H14C14.1867 0.333333 14.3422 0.4 14.4667 0.533333C14.6 0.657777 14.6667 0.813333 14.6667 1V3.66667C14.6667 3.85333 14.6 4.01333 14.4667 4.14667C14.3422 4.27111 14.1867 4.33333 14 4.33333H11.3333C11.1467 4.33333 10.9867 4.27111 10.8533 4.14667C10.7289 4.01333 10.6667 3.85333 10.6667 3.66667V1C10.6667 0.813333 10.7289 0.657777 10.8533 0.533333C10.9867 0.4 11.1467 0.333333 11.3333 0.333333ZM0.666667 5.66667H3.33333C3.52 5.66667 3.67556 5.73333 3.8 5.86667C3.93333 5.99111 4 6.14667 4 6.33333V9C4 9.18667 3.93333 9.34667 3.8 9.48C3.67556 9.60444 3.52 9.66667 3.33333 9.66667H0.666667C0.48 9.66667 0.32 9.60444 0.186667 9.48C0.0622222 9.34667 0 9.18667 0 9V6.33333C0 6.14667 0.0622222 5.99111 0.186667 5.86667C0.32 5.73333 0.48 5.66667 0.666667 5.66667ZM6 5.66667H8.66667C8.85333 5.66667 9.00889 5.73333 9.13333 5.86667C9.26667 5.99111 9.33333 6.14667 9.33333 6.33333V9C9.33333 9.18667 9.26667 9.34667 9.13333 9.48C9.00889 9.60444 8.85333 9.66667 8.66667 9.66667H6C5.81333 9.66667 5.65333 9.60444 5.52 9.48C5.39556 9.34667 5.33333 9.18667 5.33333 9V6.33333C5.33333 6.14667 5.39556 5.99111 5.52 5.86667C5.65333 5.73333 5.81333 5.66667 6 5.66667ZM11.3333 5.66667H14C14.1867 5.66667 14.3422 5.73333 14.4667 5.86667C14.6 5.99111 14.6667 6.14667 14.6667 6.33333V9C14.6667 9.18667 14.6 9.34667 14.4667 9.48C14.3422 9.60444 14.1867 9.66667 14 9.66667H11.3333C11.1467 9.66667 10.9867 9.60444 10.8533 9.48C10.7289 9.34667 10.6667 9.18667 10.6667 9V6.33333C10.6667 6.14667 10.7289 5.99111 10.8533 5.86667C10.9867 5.73333 11.1467 5.66667 11.3333 5.66667ZM0.666667 11H3.33333C3.52 11 3.67556 11.0667 3.8 11.2C3.93333 11.3244 4 11.48 4 11.6667V14.3333C4 14.52 3.93333 14.68 3.8 14.8133C3.67556 14.9378 3.52 15 3.33333 15H0.666667C0.48 15 0.32 14.9378 0.186667 14.8133C0.0622222 14.68 0 14.52 0 14.3333V11.6667C0 11.48 0.0622222 11.3244 0.186667 11.2C0.32 11.0667 0.48 11 0.666667 11ZM6 11H8.66667C8.85333 11 9.00889 11.0667 9.13333 11.2C9.26667 11.3244 9.33333 11.48 9.33333 11.6667V14.3333C9.33333 14.52 9.26667 14.68 9.13333 14.8133C9.00889 14.9378 8.85333 15 8.66667 15H6C5.81333 15 5.65333 14.9378 5.52 14.8133C5.39556 14.68 5.33333 14.52 5.33333 14.3333V11.6667C5.33333 11.48 5.39556 11.3244 5.52 11.2C5.65333 11.0667 5.81333 11 6 11ZM11.3333 11H14C14.1867 11 14.3422 11.0667 14.4667 11.2C14.6 11.3244 14.6667 11.48 14.6667 11.6667V14.3333C14.6667 14.52 14.6 14.68 14.4667 14.8133C14.3422 14.9378 14.1867 15 14 15H11.3333C11.1467 15 10.9867 14.9378 10.8533 14.8133C10.7289 14.68 10.6667 14.52 10.6667 14.3333V11.6667C10.6667 11.48 10.7289 11.3244 10.8533 11.2C10.9867 11.0667 11.1467 11 11.3333 11Z" fill="#003A7D"/>
</svg>
