<svg width="16" height="14" viewBox="0 0 16 14" fill="none" xmlns="http://www.w3.org/2000/svg">
<path d="M0.333333 0.333333H15.6667C15.7556 0.333333 15.8089 0.355555 15.8267 0.4C15.8533 0.444444 15.8311 0.502222 15.76 0.573333L8.24 8.13333C8.16889 8.20444 8.08889 8.24 8 8.24C7.91111 8.24 7.83111 8.20444 7.76 8.13333L0.24 0.573333C0.168889 0.502222 0.142222 0.444444 0.16 0.4C0.186667 0.355555 0.244444 0.333333 0.333333 0.333333ZM0.24 3.24L3.76 6.76C3.83111 6.83111 3.86667 6.91111 3.86667 7C3.86667 7.08889 3.83111 7.16889 3.76 7.24L0.24 10.76C0.168889 10.8311 0.111111 10.8578 0.0666667 10.84C0.0222222 10.8133 0 10.7556 0 10.6667V3.33333C0 3.24444 0.0222222 3.19111 0.0666667 3.17333C0.111111 3.14667 0.168889 3.16889 0.24 3.24ZM12.24 6.76L15.76 3.24C15.8311 3.16889 15.8889 3.14667 15.9333 3.17333C15.9778 3.19111 16 3.24444 16 3.33333V10.6667C16 10.7556 15.9778 10.8133 15.9333 10.84C15.8889 10.8578 15.8311 10.8311 15.76 10.76L12.24 7.24C12.1689 7.16889 12.1333 7.08889 12.1333 7C12.1333 6.91111 12.1689 6.83111 12.24 6.76ZM10.9067 8.57333L15.76 13.4267C15.8311 13.4978 15.8533 13.5556 15.8267 13.6C15.8089 13.6444 15.7556 13.6667 15.6667 13.6667H0.333333C0.244444 13.6667 0.186667 13.6444 0.16 13.6C0.142222 13.5556 0.168889 13.4978 0.24 13.4267L5.09333 8.57333C5.16444 8.50222 5.24444 8.46667 5.33333 8.46667C5.42222 8.46667 5.50222 8.50222 5.57333 8.57333L7.76 10.76C7.83111 10.8311 7.91111 10.8667 8 10.8667C8.08889 10.8667 8.16889 10.8311 8.24 10.76L10.4267 8.57333C10.4978 8.50222 10.5778 8.46667 10.6667 8.46667C10.7556 8.46667 10.8356 8.50222 10.9067 8.57333Z" fill="#003A7D"/>
</svg>
