<svg width="37" height="48" viewBox="0 0 37 48" fill="none" xmlns="http://www.w3.org/2000/svg">
<path d="M1 47V1H27.6197L36 9.5V47H1Z" stroke="#003A7D" stroke-width="2"/>
<path d="M10.3496 38.8301V42H8.86719V33.4688H12.1309C13.084 33.4688 13.8398 33.7168 14.3984 34.2129C14.9609 34.709 15.2422 35.3652 15.2422 36.1816C15.2422 37.0176 14.9668 37.668 14.416 38.1328C13.8691 38.5977 13.1016 38.8301 12.1133 38.8301H10.3496ZM10.3496 37.6406H12.1309C12.6582 37.6406 13.0605 37.5176 13.3379 37.2715C13.6152 37.0215 13.7539 36.6621 13.7539 36.1934C13.7539 35.7324 13.6133 35.3652 13.332 35.0918C13.0508 34.8145 12.6641 34.6719 12.1719 34.6641H10.3496V37.6406ZM16.543 42V33.4688H19.0625C19.8164 33.4688 20.4844 33.6367 21.0664 33.9727C21.6523 34.3086 22.1055 34.7852 22.4258 35.4023C22.7461 36.0195 22.9062 36.7266 22.9062 37.5234V37.9512C22.9062 38.7598 22.7441 39.4707 22.4199 40.084C22.0996 40.6973 21.6406 41.1699 21.043 41.502C20.4492 41.834 19.7676 42 18.998 42H16.543ZM18.0254 34.6641V40.8164H18.9922C19.7695 40.8164 20.3652 40.5742 20.7793 40.0898C21.1973 39.6016 21.4102 38.9023 21.418 37.9922V37.5176C21.418 36.5918 21.2168 35.8848 20.8145 35.3965C20.4121 34.9082 19.8281 34.6641 19.0625 34.6641H18.0254ZM29.2988 38.3848H25.8652V42H24.3828V33.4688H29.8027V34.6641H25.8652V37.2012H29.2988V38.3848Z" fill="#003A7D"/>
</svg>
