<svg width="11" height="15" viewBox="0 0 11 15" fill="none" xmlns="http://www.w3.org/2000/svg">
<mask id="path-1-outside-1" maskUnits="userSpaceOnUse" x="0" y="0" width="11" height="15" fill="black">
<rect fill="white" width="11" height="15"/>
<path fill-rule="evenodd" clip-rule="evenodd" d="M7.75786 1.61856C7.06635 1.20618 6.312 1 5.49476 1C4.88707 1 4.30559 1.12371 3.75029 1.37113C3.19499 1.61856 2.71653 1.95017 2.3149 2.36598C1.91327 2.78179 1.59371 3.26976 1.35623 3.8299C1.11874 4.39004 1 4.97251 1 5.57732C1 6.38145 1.20954 7.23711 1.62864 8.14433C1.91502 8.63918 2.24854 9.14776 2.62922 9.6701C3.0099 10.1924 3.3539 10.6323 3.66123 10.9897C3.96857 11.3471 4.28638 11.701 4.61467 12.0515C4.94296 12.4021 5.16473 12.634 5.27998 12.7474C5.39523 12.8608 5.48428 12.945 5.54715 13L6.11292 12.3608C6.49011 11.9278 6.98952 11.311 7.61118 10.5103C8.23283 9.70962 8.78463 8.93471 9.26659 8.18557C9.75553 7.20274 10 6.31616 10 5.52577C10 4.72165 9.79919 3.97251 9.39756 3.27835C8.99592 2.58419 8.44936 2.03093 7.75786 1.61856ZM5.50001 2.84619C6.1885 2.84619 6.77728 3.07192 7.26637 3.52339C7.75546 3.97486 8.00001 4.52009 8.00001 5.15909C8.00001 5.7981 7.75546 6.34159 7.26637 6.78958C6.77728 7.23758 6.1885 7.46158 5.50001 7.46158C4.81152 7.46158 4.22273 7.23758 3.73364 6.78958C3.24455 6.34159 3.00001 5.7981 3.00001 5.15909C3.00001 4.52009 3.24455 3.97486 3.73364 3.52339C4.22273 3.07192 4.81152 2.84619 5.50001 2.84619Z"/>
</mask>
<path d="M7.75786 1.61856L7.24567 2.47743L7.75786 1.61856ZM3.75029 1.37113L4.15729 2.28456L3.75029 1.37113ZM2.3149 2.36598L3.03416 3.06072L2.3149 2.36598ZM1.35623 3.8299L0.435559 3.43955L0.435559 3.43955L1.35623 3.8299ZM1.62864 8.14433L0.720822 8.5637L0.740101 8.60543L0.763128 8.64522L1.62864 8.14433ZM2.62922 9.6701L3.43737 9.08113H3.43737L2.62922 9.6701ZM3.66123 10.9897L2.90303 11.6417L2.90303 11.6417L3.66123 10.9897ZM4.61467 12.0515L5.34454 11.368L5.34454 11.368L4.61467 12.0515ZM5.27998 12.7474L4.57861 13.4602L4.57861 13.4602L5.27998 12.7474ZM5.54715 13L4.8888 13.7527L5.63706 14.4072L6.29594 13.6628L5.54715 13ZM6.11292 12.3608L6.86174 13.0236L6.86695 13.0177L6.11292 12.3608ZM7.61118 10.5103L6.8213 9.89705L6.8213 9.89705L7.61118 10.5103ZM9.26659 8.18557L10.1076 8.72662L10.1374 8.68029L10.1619 8.63098L9.26659 8.18557ZM9.39756 3.27835L10.2631 2.77755V2.77755L9.39756 3.27835ZM7.26637 3.52339L6.58809 4.2582V4.2582L7.26637 3.52339ZM7.26637 6.78958L6.59092 6.05218L6.59092 6.05218L7.26637 6.78958ZM3.73364 3.52339L3.05536 2.78859L3.05536 2.78859L3.73364 3.52339ZM5.49476 2C6.13452 2 6.71148 2.15887 7.24567 2.47743L8.27004 0.759681C7.42122 0.253495 6.48947 0 5.49476 0V2ZM4.15729 2.28456C4.58454 2.09419 5.02737 2 5.49476 2V0C4.74678 0 4.02664 0.153229 3.3433 0.457704L4.15729 2.28456ZM3.03416 3.06072C3.34214 2.74187 3.713 2.48252 4.15729 2.28456L3.3433 0.457704C2.67698 0.754593 2.09092 1.15847 1.59564 1.67124L3.03416 3.06072ZM2.2769 4.22024C2.46903 3.76707 2.72218 3.38371 3.03416 3.06072L1.59564 1.67124C1.10436 2.17987 0.718397 2.77245 0.435559 3.43955L2.2769 4.22024ZM2 5.57732C2 5.10744 2.09144 4.65766 2.2769 4.22024L0.435559 3.43955C0.14604 4.12242 0 4.83757 0 5.57732H2ZM2.53645 7.72496C2.16374 6.91813 2 6.20592 2 5.57732H0C0 6.55698 0.255352 7.55609 0.720822 8.5637L2.53645 7.72496ZM3.43737 9.08113C3.07473 8.58354 2.76088 8.10433 2.49415 7.64344L0.763128 8.64522C1.06916 9.17403 1.42235 9.71199 1.82107 10.2591L3.43737 9.08113ZM4.41944 10.3377C4.13464 10.0065 3.80759 9.58912 3.43737 9.08113L1.82107 10.2591C2.2122 10.7958 2.57315 11.2581 2.90303 11.6417L4.41944 10.3377ZM5.34454 11.368C5.02573 11.0276 4.71738 10.6841 4.41944 10.3377L2.90303 11.6417C3.21976 12.01 3.54702 12.3745 3.8848 12.7351L5.34454 11.368ZM5.98135 12.0346C5.88303 11.9379 5.67505 11.7208 5.34454 11.368L3.8848 12.7351C4.21087 13.0833 4.44642 13.3302 4.57861 13.4602L5.98135 12.0346ZM6.2055 12.2473C6.16526 12.2121 6.09297 12.1445 5.98134 12.0346L4.57861 13.4602C4.69749 13.5772 4.80331 13.6779 4.8888 13.7527L6.2055 12.2473ZM5.36413 11.698L4.79835 12.3372L6.29594 13.6628L6.86172 13.0236L5.36413 11.698ZM6.8213 9.89705C6.20391 10.6922 5.71782 11.2919 5.35889 11.704L6.86695 13.0177C7.26239 12.5637 7.77514 11.9298 8.40106 11.1236L6.8213 9.89705ZM8.4256 7.64452C7.9616 8.36575 7.42727 9.11655 6.8213 9.89705L8.40106 11.1236C9.03839 10.3027 9.60766 9.50368 10.1076 8.72662L8.4256 7.64452ZM9 5.52577C9 6.11349 8.81658 6.84503 8.37126 7.74015L10.1619 8.63098C10.6945 7.56046 11 6.51882 11 5.52577H9ZM8.53199 3.77915C8.84531 4.32067 9 4.897 9 5.52577H11C11 4.54629 10.7531 3.62435 10.2631 2.77755L8.53199 3.77915ZM7.24567 2.47743C7.7914 2.80287 8.21607 3.23312 8.53199 3.77915L10.2631 2.77755C9.77578 1.93526 9.10732 1.25899 8.27004 0.759681L7.24567 2.47743ZM7.94465 2.78859C7.26395 2.16025 6.43035 1.84619 5.50001 1.84619V3.84619C5.94665 3.84619 6.29061 3.9836 6.58809 4.2582L7.94465 2.78859ZM9.00001 5.15909C9.00001 4.22813 8.62918 3.42046 7.94465 2.78859L6.58809 4.2582C6.88175 4.52926 7.00001 4.81205 7.00001 5.15909H9.00001ZM7.94182 7.52699C8.62882 6.89772 9.00001 6.09036 9.00001 5.15909H7.00001C7.00001 5.50583 6.88211 5.78546 6.59092 6.05218L7.94182 7.52699ZM5.50001 8.46158C6.42808 8.46158 7.26075 8.15084 7.94182 7.52699L6.59092 6.05218C6.29381 6.32432 5.94891 6.46158 5.50001 6.46158V8.46158ZM3.05819 7.52699C3.73927 8.15084 4.57193 8.46158 5.50001 8.46158V6.46158C5.0511 6.46158 4.7062 6.32432 4.40909 6.05218L3.05819 7.52699ZM2.00001 5.15909C2.00001 6.09036 2.37119 6.89772 3.05819 7.52699L4.40909 6.05218C4.11791 5.78546 4.00001 5.50583 4.00001 5.15909H2.00001ZM3.05536 2.78859C2.37083 3.42046 2.00001 4.22813 2.00001 5.15909H4.00001C4.00001 4.81205 4.11826 4.52926 4.41192 4.2582L3.05536 2.78859ZM5.50001 1.84619C4.56966 1.84619 3.73607 2.16025 3.05536 2.78859L4.41192 4.2582C4.7094 3.9836 5.05337 3.84619 5.50001 3.84619V1.84619Z" fill="white" mask="url(#path-1-outside-1)"/>
</svg>
