<svg width="16" height="23" viewBox="0 0 16 23" fill="none" xmlns="http://www.w3.org/2000/svg">
<path fill-rule="evenodd" clip-rule="evenodd" d="M12.014 1.75743C10.7846 0.996125 9.44355 0.615479 7.99069 0.615479C6.91036 0.615479 5.87661 0.843866 4.88941 1.30065C3.90221 1.75743 3.05161 2.36964 2.3376 3.13729C1.62359 3.90494 1.05549 4.8058 0.633295 5.8399C0.211096 6.87401 0 7.94933 0 9.06591C0 10.5505 0.372523 12.1301 1.11758 13.805C1.6267 14.7186 2.21963 15.6575 2.89639 16.6218C3.57315 17.5861 4.18471 18.3982 4.73108 19.058C5.27746 19.7178 5.84245 20.3712 6.42608 21.0183C7.0097 21.6654 7.40396 22.0937 7.60885 22.303C7.81374 22.5124 7.97206 22.6678 8.08382 22.7693L9.08964 21.5893C9.76019 20.7899 10.648 19.6512 11.7532 18.173C12.8584 16.6948 13.8393 15.2642 14.6962 13.8811C15.5654 12.0667 16 10.4299 16 8.97075C16 7.48621 15.643 6.10319 14.929 4.82166C14.215 3.54013 13.2433 2.51873 12.014 1.75743ZM8 4.02396C9.22399 4.02396 10.2707 4.4407 11.1402 5.27418C12.0097 6.10766 12.4444 7.11423 12.4444 8.29393C12.4444 9.47363 12.0097 10.477 11.1402 11.3041C10.2707 12.1311 9.22399 12.5447 8 12.5447C6.77602 12.5447 5.72929 12.1311 4.8598 11.3041C3.9903 10.477 3.55556 9.47363 3.55556 8.29393C3.55556 7.11423 3.9903 6.10766 4.8598 5.27418C5.72929 4.4407 6.77602 4.02396 8 4.02396Z" fill="#003A7D"/>
</svg>
