<svg width="24" height="24" viewBox="0 0 24 24" fill="none" xmlns="http://www.w3.org/2000/svg">
<path fill-rule="evenodd" clip-rule="evenodd" d="M0 12C0 5.3725 5.3725 0 12 0C18.6275 0 24 5.3725 24 12C24 18.6275 18.6275 24 12 24C5.3725 24 0 18.6275 0 12ZM17.9375 15.0725C17.6763 14.5863 16.615 13.5387 16.615 13.5387C15.6363 12.6225 15.6363 12.5613 16.5575 11.3538L16.5627 11.3469C16.6927 11.176 16.8422 10.9795 17.0112 10.755C18.0275 9.37875 18.0925 8.925 18.0375 8.77625C18.0063 8.6825 17.84 8.64625 17.5975 8.64625H15.3713C15.3362 8.64625 15.2675 8.6525 15.2162 8.6825C15.1546 8.71927 15.1019 8.81117 15.0807 8.84825C15.0795 8.85025 15.0785 8.85209 15.0775 8.85375C15.055 8.915 14.74 9.74375 14.3337 10.4462C13.4062 12.0375 13.0638 12.0375 12.95 12.0375C12.8988 12.0375 12.85 12.0225 12.8075 11.9963C12.4808 11.7805 12.4949 11.2563 12.5074 10.7934L12.5075 10.79C12.5075 10.7462 12.5085 10.7037 12.5095 10.6625C12.5104 10.6238 12.5112 10.5863 12.5112 10.55C12.5112 10.205 12.5225 9.9125 12.5338 9.65375C12.57 8.7425 12.5612 8.47625 12.1488 8.3775C11.945 8.32625 11.8 8.29 11.2375 8.2825H10.9487C10.43 8.2825 9.9075 8.30375 9.6175 8.44875C9.5025 8.505 9.41 8.59875 9.36875 8.66C9.52875 8.69 9.7925 8.77125 9.9475 8.985C10.1637 9.28 10.165 9.895 10.165 9.95375C10.1838 10.2663 10.2625 11.7725 9.84 12.0075C9.78375 12.0363 9.7275 12.0525 9.66625 12.0525C9.3425 12.0525 8.93875 11.5825 8.28 10.425C7.91877 9.79368 7.68306 9.22463 7.58779 8.99465C7.57592 8.96599 7.56623 8.94259 7.55875 8.925C7.50125 8.78875 7.41875 8.635 7.16625 8.635H5.2725C5.06125 8.635 4.8675 8.75625 4.96125 8.9825C4.97375 9.015 6.46125 12.5125 8.11375 14.2563C9.46375 15.68 10.9875 15.7825 11.28 15.7825H12.1388C12.2975 15.7825 12.5225 15.6188 12.5225 15.3337C12.5225 14.4213 12.83 14.0788 13.07 14.0013C13.1075 13.9888 13.1487 13.9825 13.1887 13.9825C13.5062 13.9825 13.8212 14.3475 14.185 14.77L14.1864 14.7716C14.4297 15.0549 14.6792 15.3453 14.9325 15.5225C15.2625 15.75 15.535 15.7838 15.665 15.7838H17.54C17.6425 15.7762 17.9425 15.6912 18.03 15.5188C18.0825 15.415 18.0575 15.2762 17.9513 15.0975C17.9507 15.0964 17.9501 15.0951 17.9494 15.0936C17.947 15.0882 17.9434 15.0803 17.9375 15.0725Z" fill="#003A7D"/>
</svg>
