<svg width="80" height="80" viewBox="0 0 80 80" fill="none" xmlns="http://www.w3.org/2000/svg">
<circle cx="40" cy="40" r="40" fill="white"/>
<path d="M51.3563 43.7693C53.8622 41.0306 55.3936 37.3859 55.3936 33.3899C55.3936 24.9039 48.4898 18 40.0038 18C31.5178 18 24.6139 24.9039 24.6139 33.3899C24.6139 37.4025 26.1581 41.0608 28.6827 43.8032L22.436 57.0769L28.7861 57.1599L32.8974 62L39.1309 48.7543C39.4199 48.7706 39.7107 48.7796 40.0038 48.7796C40.2967 48.7796 40.5876 48.7706 40.8766 48.7543L47.1101 62L51.2214 57.1599L57.564 57.077L51.3563 43.7693ZM32.27 57.2801L29.9918 54.5979L26.4729 54.5519L30.6756 45.6215C32.3654 46.9133 34.3294 47.8637 36.464 48.3681L32.27 57.2801ZM40.0038 46.2022C32.939 46.2022 27.1913 40.4546 27.1913 33.3898C27.1913 26.325 32.9389 20.5774 40.0038 20.5774C47.0684 20.5774 52.8161 26.325 52.8161 33.3898C52.8161 40.4547 47.0684 46.2022 40.0038 46.2022ZM50.0157 54.598L47.7375 57.2802L43.5434 48.3681C45.6919 47.8605 47.6673 46.9012 49.3646 45.5965L53.542 54.5519L50.0157 54.598Z" fill="#003A7D"/>
<path d="M50.0389 30.2596L43.1047 29.2521L40.0035 22.9686L36.9025 29.2521L29.9683 30.2596L34.9859 35.1506L33.8014 42.0568L40.0035 38.7961L46.2057 42.0568L45.0212 35.1506L50.0389 30.2596ZM42.7826 37.3453L40.0036 35.8842L37.2246 37.3453L37.7553 34.2508L35.5071 32.0594L38.614 31.6079L40.0035 28.7925L41.3931 31.6079L44.5 32.0594L42.2518 34.2508L42.7826 37.3453Z" fill="#003A7D"/>
</svg>
