<svg width="80" height="80" viewBox="0 0 80 80" fill="none" xmlns="http://www.w3.org/2000/svg">
<circle cx="40" cy="40" r="40" fill="white"/>
<g clip-path="url(#clip0_901_604)">
<path d="M55.9904 29.3151C56.0325 28.9204 56.055 28.5226 56.055 28.1231C56.055 21.9953 51.0697 17.0099 44.9418 17.0099C38.8139 17.0099 33.8285 21.9952 33.8285 28.1231C33.8285 28.5225 33.851 28.9203 33.8932 29.3151H19V58.991H61V29.3151H55.9904ZM44.9417 19.4709C49.7125 19.4709 53.5939 23.3522 53.5939 28.1231C53.5939 28.8433 53.5058 29.5569 53.3317 30.2452C53.0901 31.2053 52.4493 32.4359 51.9336 33.2148L44.9418 43.5943L40.3931 36.8427L38.0076 33.3004L37.9238 33.1764L37.9069 33.1609C37.2724 32.277 36.8166 31.2965 36.5516 30.2439C36.3779 29.5569 36.2898 28.8432 36.2898 28.1231C36.2896 23.3523 40.171 19.4709 44.9417 19.4709ZM28.3653 31.7761H34.4438C34.8061 32.8201 35.3215 33.8008 35.9838 34.7012L38.232 38.0386L36.2257 40.0427L28.1622 31.9792L28.3653 31.7761ZM34.4847 41.782L30.07 46.1921L22.0096 38.1318L26.422 33.7194L34.4847 41.782ZM21.461 31.7761H24.885L21.461 35.2V31.7761ZM21.461 41.0635L28.3288 47.9313L21.461 54.7919V41.0635ZM58.539 56.53H45.412L53.4749 48.4671L58.539 53.5311V56.53ZM58.539 50.0508L55.2151 46.7269L58.539 43.403V50.0508ZM58.5391 39.9226L41.9317 56.53H23.2034L39.6327 40.1178L44.9418 47.9989L51.5317 38.2173L53.8814 34.7284L53.9157 34.6779C54.3945 33.9721 55.0099 32.877 55.4228 31.7761H58.5391V39.9226Z" fill="#003A7D"/>
<path d="M44.9416 22.5205C41.9837 22.5205 39.5773 24.9268 39.5773 27.8848C39.5773 29.1472 40.0247 30.3736 40.8369 31.3375C41.8592 32.5524 43.3555 33.249 44.9417 33.249C46.528 33.249 48.0241 32.5524 49.046 31.338C49.8584 30.3737 50.3059 29.1472 50.3059 27.8848C50.3059 24.9269 47.8995 22.5205 44.9416 22.5205ZM47.1634 29.7528C46.6098 30.4106 45.8 30.7879 44.9417 30.7879C44.0833 30.7879 43.2735 30.4106 42.7195 29.7522C42.2803 29.231 42.0385 28.5677 42.0385 27.8846C42.0385 26.2839 43.3409 24.9815 44.9417 24.9815C46.5425 24.9815 47.8449 26.2839 47.8449 27.8847C47.845 28.5678 47.6031 29.231 47.1634 29.7528Z" fill="#003A7D"/>
</g>
<defs>
<clipPath id="clip0_901_604">
<rect width="42" height="42" fill="white" transform="translate(19 17)"/>
</clipPath>
</defs>
</svg>
