<svg width="80" height="80" viewBox="0 0 80 80" fill="none" xmlns="http://www.w3.org/2000/svg">
<circle cx="40" cy="40" r="40" fill="white"/>
<g clip-path="url(#clip0_901_617)">
<path d="M59.0697 30.0543C54.9627 27.5924 52.7082 24.9851 51.5405 23.231C50.3164 21.393 49.9976 20.0837 49.9784 20.001C49.864 19.4102 49.3497 19 48.7473 19H31.3281C30.7305 19 30.2156 19.4204 30.0961 20.0055C30.0855 20.0581 28.9332 25.3026 21.0056 30.0543C20.5295 30.3395 20.2968 30.9035 20.4333 31.4415C20.5433 31.8753 23.1692 42.1411 27.0266 48.5404C29.4068 52.4882 32.4333 55.597 34.0255 57.0989C35.1932 58.2005 36.3288 59.1394 37.3097 59.8142C38.8535 60.8771 39.6062 61.0002 40.0379 61.0002C40.4695 61.0002 41.2219 60.8771 42.766 59.8142C43.7466 59.1394 44.8822 58.2005 46.0502 57.0989C47.6424 55.597 50.6689 52.4882 53.0488 48.5404C56.9065 42.1411 59.5325 31.8753 59.6424 31.4415C59.7785 30.9035 59.5459 30.3395 59.0697 30.0543ZM56.9667 31.7103C56.6546 32.8424 56.0471 34.948 55.2146 37.3801H48.7011C48.1477 33.564 45.1158 30.5407 41.2959 30.0005V21.5148H47.8235C48.5355 23.4281 50.7346 27.7357 56.9667 31.7103ZM40.0683 44.8461C36.6967 44.8461 33.9461 42.1446 33.8631 38.7925C33.8695 38.7416 33.8737 38.69 33.8737 38.6374C33.8737 38.5846 33.8695 38.5333 33.8631 38.482C33.9461 35.1303 36.6967 32.4284 40.0683 32.4284C43.4918 32.4284 46.2774 35.2136 46.2774 38.6374C46.2774 42.0609 43.4918 44.8461 40.0683 44.8461ZM32.2516 21.5148H38.7811V30.0088C34.9891 30.5718 31.986 33.5839 31.4355 37.3801H24.8608C24.0283 34.948 23.4208 32.8424 23.1087 31.7103C29.3408 27.7357 31.5399 23.4281 32.2516 21.5148ZM35.5457 55.0744C34.0941 53.685 31.3371 50.8193 29.1806 47.242C27.8899 45.1009 26.7286 42.4435 25.7651 39.8948H31.4355C31.9873 43.7006 35.0051 46.7184 38.8109 47.2702V57.7955C38.0236 57.2607 36.9178 56.3878 35.5457 55.0744ZM50.8948 47.242C48.7383 50.8193 45.9813 53.6847 44.5297 55.0744C43.1925 56.3545 42.1085 57.2155 41.3257 57.7535V47.2702C45.1315 46.7184 48.1493 43.7006 48.7011 39.8948H54.3103C53.3465 42.4435 52.1855 45.1009 50.8948 47.242Z" fill="#003A7D"/>
<path d="M41.7281 36.322L38.9554 39.0947L38.2309 38.2141C37.7897 37.678 36.9976 37.6008 36.4612 38.0421C35.9251 38.4833 35.8479 39.2757 36.2891 39.8121L37.8938 41.7623C38.1191 42.0363 38.4498 42.2022 38.8039 42.2192C38.8244 42.2202 38.8446 42.2208 38.8651 42.2208C39.1977 42.2208 39.5178 42.0888 39.754 41.8523L43.5062 38.1004C43.9975 37.6092 43.9975 36.8132 43.5062 36.322C43.0153 35.8311 42.2191 35.8311 41.7281 36.322Z" fill="#003A7D"/>
</g>
<defs>
<clipPath id="clip0_901_617">
<rect width="42" height="42" fill="white" transform="translate(19 19)"/>
</clipPath>
</defs>
</svg>
