<svg width="66" height="80" viewBox="0 0 66 80" fill="none" xmlns="http://www.w3.org/2000/svg">
<path fill-rule="evenodd" clip-rule="evenodd" d="M20.7494 0H66L45.2506 80H0L20.7494 0Z" fill="#003A7D"/>
<path fill-rule="evenodd" clip-rule="evenodd" d="M34.9218 35.6605C34.5286 33.5764 32.6984 32 30.5 32C28.0147 32 26 34.0147 26 36.5C26 37.0284 26.0911 37.5355 26.2584 38.0066C26.1728 38.0022 26.0867 38 26 38C23.2386 38 21 40.2386 21 43C21 45.7614 23.2386 48 26 48H38C41.866 48 45 45.0899 45 41.5C45 37.9101 41.866 35 38 35C36.8955 35 35.8508 35.2375 34.9218 35.6605Z" fill="white"/>
</svg>
