<svg width="28" height="33" viewBox="0 0 28 33" fill="none" xmlns="http://www.w3.org/2000/svg">
<path fill-rule="evenodd" clip-rule="evenodd" d="M25.5426 6.53233L25.7352 6.99376L25.5426 6.53233L25.5424 6.5324L25.5417 6.53273L25.5383 6.53415L25.5242 6.53999L25.4677 6.56331C25.4177 6.58387 25.3434 6.61429 25.247 6.65335C25.054 6.7315 24.7724 6.84426 24.4192 6.98217C23.7125 7.25805 22.7197 7.63426 21.5763 8.03521C19.2825 8.83956 16.4093 9.73395 14.0271 10.126C9.04273 10.9462 5.11816 13.5583 3.64818 18.3664C2.48923 22.1571 3.90351 26.1211 6.89258 28.3718C6.86809 28.1981 6.84804 28.0228 6.83257 27.846C6.80716 27.5555 6.79462 27.2669 6.79447 26.9806C4.61935 24.9185 3.66678 21.7259 4.60449 18.6588C5.93336 14.3122 9.46721 11.8898 14.1895 11.1127C16.6607 10.706 19.6009 9.78762 21.9072 8.97887C23.0639 8.57326 24.0678 8.19282 24.7828 7.91371C24.8806 7.87552 24.973 7.83923 25.0597 7.80502C25.0031 8.07669 24.9343 8.40268 24.8543 8.77379C24.6042 9.93342 24.2449 11.5325 23.808 13.2904C22.9306 16.8212 21.7525 20.9414 20.5315 23.4465C19.3194 25.9333 17.7504 27.6031 15.9756 28.4928C14.2074 29.3792 12.1858 29.5164 10.0092 28.851C9.74675 28.7707 9.49132 28.6784 9.24331 28.5748C9.28117 28.9602 9.33913 29.3388 9.41604 29.7097C9.51535 29.7438 9.61561 29.7763 9.7168 29.8073C12.1079 30.5383 14.3983 30.4021 16.4237 29.3867C18.4426 28.3747 20.1486 26.5144 21.4304 23.8846C22.7032 21.2732 23.9023 17.0574 24.7785 13.5315C25.2185 11.761 25.5801 10.1515 25.8318 8.98462C25.9577 8.40107 26.0561 7.92796 26.1231 7.60047C26.1566 7.43672 26.1822 7.30935 26.1995 7.22277L26.2191 7.12403L26.2242 7.09862L26.2254 7.09209L26.2258 7.09039L26.2259 7.08994C26.2259 7.08982 26.2259 7.08975 25.7352 6.99376L26.2259 7.08975L26.4054 6.17227L25.5426 6.53233Z" fill="white"/>
</svg>
