<svg width="66" height="80" viewBox="0 0 66 80" fill="none" xmlns="http://www.w3.org/2000/svg">
<path fill-rule="evenodd" clip-rule="evenodd" d="M66 0H20.7494L0 80H45.2506L66 0ZM33.1084 31.6195C37.9617 30.8208 44.7352 27.9939 44.7352 27.9939C44.7352 27.9939 42.4748 39.5491 39.981 44.6657C37.4872 49.7823 33.4307 51.7257 28.863 50.3293C28.6768 50.2723 28.4939 50.2097 28.3144 50.1415C28.2803 49.9165 28.253 49.689 28.2329 49.4591C27.7677 44.1416 31.2833 39.3958 36.3062 38.1761C35.7974 38.1404 35.2793 38.1441 34.7552 38.19C29.4113 38.6575 25.4443 43.3326 25.8193 48.6739C23.2519 46.5061 22.08 42.9352 23.1264 39.5127C24.5258 34.9354 28.255 32.4181 33.1084 31.6195Z" fill="white"/>
</svg>
