<svg width="66" height="80" viewBox="0 0 66 80" fill="none" xmlns="http://www.w3.org/2000/svg">
<path fill-rule="evenodd" clip-rule="evenodd" d="M20.7494 0H66L45.2506 80H0L20.7494 0Z" fill="#75AC21"/>
<mask id="mask0" style="mask-type:alpha" maskUnits="userSpaceOnUse" x="19" y="40" width="12" height="12">
<path fill-rule="evenodd" clip-rule="evenodd" d="M19.917 40.0151H30.8602V51.9762H19.917V40.0151Z" fill="white"/>
</mask>
<g mask="url(#mask0)">
<path fill-rule="evenodd" clip-rule="evenodd" d="M25.516 46.3118L26.9864 43.8686L28.795 44.8702L25.8408 40.0151H20.0328L21.8415 41.0362L20.1132 43.8877C19.8922 44.2151 19.7916 44.562 20.1734 45.1013L23.4203 50.4559C23.4581 50.5237 23.4982 50.591 23.5422 50.6571L23.5497 50.6694C23.5496 50.6686 23.5492 50.6675 23.549 50.6666C23.9805 51.308 24.7113 51.8483 25.836 51.9569L25.9565 51.9762H30.8602V46.3118H25.516Z" fill="white"/>
</g>
<mask id="mask1" style="mask-type:alpha" maskUnits="userSpaceOnUse" x="23" y="32" width="18" height="8">
<path fill-rule="evenodd" clip-rule="evenodd" d="M23.9648 32.0559H40.8807V39.9485H23.9648V32.0559Z" fill="white"/>
</mask>
<g mask="url(#mask1)">
<path fill-rule="evenodd" clip-rule="evenodd" d="M32.0893 35.713L33.6143 38.0538L31.7248 39.0054L37.8357 39L40.8807 34.3969L38.9729 35.3391L37.1997 32.5974C37.0079 32.2647 36.7347 32.0181 36.0277 32.0612L29.2939 32.0582C29.2105 32.0555 29.1262 32.0549 29.041 32.0581H29.0255C29.0264 32.0583 29.0275 32.0586 29.0285 32.0588C28.1997 32.0923 27.3088 32.4115 26.6171 33.2506L26.5357 33.3368L23.9648 37.2232L29.2875 39.9485L32.0893 35.713Z" fill="white"/>
</g>
<mask id="mask2" style="mask-type:alpha" maskUnits="userSpaceOnUse" x="32" y="38" width="12" height="16">
<path fill-rule="evenodd" clip-rule="evenodd" d="M32.9717 38.0181H43.896V54H32.9717V38.0181Z" fill="white"/>
</mask>
<g mask="url(#mask2)">
<path fill-rule="evenodd" clip-rule="evenodd" d="M38.7303 45.7772L35.8216 45.8037L35.8044 43.6721L32.9717 48.8923L35.885 54L35.8852 51.8579L39.2861 51.8378C39.6879 51.8554 40.0466 51.7565 40.3343 51.1294L43.4642 45.3821C43.5054 45.3121 43.5452 45.2406 43.5817 45.1661L43.589 45.1528L43.5869 45.155C43.9404 44.4292 44.054 43.4946 43.5863 42.447L43.5431 42.3305L41.0834 38.0181L36.0496 41.0774L38.7303 45.7772Z" fill="white"/>
</g>
</svg>
